<?xml version="1.0" encoding="UTF-8" standalone="no"?>
<svg
   xmlns:dc="http://purl.org/dc/elements/1.1/"
   xmlns:cc="http://creativecommons.org/ns#"
   xmlns:rdf="http://www.w3.org/1999/02/22-rdf-syntax-ns#"
   xmlns:svg="http://www.w3.org/2000/svg"
   xmlns="http://www.w3.org/2000/svg"
   xmlns:sodipodi="http://sodipodi.sourceforge.net/DTD/sodipodi-0.dtd"
   xmlns:inkscape="http://www.inkscape.org/namespaces/inkscape"
   width="108.632mm"
   height="108.296mm"
   viewBox="0 0 108.632 108.296"
   version="1.1"
   id="svg2246"
   inkscape:version="1.0 (4035a4fb49, 2020-05-01)"
   sodipodi:docname="earth.svg">
  <defs
     id="defs2240" />
  <sodipodi:namedview
     id="base"
     pagecolor="#ffffff"
     bordercolor="#666666"
     borderopacity="1.0"
     inkscape:pageopacity="0.0"
     inkscape:pageshadow="2"
     inkscape:zoom="0.72960859"
     inkscape:cx="396.85039"
     inkscape:cy="561.25984"
     inkscape:document-units="mm"
     inkscape:current-layer="layer1"
     inkscape:document-rotation="0"
     showgrid="false"
     inkscape:window-width="1920"
     inkscape:window-height="1001"
     inkscape:window-x="-9"
     inkscape:window-y="-9"
     inkscape:window-maximized="1" />
  <metadata
     id="metadata2243">
    <rdf:RDF>
      <cc:Work
         rdf:about="">
        <dc:format>image/svg+xml</dc:format>
        <dc:type
           rdf:resource="http://purl.org/dc/dcmitype/StillImage" />
        <dc:title></dc:title>
      </cc:Work>
    </rdf:RDF>
  </metadata>
  <g
     inkscape:label="Layer 1"
     inkscape:groupmode="layer"
     id="layer1">
    <path
       style="fill:#1884ab;stroke-width:0.264583"
       d="M 108.54816,54.022432 A 54.48341,54.48341 0 0 1 54.316203,108.21247 49.915184,49.915184 0 0 1 49.286965,108.00291 54.148127,54.148127 0 0 1 0.41953719,59.470765 c 0,-1.718325 -0.293362,-3.478558 -0.293362,-5.2807 A 54.064307,54.064307 0 0 1 12.699269,19.404499 l 1.005848,-1.173488 c 1.005848,-1.131581 2.053603,-2.179337 3.143272,-3.227097 A 53.519471,53.519471 0 0 1 40.066703,1.8859875 54.48341,54.48341 0 0 1 54.23239,2.050405e-5 54.190036,54.190036 0 0 1 81.138815,7.1247745 l 1.00584,0.586744 2.76609,1.802146 a 53.561383,53.561383 0 0 1 8.63352,7.3762165 c 1.25731,1.34113 2.47271,2.724168 3.60429,4.191031 l 0.50292,0.670565 a 54.48341,54.48341 0 0 1 7.376225,13.453209 53.309921,53.309921 0 0 1 3.269,14.878168 v 4.191032"
       id="path1071" />
    <path
       style="opacity:0.64;fill:#ca9e67;stroke-width:0.264583"
       class="cls-14"
       d="m 49.119323,92.37039 -0.963935,9.59746 1.131577,6.03509 a 53.770933,53.770933 0 0 1 -11.106232,-2.22125 l -3.436646,-3.6462 -3.436646,-5.61598 -1.42495,-6.077 -6.873292,-4.19103 -5.448341,-3.43664 1.215397,-6.8733 1.424951,-4.19103 L 16.55501,70.32556 12.363979,66.134531 8.7177792,61.482488 4.2752862,60.68619 1.6349382,61.482488 0.29380819,59.470793 A 46.939553,46.939553 0 0 1 4.4619486e-4,54.022452 53.896666,53.896666 0 0 1 13.914671,18.063401 h 9.38791 l 4.652047,3.227093 -3.813841,4.442493 -2.430798,6.873292 4.191032,10.519491 0.880118,8.884987 -4.191031,-1.927875 -6.873292,2.514619 -2.807993,7.082842 3.227096,7.879137 6.035086,2.38889 3.059451,-0.3772 6.454188,-2.0536 14.417149,1.46685 8.382063,7.12476 -1.6345,6.87329 z"
       id="path1079" />
    <path
       style="opacity:0.4;fill:#ca9e67;stroke-width:0.264583"
       class="cls-14"
       d="m 72.044265,5.1550235 -0.58675,-2.556527 a 53.770933,53.770933 0 0 1 9.76511,4.191032 h -3.10136 l -5.86745,1.424946 z"
       id="path1085" />
    <path
       style="opacity:0.56;fill:#ca9e67;stroke-width:0.264583"
       class="cls-14"
       d="m 71.750895,27.451312 -4.19103,2.137424 -3.35283,-1.466859 -0.4191,-5.909356 2.55653,-0.922027 0.62865,-2.556528 -0.54483,-3.143275 3.89766,-1.466859 3.43664,-3.017543 h 4.19104 l 3.05945,-1.005848 1.46686,-2.6403515 a 54.48341,54.48341 0 0 1 15.00389,13.3693925 l -3.31091,-0.712477 -0.33529,-2.346978 -5.82553,0.209562 -1.29922,2.97563 -6.32846,-2.97563 -0.92202,0.251442 3.89765,2.514619 v 1.550679 l -4.19103,-2.849901 -4.77777,1.466863 -1.92788,2.514619 z"
       id="path1091" />
    <path
       style="opacity:0.62;fill:#e0a96c;stroke-width:0.264583"
       d="m 108.54816,54.022452 a 53.687112,53.687112 0 0 1 -2.0117,14.542878 l -0.75439,1.2154 h -3.43664 l -3.227105,-3.855748 v -5.867445 l -2.17933,-6.076997 -4.73587,-3.310913 -1.2154,-5.029238 -4.19103,-1.04776 -5.61598,2.514619 -8.38207,-4.442494 -2.4727,-6.831379 v -4.861597 l 4.86159,-5.029237 4.4425,-1.634505 h 12.32163 l 3.39473,-1.005847 2.64036,1.844054 -0.58675,-3.059451 0.4191,-0.502924 a 53.896666,53.896666 0 0 1 10.812875,32.438584"
       id="path1097" />
    <path
       style="opacity:0.4;fill:#ca9e67;stroke-width:0.264583"
       class="cls-14"
       d="m 70.703145,8.6335975 -1.96979,-2.095515 -0.12572,4.0233905 1.76024,-0.167641 0.62865,1.634504 1.13158,-1.424951 z"
       id="polygon1103" />
    <path
       style="opacity:0.4;fill:#ca9e67;stroke-width:0.264583"
       class="cls-14"
       d="m 47.526739,5.7417845 -2.76608,1.257309 -2.807993,0.461016 2.807993,-3.352826 2.76608,-1.299221 z"
       id="polygon1109" />
    <path
       style="opacity:0.51;fill:#ca9e67;stroke-width:0.264583"
       class="cls-14"
       d="m 40.108608,1.7183775 -1.383043,6.454189 -4.819684,4.1910315 -6.076998,1.005848 -7.669585,1.424951 H 16.890293 A 53.980486,53.980486 0 0 1 40.108608,1.6764695"
       id="path1115" />
    <path
       style="opacity:0.46;fill:#41692a;stroke-width:0.264583"
       class="cls-148"
       d="m 108.38051,49.915241 -2.72417,0.419103 h -5.867445 v 1.299218 h -3.93957 l -2.09552,-4.191032 -1.59259,-2.472706 -3.6462,-1.04776 -5.74171,1.04776 -1.46686,0.838206 -4.81969,-2.556531 4.19103,-4.693955 h 5.2807 l 6.83139,-2.095516 5.90935,1.424951 4.191035,-2.221245 2.4308,-0.502924 a 53.309921,53.309921 0 0 1 3.269,14.87816"
       id="path1345" />
    <path
       style="opacity:0.46;fill:#41692a;stroke-width:0.264583"
       class="cls-148"
       d="m 93.544255,16.722271 -7.3343,-0.544836 -2.76609,1.885966 -3.05945,-2.305069 -4.19103,2.305069 v 1.676413 l -3.43664,1.299218 -1.46687,-2.305066 -2.8499,-2.556531 4.19103,-2.724168 0.75439,-2.095516 2.68226,0.838206 h 2.34698 l 3.77193,-1.508771 2.47271,-1.1734895 a 52.136432,52.136432 0 0 1 8.67543,7.3762165"
       id="path1351" />
    <path
       style="opacity:0.46;fill:#41692a;stroke-width:0.264583"
       class="cls-148"
       d="m 15.591071,34.366512 6.915204,6.286547 -1.424951,6.53801 -10.854773,1.047759 -7.7534068,1.718321 -2.34697701,4.191032 A 54.064307,54.064307 0 0 1 12.699261,19.362619 l 7.501945,0.838206 5.490253,1.508772 -3.771928,4.652047 -3.93957,1.592592 z"
       id="path1357" />
    <path
       style="opacity:0.46;fill:#41692a;stroke-width:0.264583"
       class="cls-148"
       d="m 30.63688,79.79731 1.718325,-3.39473 v -5.23879 l 9.30409,-1.38304 4.693956,2.30506 6.286547,3.93958 v 4.94541 l -5.490249,6.83138 -0.922031,5.86745 0.502927,4.35867 -4.442493,5.19688 -4.819688,-2.22125 -0.922027,-8.08869 -3.017543,-4.73586 -5.783623,-3.52047 -6.412281,-1.71832 -2.095511,-0.62866 6.538009,-4.98733 z"
       id="polygon1363" />
    <path
       style="opacity:0.46;fill:#41692a;stroke-width:0.264583"
       class="cls-148"
       d="m 20.410763,78.87529 1.04776,-6.16082 3.436646,-1.67641 6.118906,-2.22125 h 4.945417 l -4.652047,2.22125 -1.466859,3.93957 -0.125721,3.14327 -3.939569,-3.31092 -2.221245,2.64035 z"
       id="polygon1369" />
    <path
       style="opacity:0.24;fill:#ffffff;stroke-width:0.264583"
       class="cls-5"
       d="M 108.54816,54.022452 A 54.48341,54.48341 0 0 1 97.232365,87.17351 c -0.96394,1.25731 -2.01169,2.4308 -3.05945,3.60429 a 44.844037,44.844037 0 0 1 -3.47856,3.43664 54.48341,54.48341 0 0 1 -20.3265,11.60916 l -3.56238,0.96394 h -0.50292 l -2.808,0.54483 c -1.13157,0.20956 -2.26315,0.33529 -3.43664,0.46101 a 52.136432,52.136432 0 0 1 -5.741712,0.29337 49.915184,49.915184 0 0 1 -5.029238,-0.20956 62.236816,62.236816 0 0 1 -7.501945,-1.2154 c -1.215401,-0.29336 -2.38889,-0.62866 -3.604287,-1.00585 a 53.729024,53.729024 0 0 1 -8.04678,-3.2271 c -1.131581,-0.58674 -2.263157,-1.17348 -3.352826,-1.84405 L 25.439997,99.7885 23.09302,98.1959 22.715817,97.90254 21.416599,96.98052 20.704122,96.39377 20.24311,96.01657 18.90198,94.9269 18.608618,94.67546 16.596923,92.78949 15.716808,91.90938 H 15.507247 A 57.45904,57.45904 0 0 1 9.8912642,85.11991 l -0.796294,-1.13158 -0.209561,-0.29337 c -0.209562,-0.3772 -0.461012,-0.75438 -0.712474,-1.13158 A 0.92202694,0.92202694 0 0 0 7.9633742,82.2281 l -0.377203,-0.71247 c -0.209562,-0.33529 -0.419103,-0.67057 -0.586745,-1.00585 l -0.670565,-1.2154 V 78.53999 C 5.9935792,77.86943 5.6582962,77.24077 5.3649222,76.57021 L 4.6105372,74.85188 C 4.1914332,73.88795 3.8561512,72.8821 3.4789602,71.87625 A 54.69296,54.69296 0 0 1 0.79670019,59.554622 c 0,-1.718325 -0.293362,-3.478559 -0.293362,-5.2807 A 54.48341,54.48341 0 0 1 1.5930062,43.419148 l 0.377203,-1.6345 c 0.335282,-1.424951 0.712473,-2.807993 1.173488,-4.191032 a 3.6881077,3.6881077 0 0 1 0,-0.628656 c 0.293363,-0.922027 0.628653,-1.802142 1.005848,-2.682261 0.377203,-0.880114 0.461012,-1.173488 0.712473,-1.760233 0.251482,-0.586744 0.293363,-0.670565 0.461016,-0.963935 a 2.263157,2.263157 0 0 1 0.209561,-0.461016 4.9873275,4.9873275 0 0 1 0.335283,-0.670565 1.8021435,1.8021435 0 0 1 0,-0.293362 c 0.461015,-0.880118 0.922027,-1.760233 1.424951,-2.640352 0.502923,-0.880114 1.508771,-2.472706 2.346977,-3.688107 0.8382068,-1.215398 1.0896688,-1.55068 1.6764128,-2.305066 l 0.838206,-1.04776 0.461016,-0.544832 1.005847,-1.173489 c 1.005848,-1.13158 2.053604,-2.179336 3.143272,-3.227096 1.089668,-1.047756 1.885966,-1.760233 2.891814,-2.598439 h 0.251482 a 54.48341,54.48341 0 0 1 16.00974,-9.0526255 l 2.766081,-0.880118 1.299218,-0.377203 h 0.670565 a 49.076977,49.076977 0 0 1 8.382063,-1.466863 c 1.718325,0 3.436646,-0.251482 5.196879,-0.251482 a 47.191015,47.191015 0 0 1 5.490253,0.293362 50.795302,50.795302 0 0 1 11.31578,2.388886 h 0.33528 c 1.46687,0.502924 2.84991,1.005848 4.19104,1.634505 a 44.927858,44.927858 0 0 1 4.52631,2.179332 l 1.00585,0.544836 1.00584,0.586744 0.58675,0.377203 2.17934,1.4249515 a 50.711482,50.711482 0 0 1 6.03508,4.819688 l 2.0117,1.927875 0.58674,0.628653 c 0.58674,0.586744 1.13158,1.215401 1.67641,1.844053 0.54484,0.628657 1.29922,1.550684 1.92788,2.346978 v 0.209562 a 4.1910315,4.1910315 0 0 1 0.33528,0.461011 c 0.58674,0.754386 1.17349,1.550684 1.71833,2.38889 a 56.201731,56.201731 0 0 1 5.657895,11.064323 53.309921,53.309921 0 0 1 3.269,14.87816 V 55.0702"
       id="path1375" />
    <path
       style="opacity:0.78;fill:#ffffff;stroke-width:0.264583"
       class="cls-5"
       d="m 9.0949742,83.9045 -0.209561,-0.29336 v -0.8382 a 11.231965,11.231965 0 0 0 0.293362,1.13157"
       id="path1381" />
    <path
       style="opacity:0.78;fill:#ffffff;stroke-width:0.264583"
       class="cls-5"
       d="m 8.8016002,82.60529 -0.251442,-1.2154 a 14.417148,14.417148 0 0 1 0,-3.77193 8.7592559,8.7592559 0 0 0 1.25731,0.46101 0.71247536,0.71247536 0 0 0 -0.544832,0.20956 h -0.502924 a 22.170556,22.170556 0 0 0 0,4.19104"
       id="path1387" />
    <path
       style="opacity:0.78;fill:#ffffff;stroke-width:0.264583"
       class="cls-5"
       d="M 10.226551,78.41426 H 9.7236272 10.310371"
       id="path1393" />
    <path
       style="opacity:0.78;fill:#ffffff;stroke-width:0.264583"
       class="cls-5"
       d="m 10.729475,78.70763 -0.502924,-0.25149 1.34113,0.41911 h -0.838206"
       id="path1399" />
    <path
       style="opacity:0.78;fill:#ffffff;stroke-width:0.264583"
       class="cls-5"
       d="m 10.729475,78.70763 a 19.404476,19.404476 0 0 0 3.688107,1.34113 L 10.939028,79.79727 H 8.8016002 v 1.17349 a 3.2270942,3.2270942 0 0 1 0.209562,-2.38888 l 1.6344998,0.25148"
       id="path1405" />
    <path
       style="opacity:0.78;fill:#ffffff;stroke-width:0.264583"
       class="cls-5"
       d="m 14.459495,79.54583 -2.891814,-0.67056 2.891814,0.67056"
       id="path1411" />
    <path
       style="opacity:0.78;fill:#ffffff;stroke-width:0.264583"
       class="cls-5"
       d="m 11.064757,76.48638 a 8.3820631,8.3820631 0 0 1 1.34113,0.46101 c -0.963935,-0.58674 -1.844054,-1.29922 -2.7660808,-1.92787 1.4249508,0.58674 3.0175428,1.80214 4.1910318,2.4308 l -0.754386,-0.20957 1.173489,0.50293 A 6.118906,6.118906 0 0 1 12.53162,77.07311 l -1.424951,-0.50292"
       id="path1417" />
    <path
       style="opacity:0.78;fill:#ffffff;stroke-width:0.264583"
       class="cls-5"
       d="m 20.033565,92.24466 -1.005848,-0.75439 1.089668,0.71248"
       id="path1423" />
    <path
       style="opacity:0.78;fill:#ffffff;fill-opacity:1;stroke-width:0.264583"
       class="cls-5"
       d="m 39.060848,70.03219 a 5.9093545,5.9093545 0 0 1 -0.293362,2.93372 11.106234,11.106234 0 0 1 -8.382064,9.42982 28.121821,28.121821 0 0 0 3.227093,-2.0536 10.393758,10.393758 0 0 0 4.652047,-11.86062 11.190054,11.190054 0 0 0 -7.166666,-4.945418 c 2.305069,2.221248 5.825536,2.807993 6.999025,6.118908 a 10.980503,10.980503 0 0 1 -8.382064,11.98635 c 0.796294,-0.37721 1.634501,-1.04776 2.472707,-1.42495 7.96296,-5.99318 2.556531,-11.94444 -3.143272,-16.764129 v 0.586744 C 28.834731,63.703733 28.625189,63.36845 28.457548,63.033168 l 0.377203,0.335282 a 18.733911,18.733911 0 0 1 -0.502924,-5.406428 10.812861,10.812861 0 0 1 -0.461011,1.760233 11.064323,11.064323 0 0 0 0,2.640348 8.3820631,8.3820631 0 0 1 -0.335283,-1.089668 10.058476,10.058476 0 0 1 -0.670565,-3.059452 12.195902,12.195902 0 0 1 2.263157,-4.400585 v -0.251482 a 9.4717313,9.4717313 0 0 0 -1.04776,1.215402 5.448341,5.448341 0 0 1 0.628657,-0.838207 l 0.419103,-0.377203 c 0,-0.335282 0.377203,-0.670565 0.586744,-1.005847 l -1.005847,0.838206 a 17.35087,17.35087 0 0 0 -1.466863,2.346978 l -0.251482,0.880119 a 2.3469776,2.3469776 0 0 1 0,0.502923 4.9454172,4.9454172 0 0 1 0,-0.838206 c 0,0.461011 -0.377203,0.922027 -0.586744,1.466859 v 0.838206 -1.005847 c 0,0.586744 -0.335283,1.215401 -0.461012,1.844054 a 6.4960989,6.4960989 0 0 0 0,0.880118 14.039956,14.039956 0 0 1 -0.670565,-3.143275 9.7231932,9.7231932 0 0 0 1.215397,8.382063 18.482449,18.482449 0 0 1 4.191032,4.484401 33.821624,33.821624 0 0 0 -1.424951,-3.478554 l 0.922027,1.047764 c -0.293362,-0.586748 -0.544832,-1.173493 -0.796294,-1.802149 a 5.6159823,5.6159823 0 0 0 0.880115,0.838206 v -0.209562 l 0.880118,0.712474 a 7.1247536,7.1247536 0 0 1 -0.922027,-1.005848 c 0,-0.461011 -0.293362,-0.922027 -0.419103,-1.383038 V 64.41617 a 3.5623768,3.5623768 0 0 1 0,-0.712477 20.410323,20.410323 0 0 0 1.927875,2.430798 C 31.181708,65.67348 30.636876,65.254376 30.133953,64.751453 l 1.215397,2.305065 c 0,0 0,0.293362 0.209561,0.419102 l -1.005847,-0.922026 a 10.058476,10.058476 0 0 0 0.502924,1.592596 l -0.586745,-0.62866 1.089668,2.17934 1.215397,3.56237 a 6.2865473,6.2865473 0 0 1 0,1.71833 c -0.209561,0.54483 -0.502923,1.08967 -0.754385,1.6345 a 20.955157,20.955157 0 0 1 -1.844054,1.59259 6.4960989,6.4960989 0 0 0 2.556531,-2.55653 4.1910315,4.1910315 0 0 1 -0.544836,1.46686 9.3460003,9.3460003 0 0 0 1.131581,-1.08966 6.3703679,6.3703679 0 0 1 -4.98733,3.64619 6.8732917,6.8732917 0 0 0 3.855749,-2.51461 17.476601,17.476601 0 0 1 -5.406429,2.80799 l 1.508772,-0.29337 a 12.573095,12.573095 0 0 1 -1.802146,0.37721 h 0.293362 -0.754385 a 26.068216,26.068216 0 0 1 -5.154971,0 34.61792,34.61792 0 0 0 5.615982,-0.25149 12.070171,12.070171 0 0 0 3.688108,-1.80214 18.440538,18.440538 0 0 1 -8.382063,1.84406 11.734888,11.734888 0 0 0 2.346977,-0.50293 18.021435,18.021435 0 0 1 -2.598439,0 5.5740719,5.5740719 0 0 0 1.173489,0 l 1.634504,-0.50292 a 29.33722,29.33722 0 0 1 -10.226117,-1.59259 4.6939553,4.6939553 0 0 0 1.005848,0.4191 h -0.586745 a 32.522404,32.522404 0 0 0 3.604287,1.46686 37.30018,37.30018 0 0 1 -6.41228,-1.88596 c -2.1374238,-1.00585 -3.8976568,-1.96979 -4.1910308,0 a 11.776799,11.776799 0 0 0 0,3.18518 c 0,0.33528 0.377202,0.67057 0.586744,1.00585 a 12.112081,12.112081 0 0 1 -0.377203,-3.10137 c 0,-0.54483 0.586745,-1.6345 1.173489,-1.6345 4.1910318,0.54484 6.9990208,2.76608 11.0643228,3.31092 h 0.628653 -1.802142 a 49.244619,49.244619 0 0 1 -9.1364478,-2.64035 1.0477579,1.0477579 0 0 0 -0.544836,0 c 2.7660798,0.8382 5.7417148,1.92787 8.7592568,2.55653 a 28.121821,28.121821 0 0 0 3.185184,0.29336 h -1.927874 l -1.25731,-0.25148 q -1.466863,0 -2.891813,-0.50293 l 2.724172,0.67057 h -2.766081 c 1.215398,0.33528 2.388886,0.58674 3.562375,0.7963 -2.556527,-0.25145 -4.987325,-0.71248 -7.040933,-1.04776 h -0.293362 c -1.04776,0 -0.922027,1.80214 -0.461015,3.43664 a 14.249507,14.249507 0 0 0 6.370368,8.38207 11.860619,11.860619 0 0 1 -4.191032,-3.31092 16.764126,16.764126 0 0 1 -3.5204668,-7.20857 v -0.25148 a 15.339175,15.339175 0 0 0 0.6705658,3.35282 4.4844037,4.4844037 0 0 0 0.293362,0.7963 57.45904,57.45904 0 0 0 5.615982,6.78947 14.710521,14.710521 0 0 0 2.011695,0.92202 4.1910315,4.1910315 0 0 1 -1.802145,-0.75438 l 0.880118,0.88012 a 9.30409,9.30409 0 0 0 5.196879,0.4191 13.159839,13.159839 0 0 1 -1.844054,-1.04776 4.1910315,4.1910315 0 0 1 -1.13158,0.4191 19.027283,19.027283 0 0 1 -2.766081,-3.64619 l -0.419103,-0.7963 0.461015,0.62866 a 15.96783,15.96783 0 0 0 2.89181,2.64034 19.99122,19.99122 0 0 1 -3.017543,-3.18518 11.399606,11.399606 0 0 1 -1.131576,-1.76023 c -0.251482,-0.62866 -0.461016,-1.25731 -0.670565,-1.88597 h 2.388886 a 24.224162,24.224162 0 0 0 7.585769,-0.29336 21.709543,21.709543 0 0 0 6.076994,-1.80214 18.147166,18.147166 0 0 0 6.41228,-4.98733 8.3820631,8.3820631 0 0 0 1.969783,-7.58576 M 27.40976,57.459022 v 0.251442 z M 14.1661,84.44926 v -0.46101 l 1.676413,0.33528 h -1.55068 M 34.073502,74.30697 a 4.5263141,4.5263141 0 0 0 0,-3.47856 4.7358656,4.7358656 0 0 0 -1.760233,-2.68226 16.764126,16.764126 0 0 0 1.802142,1.17349 5.7417132,5.7417132 0 0 1 1.173488,3.35282 10.519489,10.519489 0 0 1 -11.064323,8.38207 10.393758,10.393758 0 0 0 9.807014,-6.41228 m -12.573095,8.38206 a 14.66861,14.66861 0 0 0 14.459061,-8.04678 c -0.880119,3.39474 -5.154971,6.28655 -8.759258,7.87914 a 21.667633,21.667633 0 0 1 -5.699803,0 m 13.578942,8.38207 c -1.760233,0.79629 -2.849901,1.50877 -4.191031,2.09551 a 27.576987,27.576987 0 0 1 -2.556527,1.76024 11.525337,11.525337 0 0 1 -4.191032,1.08966 h -3.897661 l 0.461015,0.37721 a 9.6812829,9.6812829 0 0 0 3.981478,0 11.651068,11.651068 0 0 0 4.191032,-1.42495 15.590637,15.590637 0 0 0 3.688108,-2.80799 c 1.047759,-0.54484 2.221248,-1.00585 3.436645,-1.55069 a 5.3226101,5.3226101 0 0 1 -1.173488,0.25148"
       id="path1429" />
    <path
       style="opacity:0.78;fill:#ffffff;stroke-width:0.264583"
       class="cls-5"
       d="m 24.056955,78.95909 a 20.368413,20.368413 0 0 0 5.322612,-2.26316 7.0828433,7.0828433 0 0 1 -5.322612,2.26316"
       id="path1435" />
    <path
       style="opacity:0.78;fill:#ffffff;fill-opacity:1;stroke-width:0.264583"
       class="cls-5"
       d="m 4.9039432,72.67254 c -0.251482,0.67057 -0.461016,1.38304 -0.670565,2.09552 -0.419103,-0.96394 -0.754386,-1.96979 -1.131581,-2.97563 0.335283,-0.96394 0.754386,-1.92788 1.173489,-2.89182 0.880119,-1.927873 2.724172,0.33528 4.693955,2.05361 1.7183248,0.71247 3.4785578,3.52047 4.6520468,1.84405 6.999021,-8.38206 4.191032,-22.212464 16.345023,-26.110125 -9.681285,5.615982 -5.490253,15.506816 -0.670565,23.553595 a 52.974639,52.974639 0 0 0 -4.610134,-4.19103 c 2.346977,3.31092 7.040933,8.88499 1.173488,11.10624 -5.867444,2.22124 -13.411301,-1.13158 -18.6500918,-5.57408 -0.586744,-0.54483 -2.346978,0 -2.305065,1.00585"
       id="path1441" />
    <path
       style="opacity:0.78;fill:#ffffff;stroke-width:0.264583"
       class="cls-5"
       d="m 23.805493,79.62965 2.640352,-0.71247 a 7.5857671,7.5857671 0 0 0 3.604287,-1.59259 8.3820631,8.3820631 0 0 1 -6.244639,2.30506"
       id="path1447" />
    <path
       style="opacity:0.78;fill:#ffffff;stroke-width:0.264583"
       class="cls-5"
       d="m 28.792822,54.022452 a 5.3645204,5.3645204 0 0 0 -0.880118,1.676413 l -0.293362,0.628652 a 6.3284576,6.3284576 0 0 1 1.173488,-2.305065"
       id="path1453" />
    <path
       style="opacity:0.78;fill:#ffffff;stroke-width:0.264583"
       class="cls-5"
       d="m 29.295746,70.24174 a 5.2806997,5.2806997 0 0 1 1.047756,1.71833 l -1.047756,-1.71833"
       id="path1459" />
    <path
       style="opacity:0.78;fill:#ffffff;stroke-width:0.264583"
       class="cls-5"
       d="m 30.343502,53.016604 a 0.50292378,0.50292378 0 0 0 -0.209561,0.209562 l -0.335283,0.293362 a 3.1013633,3.1013633 0 0 1 0.544832,-0.502924"
       id="path1465" />
    <path
       style="opacity:0.78;fill:#ffffff;stroke-width:0.264583"
       class="cls-5"
       d="m 31.936094,51.256371 -1.55068,1.299218 v -0.209562 l 1.383039,-1.089668"
       id="path1471" />
    <path
       style="opacity:0.78;fill:#ffffff;stroke-width:0.264583"
       class="cls-5"
       d="M 30.050132,77.32459 A 4.7358656,4.7358656 0 0 0 31.1398,75.01952 v -0.54483 a 4.1910315,4.1910315 0 0 1 -1.802145,2.22124 5.5321616,5.5321616 0 0 0 1.173488,-2.80799 3.3528252,3.3528252 0 0 0 -0.209561,-1.92787 l 0.209561,0.25148 a 4.1910315,4.1910315 0 0 1 0.628657,1.38304 12.112081,12.112081 0 0 0 -0.461015,-3.56238 c 1.383042,2.72417 1.676412,5.53216 -0.461012,7.2924"
       id="path1477" />
    <path
       style="opacity:0.78;fill:#ffffff;stroke-width:0.264583"
       class="cls-5"
       d="m 30.678785,52.346039 -0.586745,0.461012 -0.586744,0.502924 a 13.956135,13.956135 0 0 1 2.807993,-2.682261 7.837229,7.837229 0 0 0 -1.634504,1.718325"
       id="path1483" />
    <path
       style="opacity:0.78;fill:#ffffff;stroke-width:0.264583"
       class="cls-5"
       d="m 35.498473,48.783661 0.670565,-0.251482 a 25.649113,25.649113 0 0 0 -4.191032,2.640352 19.697848,19.697848 0 0 1 3.478555,-2.38889"
       id="path1489" />
    <path
       style="opacity:0.78;fill:#ffffff;stroke-width:0.264583"
       class="cls-5"
       d="m 57.375655,53.896719 a 11.441516,11.441516 0 0 0 -1.46686,-1.383038 17.686153,17.686153 0 0 0 -10.77095,-5.2807 h -3.520466 a 11.315785,11.315785 0 0 0 -3.93957,0.712473 7.7953187,7.7953187 0 0 0 -1.299221,0.419103 14.58479,14.58479 0 0 0 -4.191032,2.263157 18.901552,18.901552 0 0 1 3.017543,-1.718321 h 0.293362 a 10.016565,10.016565 0 0 1 1.55068,-0.628656 l -0.880115,0.377203 a 20.955157,20.955157 0 0 1 20.955149,5.406428 l 0.37721,0.377203 -0.41911,-0.502924 m -11.23196,-5.951264 a 22.254377,22.254377 0 0 1 3.813841,1.089668 23.385956,23.385956 0 0 0 -3.813841,-1.089668"
       id="path1495" />
    <path
       style="opacity:0.78;fill:#ffffff;stroke-width:0.264583"
       class="cls-5"
       d="m 35.959484,90.98735 3.017543,-1.29922 -1.718321,0.92203 a 6.6218298,6.6218298 0 0 1 -1.299222,0.3772"
       id="path1501" />
    <path
       style="opacity:0.78;fill:#ffffff;stroke-width:0.264583"
       class="cls-5"
       d="m 38.138821,67.81094 a 5.1968791,5.1968791 0 0 1 0.880118,2.05361 7.711498,7.711498 0 0 0 -0.712477,-1.59259 v -0.46102"
       id="path1507" />
    <path
       style="opacity:0.78;fill:#ffffff;stroke-width:0.264583"
       class="cls-5"
       d="m 37.803538,63.955195 0.922027,0.502923 a 25.565292,25.565292 0 0 1 2.514619,3.310922 16.219292,16.219292 0 0 0 -3.436646,-3.813845"
       id="path1513" />
    <path
       style="opacity:0.78;fill:#ffffff;stroke-width:0.264583"
       class="cls-5"
       d="m 53.897099,51.675474 0.251482,0.251442 a 18.356718,18.356718 0 0 0 -20.703696,-1.34113 24.727086,24.727086 0 0 0 -3.101363,2.430798 17.35087,17.35087 0 0 1 13.620855,-5.238791 22.170556,22.170556 0 0 1 9.932742,3.897661"
       id="path1519" />
    <path
       style="opacity:0.78;fill:#ffffff;stroke-width:0.264583"
       class="cls-5"
       d="m 57.962395,72.46299 v -2.4308 a 23.511687,23.511687 0 0 1 0,2.4308"
       id="path1525" />
    <path
       style="opacity:0.78;fill:#ffffff;stroke-width:0.264583"
       class="cls-5"
       d="m 59.219705,56.872353 -0.29336,-0.377202 h 0.20956 v 0.209561"
       id="path1531" />
    <path
       style="opacity:0.78;fill:#ffffff;stroke-width:0.264583"
       class="cls-5"
       d="m 57.794755,54.399643 a 22.505839,22.505839 0 0 1 4.48441,6.370368 l -1.08967,-1.718321 v 0.251442 a 3.1432736,3.1432736 0 0 0 -0.29336,-0.502924 v 0.251482 a 10.729041,10.729041 0 0 0 -1.67642,-2.640352 23.050673,23.050673 0 0 1 1.50878,2.38889 38.012656,38.012656 0 0 0 -3.68811,-4.861597 h 0.25148 l 0.29336,0.335283"
       id="path1537" />
    <path
       style="opacity:0.78;fill:#ffffff;stroke-width:0.264583"
       class="cls-5"
       d="m 61.482865,59.889896 c 0,-0.209561 0,-0.419103 -0.20956,-0.586744 a 18.314807,18.314807 0 0 1 0.96393,2.053603 l -0.75437,-1.466859"
       id="path1543" />
    <path
       style="opacity:0.78;fill:#ffffff;stroke-width:0.264583"
       class="cls-5"
       d="m 62.572535,89.22712 a 9.1783591,9.1783591 0 0 1 -1.04776,1.55068 l 1.04776,-1.55068"
       id="path1549" />
    <path
       style="opacity:0.78;fill:#ffffff;stroke-width:0.264583"
       class="cls-5"
       d="m 59.219705,56.872353 a 25.146189,25.146189 0 0 1 3.93957,7.082842 9.8489241,9.8489241 0 0 1 -0.4191,-0.922027 23.176404,23.176404 0 0 1 -3.52047,-6.160815"
       id="path1555" />
    <path
       style="opacity:0.78;fill:#ffffff;stroke-width:0.264583"
       class="cls-5"
       d="m 62.279165,61.398667 c 0.62865,1.25731 1.21539,2.305066 1.76023,3.227093 a 16.093561,16.093561 0 0 1 -1.46686,-2.388886 c 0,-0.251482 -0.20956,-0.544836 -0.29336,-0.838207"
       id="path1561" />
    <path
       style="opacity:0.78;fill:#ffffff;stroke-width:0.264583"
       class="cls-5"
       d="m 64.207035,64.62576 0.41911,0.461015 -0.25145,-0.377203"
       id="path1567" />
    <path
       style="opacity:0.51;fill:#ffffff;fill-opacity:1;stroke-width:0.264583"
       class="cls-5"
       d="m 7.0832792,74.89379 a 2.3050673,2.3050673 0 0 1 2.430798,0 8.0048702,8.0048702 0 0 0 -3.478558,-1.59259 18.440538,18.440538 0 0 0 -1.047756,3.14327 c 0.293363,0.67056 0.628653,1.29922 0.963936,1.96979 a 2.263157,2.263157 0 0 0 0,0.46101 v 0.29336 c 0,-1.00585 0,-2.05361 0.293362,-3.10136 a 8.7173456,8.7173456 0 0 1 4.1910308,0.29336 C 8.8435002,75.39669 7.4604582,74.60039 6.5803432,74.85186 m 1.508772,2.59844 -0.796298,-0.25145 a 12.908377,12.908377 0 0 0 0,4.90351 0.92202694,0.92202694 0 0 1 0.209561,0.33529 c 0,-0.62866 -0.293362,-1.25731 -0.377203,-1.92788 0,-1.34113 0,-2.72417 0.796298,-3.05945 M 93.502345,76.06728 a 18.063346,18.063346 0 0 0 -8.17251,-7.75341 20.955157,20.955157 0 0 0 -8.9269,-2.095518 c -0.88011,-0.670565 -1.6345,-1.173489 -2.72417,-2.053604 a 42.287506,42.287506 0 0 0 -9.38791,-6.41228 9.0107178,9.0107178 0 0 1 -3.98148,-3.143272 24.391803,24.391803 0 0 0 -11.776796,-8.382063 20.116951,20.116951 0 0 0 -19.236833,2.766081 9.2621797,9.2621797 0 0 0 -4.191031,8.382063 16.764126,16.764126 0 0 1 0.628652,-2.179336 8.7173456,8.7173456 0 0 1 2.933723,-5.574074 19.236834,19.236834 0 0 1 17.183229,-3.730016 17.644242,17.644242 0 0 0 -4.945417,0 57.123758,57.123758 0 0 0 -8.759254,2.221244 10.142296,10.142296 0 0 0 -5.238792,9.346003 18.230987,18.230987 0 0 1 3.059455,-5.951265 15.925919,15.925919 0 0 1 11.651068,-4.987329 c 10.519487,-0.544833 18.105256,7.208574 23.008766,15.255354 a 20.955157,20.955157 0 0 1 4.44249,2.724173 27.157884,27.157884 0 0 1 9.93274,23.134489 16.345023,16.345023 0 0 0 -0.58674,-11.69298 18.901552,18.901552 0 0 0 -4.69396,-8.884982 65.841103,65.841103 0 0 0 -6.99902,-6.118906 10.226117,10.226117 0 0 1 -4.19103,-3.352825 c -2.09552,-2.724169 -4.40059,-4.945417 -6.70565,-7.669586 a 26.948332,26.948332 0 0 1 7.41812,8.382063 31.516557,31.516557 0 0 1 4.19103,1.927875 29.33722,29.33722 0 0 1 10.1423,9.346001 39.102324,39.102324 0 0 0 3.73002,4.77777 14.081866,14.081866 0 0 1 8.67543,11.02242 17.769973,17.769973 0 0 1 -0.88011,6.20272 8.6754353,8.6754353 0 0 1 -3.56238,6.11891 21.248529,21.248529 0 0 1 -12.27972,6.11891 14.752431,14.752431 0 0 1 -5.23879,-0.20956 c 5.23879,-5.90936 9.93275,-13.66277 8.75926,-22.00292 a 20.955157,20.955157 0 0 0 -4.65205,-11.10623 23.846969,23.846969 0 0 0 -4.90351,-4.945421 22.883032,22.883032 0 0 0 -2.93372,-1.802142 l -1.88596,-3.059455 0.3772,0.838206 a 9.5974622,9.5974622 0 0 0 3.56237,4.191032 35.665678,35.665678 0 0 1 5.78363,5.19688 23.93079,23.93079 0 0 1 -4.19103,31.85184 9.8489241,9.8489241 0 0 1 0.92202,-1.08967 35.414216,35.414216 0 0 0 5.61599,-8.38206 23.344045,23.344045 0 0 0 1.76023,-11.10623 26.277767,26.277767 0 0 0 -5.82553,-12.78265 21.458081,21.458081 0 0 0 -5.78363,-4.191034 14.123776,14.123776 0 0 0 2.47271,2.011695 19.614027,19.614027 0 0 1 8.38206,14.542879 21.709543,21.709543 0 0 0 -10.39376,-15.255352 7.4600361,7.4600361 0 0 1 -1.92787,-2.430798 19.362565,19.362565 0 0 1 0.7963,2.514619 14.58479,14.58479 0 0 0 2.17933,1.885961 33.27679,33.27679 0 0 1 6.41228,9.42982 17.560422,17.560422 0 0 1 0.58675,7.79532 30.007785,30.007785 0 0 1 -1.71833,6.66374 25.900575,25.900575 0 0 1 -22.841116,14.03996 c -1.760233,0 -3.562378,0 -0.502923,-4.73587 a 21.835274,21.835274 0 0 0 3.771928,-13.15984 19.907399,19.907399 0 0 1 0.586744,-1.92787 8.3820631,8.3820631 0 0 0 -0.419103,2.22125 32.983418,32.983418 0 0 1 -4.526314,16.30311 c 0,0 0.586745,0 0.628653,0.25144 a 25.146189,25.146189 0 0 0 4.191031,-0.33528 26.277767,26.277767 0 0 0 4.19103,-1.00585 23.134494,23.134494 0 0 0 14.03996,-13.32748 12.573095,12.573095 0 0 0 1.17348,-4.4425 17.015588,17.015588 0 0 0 -4.19103,-14.12377 24.810906,24.810906 0 0 0 -3.89765,-3.6462 41.197838,41.197838 0 0 0 -6.41228,-13.32748 l 1.50877,1.466864 a 24.643265,24.643265 0 0 0 -4.777787,-4.568199 l 2.682257,2.556531 a 18.817731,18.817731 0 0 0 -10.519484,-5.574074 25.146189,25.146189 0 0 0 -11.106232,1.089669 22.799211,22.799211 0 0 0 -5.07115,3.227096 l -0.461011,0.544832 a 7.5019465,7.5019465 0 0 0 -0.670566,1.844054 14.836252,14.836252 0 0 0 -0.796298,1.634504 6.8732917,6.8732917 0 0 0 0,3.771929 v -2.682261 a 9.429821,9.429821 0 0 1 0.586745,-1.844053 v 1.215397 a 6.8732917,6.8732917 0 0 1 1.885966,-3.813837 16.303112,16.303112 0 0 1 12.237812,-3.897661 20.536054,20.536054 0 0 1 13.201748,7.75341 0.88011662,0.88011662 0 0 1 0,0.251482 29.840144,29.840144 0 0 1 3.77193,7.585765 22.044825,22.044825 0 0 1 0.92202,6.454192 13.28557,13.28557 0 0 0 1.67642,6.87329 11.692978,11.692978 0 0 1 0.67056,8.88499 13.872314,13.872314 0 0 1 -0.62865,1.38304 4.1910315,4.1910315 0 0 1 0.62865,-0.83821 12.573095,12.573095 0 0 0 1.13158,-4.44249 12.112081,12.112081 0 0 0 -2.0536,-6.66374 8.3820631,8.3820631 0 0 1 -1.38305,-5.78363 15.381086,15.381086 0 0 0 0,-1.92787 33.947355,33.947355 0 0 1 0.7963,6.45419 14.165687,14.165687 0 0 1 3.10136,5.15497 v 4.44249 a 13.495122,13.495122 0 0 1 -3.47855,7.75341 21.206619,21.206619 0 0 1 -5.69981,3.89766 c -1.005844,0.46101 -1.885959,0.62865 -2.388883,0 a 46.101347,46.101347 0 0 0 0.544837,-8.00487 v -4.19104 c 1.089664,-3.35282 3.017536,-6.28654 3.855746,-9.55555 a 18.440538,18.440538 0 0 1 -1.34113,4.48441 40.359632,40.359632 0 0 0 -2.095517,5.99317 25.146189,25.146189 0 0 1 0,8.38206 c 0.209561,2.51462 1.969787,1.67642 3.688107,0.58675 a 13.914225,13.914225 0 0 0 3.56238,-4.19103 27.493166,27.493166 0 0 1 -5.2807,4.77777 c -0.88012,0.54484 -1.466864,0 -1.592592,-2.01169 -0.125721,-2.0117 0,-4.19103 0,-6.28655 a 9.5974622,9.5974622 0 0 1 0.712472,-4.19103 c 0.54484,-1.80214 1.42495,-3.56238 2.0117,-5.2807 a 32.229032,32.229032 0 0 1 -2.305069,7.12475 c 0.251479,1.76024 0.419099,3.47856 0.502919,5.11306 0.25149,2.72417 1.42496,1.88597 2.4308,0.88012 a 6.7894711,6.7894711 0 0 0 1.80214,-7.50195 18.524359,18.524359 0 0 1 -2.34697,3.05946 c -0.41911,0.3772 -0.7963,-0.29337 -1.2154,-1.67642 0,-5.2807 3.56237,-10.26803 2.38889,-16.38693 a 16.386933,16.386933 0 0 0 -2.89181,-8.884988 29.672503,29.672503 0 0 0 -9.346003,-7.250483 20.955157,20.955157 0 0 0 -8.382063,-0.544836 10.64522,10.64522 0 0 0 -6.999024,4.98733 c -3.520467,6.118906 5.238791,6.663738 8.172513,10.561399 a 10.058476,10.058476 0 0 1 1.131577,4.442498 c -1.718321,11.10623 -13.998046,13.91422 -23.88888,13.91422 0,0.54483 0.544836,0.54483 0.293362,0.92203 a 16.764126,16.764126 0 0 0 3.227092,2.97563 19.404476,19.404476 0 0 0 8.675438,3.31091 6.118906,6.118906 0 0 1 -4.191032,2.22125 19.781668,19.781668 0 0 1 -6.076998,0 l 0.293363,0.25144 a 11.190054,11.190054 0 0 0 12.237812,-2.80799 c 0.586744,-0.58674 6.328455,-2.34698 4.861596,-2.13743 -3.143275,0 -5.448341,0.46102 -8.675437,0 h -0.251442 a 31.348915,31.348915 0 0 0 18.650092,-5.82553 11.148144,11.148144 0 0 0 1.173489,-2.22125 c -7.585769,4.98733 -17.518512,11.10624 -26.864514,5.57408 a 68.355722,68.355722 0 0 1 11.69298,-3.89766 c 2.89181,-1.13158 4.191032,-3.35283 6.412276,-5.57407 A 9.0945384,9.0945384 0 0 0 36.252855,63.661824 l 0.963935,0.461012 c -1.592592,-1.383038 -3.394734,-2.68226 -4.945417,-3.93957 -0.544832,-0.544832 0,-1.676412 0,-2.766081 a 6.8732917,6.8732917 0 0 1 4.191031,-3.897657 h 0.461016 a 5.0711482,5.0711482 0 0 0 -3.394738,6.789471 c 0.586745,2.221245 3.520467,2.221245 5.2807,3.897658 a 11.148144,11.148144 0 0 1 2.891814,6.244643 7.3343052,7.3343052 0 0 0 -0.96394,-2.38889 3.6461974,3.6461974 0 0 1 0.377203,1.67641 c 1.173489,10.01657 -9.30409,16.13547 -18.650092,17.76997 10.477579,6.66374 22.170559,-3.31091 26.822602,-11.65107 a 12.573095,12.573095 0 0 1 -5.741711,10.81287 12.279722,12.279722 0 0 0 1.676412,-1.92788 c -1.844054,1.46686 -3.520466,3.10136 -5.36452,4.19103 l -1.34113,0.75439 0.838206,-0.4191 a 13.578942,13.578942 0 0 1 -2.556531,1.34113 l -2.263157,1.13158 a 7.4181258,7.4181258 0 0 0 -2.556528,1.80214 8.6754353,8.6754353 0 0 1 -3.059455,2.64035 16.764126,16.764126 0 0 1 -7.585765,1.13158 h -0.377202 l 1.299221,0.96393 a 20.955157,20.955157 0 0 0 2.807989,0 9.9746551,9.9746551 0 0 1 -2.430798,0.33529 l 2.346978,1.59259 a 19.111103,19.111103 0 0 0 12.112083,-6.03509 17.225139,17.225139 0 0 1 -9.932747,6.66374 h -0.838206 c 1.089668,0.67057 2.221249,1.25731 3.352825,1.84406 a 24.140341,24.140341 0 0 0 6.244639,-3.10137 28.499014,28.499014 0 0 0 3.855749,-4.19103 63.242664,63.242664 0 0 1 4.191032,-5.61598 22.338198,22.338198 0 0 0 10.226113,-20.61988 C 53.016981,64.70958 48.323025,57.501006 44.844467,59.722255 40.150512,63.033168 47.191445,71.37332 42.49749,76.94739 46.017956,69.69691 40.150512,63.578004 34.911725,58.590674 a 4.652045,4.652045 0 0 1 1.760233,-3.310913 5.3645204,5.3645204 0 0 1 4.191031,-1.676412 13.872314,13.872314 0 0 1 4.693956,0.544832 c 12.82455,5.029238 13.99804,20.577969 7.543856,30.678349 -0.209561,0.3772 -0.335282,0.71248 -0.502923,1.00585 0.251482,-0.54483 0.502923,-1.17349 0.880114,-1.84405 a 37.719283,37.719283 0 0 0 2.346973,-5.57407 19.99122,19.99122 0 0 0 1.13158,-9.97466 16.093561,16.093561 0 0 0 -17.476598,-14.45906 15.716368,15.716368 0 0 1 9.890834,2.76608 c 12.279724,8.9269 5.867444,22.79921 0.922027,33.15106 a 22.757301,22.757301 0 0 1 -0.377203,4.77778 18.775821,18.775821 0 0 1 -7.879139,12.15399 62.236816,62.236816 0 0 0 7.501945,1.2154 49.873275,49.873275 0 0 0 5.029237,0.25148 54.986334,54.986334 0 0 0 9.178357,-0.7963 l -1.08967,-0.33528 c 2.76608,-3.31092 6.24464,-5.44834 8.67544,-8.9269 a 29.840144,29.840144 0 0 1 -5.74172,6.41228 c -1.13157,1.25731 -1.21539,1.80214 -0.58674,1.96979 l 1.55068,0.33528 h 0.50293 l -1.04776,-0.25144 c 0,-0.41911 0.29336,-0.83821 0.50292,-1.29922 a 21.541902,21.541902 0 0 0 4.19103,0.58674 54.48341,54.48341 0 0 0 20.32651,-11.60916 21.416171,21.416171 0 0 0 0.54483,-16.42884 16.303112,16.303112 0 0 1 2.93372,12.9922 c 1.04776,-1.17349 2.09552,-2.34698 3.05946,-3.60429 a 20.536054,20.536054 0 0 0 -3.05946,-11.06432 m -22.17055,20.57796 c 0.67056,-1.6345 1.50877,-3.22709 2.26315,-4.94541 a 26.69687,26.69687 0 0 1 -2.72417,5.74171 l 0.46102,-0.7963 M 50.125171,52.387948 a 18.147166,18.147166 0 0 0 -6.579917,-2.305066 17.644242,17.644242 0 0 1 11.106231,5.783624 28.582835,28.582835 0 0 0 -4.526314,-3.478558 m 8.130604,16.764122 a 6.4960989,6.4960989 0 0 1 0,0.92203 v -0.25144 a 20.200772,20.200772 0 0 1 0,3.18518 v -0.4191 a 36.000961,36.000961 0 0 0 -0.29337,-5.196879 c 0,0.586739 0.20957,1.173489 0.25149,1.760229 M 24.056987,90.10725 h 0.963939 -1.634504 0.670565 M 32.43905,57.375297 c 0,1.676413 -0.586744,3.310913 0.544836,4.442494 l 1.802142,0.922027 a 12.573095,12.573095 0 0 0 -1.802142,-0.377203 3.059453,3.059453 0 0 1 -1.718325,-2.766081 6.7475608,6.7475608 0 0 1 2.263157,-4.400581 7.0828433,7.0828433 0 0 0 -1.089668,2.179336 m 1.508771,36.420061 a 10.351848,10.351848 0 0 1 -1.885962,1.67641 20.955157,20.955157 0 0 1 1.508771,-2.01169 l 1.676413,-0.7963 a 9.5974622,9.5974622 0 0 0 -1.299222,1.13158 M 50.502398,71.2476 c 3.269004,8.38206 -4.652047,16.09356 -12.195904,19.78167 7.250487,-4.19103 14.752431,-10.39376 11.776801,-18.81773 0,-0.33528 0.293362,-0.67056 0.419103,-0.96394 m -1.885966,3.85575 C 44.4254,84.03025 36.252891,92.3704 24.811373,87.92791 31.852306,85.11992 38.85133,81.809 41.575499,74.60043 A 2.5565292,2.5565292 0 0 0 41.78506,74.0975 24.433713,24.433713 0 0 1 28.164206,87.34116 c 9.38791,3.31092 16.261202,-4.9035 20.284592,-12.23781 m 7.753407,-12.573094 a 20.284592,20.284592 0 0 0 -1.634501,-3.143272 23.427866,23.427866 0 0 0 -4.568222,-4.191031 17.099408,17.099408 0 0 1 7.669583,11.860617 c 0,-0.377203 -0.20956,-0.754386 -0.29336,-1.131576 a 22.002915,22.002915 0 0 0 -1.04776,-3.059456"
       id="path1573" />
    <path
       style="opacity:0.45;fill:#ffffff;stroke-width:0.264583"
       class="cls-5"
       d="m 37.258706,6.2446915 a 9.7651035,9.7651035 0 0 1 3.101364,-4.191031 12.573095,12.573095 0 0 0 -3.101364,4.191031"
       id="path1579" />
    <path
       style="opacity:0.45;fill:#ffffff;stroke-width:0.264583"
       class="cls-5"
       d="m 40.821081,1.5507365 -0.461011,0.377203 0.251481,-0.335283 h 0.209562"
       id="path1585" />
    <path
       style="opacity:0.45;fill:#ffffff;stroke-width:0.264583"
       class="cls-5"
       d="m 60.602745,26.026361 c 0,-0.586744 -0.25144,-1.173489 -0.3772,-1.718325 a 13.201749,13.201749 0 0 1 0.7963,-4.191031 12.112081,12.112081 0 0 0 0,6.579921 4.7358656,4.7358656 0 0 1 -0.3772,-0.838206"
       id="path1591" />
    <path
       style="opacity:0.45;fill:#ffffff;stroke-width:0.264583"
       class="cls-5"
       d="m 44.67683,21.667688 a 10.226117,10.226117 0 0 0 10.226117,-6.160818 3.6042871,3.6042871 0 0 1 2.682258,-1.215397 8.1306012,8.1306012 0 0 1 3.47856,0.670565 5.7417132,5.7417132 0 0 1 0.29336,1.424951 5.0711482,5.0711482 0 0 0 -0.83821,-1.634505 7.2085742,7.2085742 0 0 0 -3.73002,-0.209561 3.059453,3.059453 0 0 0 -2.263155,2.179336 7.8791393,7.8791393 0 0 1 -9.848922,4.945417"
       id="path1597" />
    <path
       style="opacity:0.45;fill:#ffffff;stroke-width:0.264583"
       class="cls-5"
       d="m 61.021855,20.284646 a 13.411301,13.411301 0 0 0 0.33528,-3.897657 6.5799195,6.5799195 0 0 1 -0.33528,3.897657"
       id="path1603" />
    <path
       style="opacity:0.45;fill:#ffffff;stroke-width:0.264583"
       class="cls-5"
       d="m 68.859075,4.2749095 -2.80798,-1.173489 c 0.96393,0.335282 1.88596,0.754385 2.80798,1.173489"
       id="path1609" />
    <path
       style="opacity:0.45;fill:#ffffff;stroke-width:0.264583"
       class="cls-5"
       d="m 73.469215,47.484443 -1.84405,-0.209562 a 5.448341,5.448341 0 0 1 1.84405,0.209562"
       id="path1615" />
    <path
       style="opacity:0.45;fill:#ffffff;stroke-width:0.264583"
       class="cls-5"
       d="m 71.708985,5.8255885 a 23.344045,23.344045 0 0 0 -2.84991,-1.550679 24.056521,24.056521 0 0 0 3.60429,1.089668 21.206619,21.206619 0 0 1 5.11306,0.377203 20.326503,20.326503 0 0 1 2.64035,0.670565 l 1.00585,0.544836 1.00585,0.58674 0.58674,0.377203 a 18.733911,18.733911 0 0 0 -4.40058,-1.466879 27.786539,27.786539 0 0 0 -4.19103,-0.335283 9.8489241,9.8489241 0 0 1 -2.51462,-0.293374"
       id="path1621" />
    <path
       style="opacity:0.45;fill:#ffffff;fill-opacity:1;stroke-width:0.264583"
       class="cls-5"
       d="m 83.695335,23.930846 c 5.32261,8.382063 12.32163,18.733908 0,23.302135 a 29.630593,29.630593 0 0 1 -5.61599,1.383038 15.632548,15.632548 0 0 1 -4.61013,-1.005847 c 6.99902,0.419103 13.70467,-2.472707 15.00389,-8.382063 0.54484,-1.634501 -0.75438,-2.975631 -1.42495,-4.526314 -1.67641,-3.646196 -6.32845,-5.154967 -8.80116,-8.17251 -2.84991,-5.406433 1.71832,-10.687132 6.28654,-13.201751 0.41911,-0.586745 -0.96393,-1.25731 -2.34697,-1.760234 -1.38304,-0.502923 -2.89181,-0.838206 -4.4425,-1.34113 a 21.416171,21.416171 0 0 0 -3.269,-0.209561 C 69.445825,5.8255765 62.195345,1.6345455 55.322055,3.4785995 a 57.500953,57.500953 0 0 1 15.84209,6.5799175 c 1.17349,0.754386 2.17934,1.592592 1.13158,2.724173 -1.04776,1.131576 -1.96978,2.68226 -2.97563,4.191031 1.42495,-0.880118 4.52631,-1.676412 4.90351,-1.089668 -0.62866,9.178357 2.59843,13.369389 10.89668,19.614028 4.65204,3.269004 -0.92203,11.776796 -6.37037,9.136448 -6.87329,-3.520466 -14.79434,-7.418128 -18.81773,-14.542881 -1.42495,0.922027 0,3.185184 -1.04776,3.269004 -1.92787,0.712478 -3.60429,-1.173488 -4.610135,-2.598439 a 4.1910315,4.1910315 0 0 0 -3.771924,-0.838206 16.764126,16.764126 0 0 1 -8.843079,-1.634501 22.086736,22.086736 0 0 1 -4.191031,-3.143275 22.380108,22.380108 0 0 1 -4.819684,-8.382063 c 0,-1.760234 -1.131581,-3.478555 -0.628657,-5.113059 A 21.709543,21.709543 0 0 1 35.16319,3.6881525 l 0.880115,-0.838206 2.766081,-0.880119 a 11.525337,11.525337 0 0 0 2.011695,19.6559365 13.662763,13.662763 0 0 0 9.220269,1.634504 c 1.424951,-0.922026 3.269005,-1.215401 4.191032,-2.263157 0.922023,-1.047759 0.670565,-3.855749 2.766083,-4.945417 a 6.1608164,6.1608164 0 0 1 4.19103,0 16.386933,16.386933 0 0 0 -0.75439,8.088689 5.2806997,5.2806997 0 0 0 0.37721,1.718325 21.667633,21.667633 0 0 0 20.61987,16.261202 c 3.89766,0.377203 4.52632,-5.238791 1.55069,-6.663742 -7.12476,-2.724168 -12.95029,-7.753406 -13.20176,-14.081866 -0.4191,-0.586744 -0.54483,-1.969783 -2.34697,-1.6345 -0.37721,-2.38889 2.22124,-3.352825 2.68226,-5.36452 1.6345,-1.760234 2.30507,-3.143276 0.96394,-4.191032 l -0.25149,0.796294 A 61.147148,61.147148 0 0 0 52.38832,4.1910765 C 56.579355,4.450405e-5 66.805465,3.8557935 71.750885,7.0409775 a 15.842099,15.842099 0 0 0 6.45419,2.263153 15.925919,15.925919 0 0 1 3.93957,1.2154025 28.666655,28.666655 0 0 1 3.60429,2.095515 c -0.92203,4.652043 -11.19006,6.286548 -6.62183,11.776797 1.67641,-5.2807 8.38206,-6.286547 12.57309,-9.932743 l -0.33528,-0.419103 2.01169,1.927875 a 2.8918117,2.8918117 0 0 1 0,0.544832 c -4.61013,1.089668 -11.60916,3.352825 -9.42982,7.166666"
       id="path1627" />
    <path
       style="opacity:0.45;fill:#ffffff;fill-opacity:1;stroke-width:0.264583"
       class="cls-5"
       d="m 81.222625,38.725185 c -6.37037,3.771928 -15.71637,-2.807989 -18.39863,-8.382063 a 23.511687,23.511687 0 0 1 -1.71832,-5.49025 c 0.4191,-3.017542 0.67056,-5.615982 1.34113,-8.633525 0.20956,-1.760233 -1.08967,-2.47271 -2.55653,-3.017542 a 18.398628,18.398628 0 0 0 -5.113061,-0.670565 10.896682,10.896682 0 0 1 6.454191,0 13.578942,13.578942 0 0 1 3.22709,1.257309 c 0.71248,0.670565 0,2.179337 -1.00584,3.897658 0,0.251481 0,0.209561 0.4191,-0.209562 1.67641,-2.59844 1.67641,-4.191032 0.25148,-4.945417 -4.8616,-2.095516 -11.148143,-1.844054 -12.573093,1.676412 -1.424951,3.520467 -1.173489,9.052628 -7.501945,7.460036 l 0.796294,0.293363 a 12.279722,12.279722 0 0 1 -2.388886,-0.796294 c 2.221245,0.251442 4.945418,0.670565 5.867444,-0.377203 3.352826,-3.394734 1.047756,-8.633525 6.747556,-10.393758 a 29.33722,29.33722 0 0 0 -9.974652,4.442493 C 40.904922,17.476629 39.10278,10.226142 39.899074,7.7953435 a 12.573095,12.573095 0 0 1 9.220269,-7.376211 c 1.718325,0 3.436646,-0.251482 5.19688,-0.251482 a 47.191015,47.191015 0 0 1 5.490252,0.293362 23.218314,23.218314 0 0 0 4.19103,1.04776 c 2.17933,0.712473 3.73002,1.131576 5.15497,1.466859 h 2.17934 c 1.46685,0.502924 2.8499,1.005847 4.19103,1.634504 h -1.67642 a 14.249507,14.249507 0 0 1 -6.20272,-0.963939 c -9.76511,-4.568223 -25.146191,-4.568223 -26.277768,5.825532 a 2.7241705,2.7241705 0 0 0 1.299218,3.1013635 C 38.138841,3.5204675 51.508233,-0.7124765 60.477035,1.7183215 a 28.415193,28.415193 0 0 1 5.40643,1.885967 c -9.47173,-3.478559 -21.374256,-3.227097 -23.21831,5.406428 a 28.457104,28.457104 0 0 1 23.09258,2.8918105 c 1.17349,0.838206 1.67641,1.969787 0.29336,3.93957 -7.41812,9.471731 2.0117,20.955157 15.0039,23.385956"
       id="path1633" />
    <path
       style="opacity:0.45;fill:#ffffff;stroke-width:0.264583"
       class="cls-5"
       d="m 99.411705,33.779768 c -1.84406,-5.071147 -8.17252,-8.382063 -8.96881,-13.159839 0.25148,-0.796294 2.76608,-1.760234 4.8616,-2.053604 0.67056,0.754386 1.29921,1.55068 1.92787,2.346978 l 0.50292,0.670565 c 0.58675,0.754386 1.17349,1.592592 1.71833,2.388886 0.754385,3.604287 2.849905,7.376215 0,9.807014"
       id="path1639" />
    <path
       style="opacity:0.37;fill:#6e6d60;stroke-width:0.264583"
       class="cls-106"
       d="M 108.54816,54.022452 A 54.48341,54.48341 0 0 1 97.232365,87.17351 c -0.96394,1.25731 -2.01169,2.4308 -3.05945,3.60429 a 44.844037,44.844037 0 0 1 -3.47856,3.43664 54.48341,54.48341 0 0 1 -20.3265,11.60916 l -3.56238,0.96394 h -0.50292 l -2.808,0.54483 c -1.13157,0.20956 -2.26315,0.33529 -3.43664,0.46101 a 99.034073,99.034073 0 0 0 34.03117,-49.705629 97.567214,97.567214 0 0 0 3.31092,-37.090628 4.1910315,4.1910315 0 0 1 0.33528,0.461012 c 0.58675,0.754386 1.17349,1.550684 1.71833,2.38889 a 56.201731,56.201731 0 0 1 5.657895,11.064323 53.309921,53.309921 0 0 1 3.269,14.87816 v 4.191032"
       id="path1645" />
    <path
       style="opacity:0.84;fill:#ffffff;stroke-width:0.264583"
       class="cls-5"
       d="m 5.9516992,39.772945 a 3.7719283,3.7719283 0 0 1 -2.137424,0.880114 l -2.221249,0.838207 c 1.424951,-0.502924 2.891814,-1.047756 4.191031,-1.634501"
       id="path1651" />
    <path
       style="opacity:0.84;fill:#ffffff;stroke-width:0.264583"
       class="cls-5"
       d="m 5.5325952,30.720317 a 13.159839,13.159839 0 0 1 1.676413,-0.335283 l -1.676413,0.335283"
       id="path1663" />
    <path
       style="opacity:0.84;fill:#ffffff;stroke-width:0.264583"
       class="cls-5"
       d="M 10.05891,38.180353 5.8678782,39.772945 A 3.9395696,3.9395696 0 0 1 10.05891,38.180353"
       id="path1669" />
    <path
       style="opacity:0.84;fill:#ffffff;stroke-width:0.264583"
       class="cls-5"
       d="m 9.7236272,32.606279 a 4.1910315,4.1910315 0 0 0 -1.802142,0 6.2865473,6.2865473 0 0 0 -4.191031,1.299222 c 0.209561,-0.586745 0.461011,-1.173489 0.712473,-1.760234 a 13.872314,13.872314 0 0 1 4.191032,0.251482 l 0.796298,0.209562"
       id="path1675" />
    <path
       style="opacity:0.84;fill:#ffffff;stroke-width:0.264583"
       class="cls-5"
       d="M 10.478013,44.886003 A 9.6812829,9.6812829 0 0 1 9.5140772,44.131618 1.8021435,1.8021435 0 0 1 10.478013,44.886003"
       id="path1681" />
    <path
       style="opacity:0.84;fill:#ffffff;stroke-width:0.264583"
       class="cls-5"
       d="M 10.519925,44.886003"
       id="path1687" />
    <path
       style="opacity:0.84;fill:#ffffff;stroke-width:0.264583"
       class="cls-5"
       d="m 10.05891,38.180353 0.712477,-0.293362 a 4.1910315,4.1910315 0 0 0 0,0.419103 H 9.8912682"
       id="path1693" />
    <path
       style="opacity:0.84;fill:#ffffff;stroke-width:0.264583"
       class="cls-5"
       d="m 12.405887,33.528306 h 0.251482 A 21.164709,21.164709 0 0 0 9.8912882,32.48055 8.0886909,8.0886909 0 0 1 12.405907,33.402577"
       id="path1699" />
    <path
       style="opacity:0.84;fill:#ffffff;stroke-width:0.264583"
       class="cls-5"
       d="m 18.818167,44.886003 a 26.822601,26.822601 0 0 1 -4.191031,1.927875 c -1.383043,0.502923 -2.891814,0.880114 -3.059455,0.586744 -0.167641,-0.293362 -0.586745,-1.466863 -0.963935,-2.179336 0.461011,0.796294 0.628652,1.760233 1.718321,2.137424 a 11.148144,11.148144 0 0 0 3.017542,-0.838206 23.553597,23.553597 0 0 0 3.436646,-1.634501"
       id="path1705" />
    <path
       style="opacity:0.84;fill:#ffffff;stroke-width:0.264583"
       class="cls-5"
       d="m 17.099843,31.977626 a 20.955157,20.955157 0 0 0 -4.191032,-1.927874 16.135471,16.135471 0 0 0 -7.0828408,0 1.8021435,1.8021435 0 0 1 0,-0.293363 13.24366,13.24366 0 0 1 3.646195,0 h 1.4668628 a 10.812861,10.812861 0 0 1 4.191032,1.299222 11.98635,11.98635 0 0 0 -2.179337,-0.670565 18.60818,18.60818 0 0 1 3.604287,1.508771 l 0.502924,0.377203"
       id="path1711" />
    <path
       style="opacity:0.84;fill:#ffffff;stroke-width:0.264583"
       class="cls-5"
       d="m 14.16612,34.617974 a 13.117929,13.117929 0 0 0 -1.508771,-0.922027 c 2.556531,1.215401 4.191032,2.933722 4.191032,4.735868 A 4.9873275,4.9873275 0 0 0 16.261636,36.755402 5.2387894,5.2387894 0 0 0 14.0823,34.534153"
       id="path1717" />
    <path
       style="opacity:0.84;fill:#ffffff;fill-opacity:1;stroke-width:0.264583"
       class="cls-5"
       d="m 19.782103,42.287564 a 11.692978,11.692978 0 0 1 -2.68226,2.179336 10.184207,10.184207 0 0 1 -2.682261,1.25731 5.0292378,5.0292378 0 0 1 -3.897657,-0.922027 4.9454172,4.9454172 0 0 0 -5.4064328,-2.137429 l -3.897657,0.502924 0.377203,-1.6345 a 60.392762,60.392762 0 0 1 8.382063,-2.221249 33.528252,33.528252 0 0 1 5.4483408,-0.209561 c -0.628653,-1.550684 -0.712473,-3.771929 -4.526314,-3.93957 a 11.231965,11.231965 0 0 1 2.807993,1.802142 c -0.963939,0.251481 -1.885966,0.586744 -2.849901,0.922027 -0.586745,-1.55068 -1.3411308,-3.604288 -4.1910318,-3.185184 -2.137428,0 -2.556531,1.42495 -3.646199,2.514618 v -0.628652 a 9.1364488,9.1364488 0 0 1 5.07115,-3.981482 9.5136416,9.5136416 0 0 1 3.1851838,0.628657 20.619875,20.619875 0 0 1 2.891809,1.383038 7.5019465,7.5019465 0 0 1 2.179337,2.305069 11.148144,11.148144 0 0 1 0,2.89181 2.3469776,2.3469776 0 0 0 0.586744,-1.215397 v 0.461011 a 1.1734888,1.1734888 0 0 1 -0.670565,0.880119 2.4727086,2.4727086 0 0 1 -1.969783,1.718321 6.0350854,6.0350854 0 0 1 -3.939569,-0.251482 c 2.137424,0.922027 3.101363,2.766081 5.65789,2.430798 A 7.4181258,7.4181258 0 0 0 17.85424,43.3772 l -0.586744,0.335282 c -4.484402,1.173489 -6.244635,-1.927874 -9.0107158,-2.76608 -1.089668,0 -2.137428,0.377202 -3.227096,0.419103 2.975634,-1.34113 8.3820628,0 10.8128608,-1.215401 a 3.855749,3.855749 0 0 1 -1.047756,0.251441 16.973677,16.973677 0 0 0 -11.9444418,1.676413 c 5.406433,-1.466859 7.7114978,1.634504 10.4775788,3.436646 a 5.8255338,5.8255338 0 0 0 3.771929,-1.089668 c 0.922026,-0.712474 1.885966,-1.424951 2.640351,-2.137424"
       id="path1723" />
    <path
       style="opacity:0.84;fill:#ffffff;stroke-width:0.264583"
       class="cls-5"
       d="m 18.10569,43.377232 a 14.920072,14.920072 0 0 0 1.466863,-1.173489 9.4717313,9.4717313 0 0 0 1.55068,-1.927874 5.1968791,5.1968791 0 0 1 -3.017543,3.101363"
       id="path1729" />
    <path
       style="opacity:0.84;fill:#ffffff;stroke-width:0.264583"
       class="cls-5"
       d="m 19.865923,34.743707 a 14.542879,14.542879 0 0 0 -3.688107,-2.305069 21.499991,21.499991 0 0 0 -10.9385908,-1.25731 14.66861,14.66861 0 0 1 5.4483408,-0.670565 14.500969,14.500969 0 0 0 -3.5623788,0 16.764126,16.764126 0 0 1 7.3762158,0.544836 13.24366,13.24366 0 0 1 4.191031,2.472707 h -0.335282 a 12.573095,12.573095 0 0 0 -4.945417,-2.263157 11.231965,11.231965 0 0 0 -2.68226,-0.461012 23.763148,23.763148 0 0 1 7.627677,2.724169 8.8849869,8.8849869 0 0 1 1.550684,1.508771"
       id="path1735" />
    <path
       style="opacity:0.84;fill:#ffffff;stroke-width:0.264583"
       class="cls-5"
       d="m 22.003351,12.908431 -2.179336,-0.670565 h 0.251482 a 6.8732917,6.8732917 0 0 1 1.927874,0.880118"
       id="path1741" />
    <path
       style="opacity:0.84;fill:#ffffff;stroke-width:0.264583"
       class="cls-5"
       d="m 23.38639,23.553651 a 11.273875,11.273875 0 0 0 -2.346978,-0.586745 4.5263141,4.5263141 0 0 1 2.346978,0.586745"
       id="path1747" />
    <path
       style="opacity:0.84;fill:#ffffff;stroke-width:0.264583"
       class="cls-5"
       d="m 21.668069,39.521483 1.257309,-1.173489 c -1.550683,1.718321 -1.927874,2.59844 -2.724172,3.478554 l -0.419103,0.377203 a 9.7231932,9.7231932 0 0 0 1.802145,-2.68226"
       id="path1753" />
    <path
       style="opacity:0.84;fill:#ffffff;stroke-width:0.264583"
       class="cls-5"
       d="m 18.650526,33.402577 1.299218,0.754385 -0.209562,-0.209561 c -0.922027,-0.628653 -1.760233,-1.299218 -2.640351,-1.969783 l 0.880118,0.544832 -1.215401,-0.754386 a 15.884009,15.884009 0 0 0 -1.424951,-0.838206 12.573095,12.573095 0 0 1 4.191032,2.514619 39.144234,39.144234 0 0 0 3.81384,2.221249 l -0.251481,0.209561 a 14.794341,14.794341 0 0 1 -2.682261,-1.466859 c 0.754386,0.419104 1.424951,0.880115 2.095516,1.34113 a 1.6764126,1.6764126 0 0 0 1.005848,0 l -0.670565,0.335283 0.922027,0.712473 -1.04776,0.586745 C 21.961407,36.671585 21.248934,35.959108 20.494548,35.330455 A 23.092583,23.092583 0 0 0 18.776223,33.52831"
       id="path1759" />
    <path
       style="opacity:0.84;fill:#ffffff;fill-opacity:1;stroke-width:0.264583"
       class="cls-5"
       d="m 21.207053,39.856765 a 2.5565292,2.5565292 0 0 1 -0.293362,0.419104 4.9035069,4.9035069 0 0 0 0.377203,-2.011696 6.244637,6.244637 0 0 0 -1.424951,-3.520466 l 0.502924,0.461011 c 0.670565,0.754386 1.34113,1.508772 2.095516,2.263157 a 12.866467,12.866467 0 0 0 1.299222,-0.712473 l 1.550679,-0.838206 0.544836,-0.419103 a 13.788494,13.788494 0 0 0 2.472707,-2.472711 6.8732917,6.8732917 0 0 1 -1.424951,2.095516 h 0.377203 a 10.68713,10.68713 0 0 1 -2.430798,2.053607 l -1.802146,1.424951 a 1.0477579,1.0477579 0 0 1 0,-0.293362 6.7056505,6.7056505 0 0 0 -1.802141,1.802145"
       id="path1765" />
    <path
       style="opacity:0.84;fill:#ffffff;fill-opacity:1;stroke-width:0.264583"
       class="cls-5"
       d="m 23.38639,23.553651 a 11.231965,11.231965 0 0 1 2.346977,1.885966 5.8674442,5.8674442 0 0 1 0,7.753406 l -0.670565,0.838207 0.377203,-0.502924 a 16.764126,16.764126 0 0 0 0.922027,-2.095516 c 1.424951,-3.310913 0,-7.376216 -5.741715,-8.382063 h 0.293362 -1.424951 v 1.089668 a 2.5565292,2.5565292 0 0 1 -0.209561,-0.502924 c -0.628653,0.628657 1.089668,2.137428 1.13158,3.227097 v -0.335283 c -0.293362,-0.796298 -0.670565,-1.634504 -1.005847,-2.38889 0.419103,0.796298 1.089668,1.592592 1.005847,2.38889 a 10.477579,10.477579 0 0 1 0.293363,1.089668 2.8918117,2.8918117 0 0 1 -0.419104,2.179337 c -2.598439,-0.922027 -5.951264,-2.095516 -5.951264,-3.017543 -0.502924,-1.718325 -3.855749,-2.179336 -5.0711458,-3.352825 -0.838207,1.215397 -1.634505,2.430798 -2.346978,3.688107 a 27.451256,27.451256 0 0 1 13.0760178,5.2807 c 1.466859,1.25731 2.430799,0.963935 3.185184,0.335283 2.305066,-2.095516 3.185184,-4.526314 0.922027,-6.62183 a 2.1793364,2.1793364 0 0 1 1.718321,1.802141 7.0828433,7.0828433 0 0 1 -1.257309,5.657895 11.106234,11.106234 0 0 1 -2.011696,2.221245 h 0.251442 l 0.419104,-0.251482 a 9.3879106,9.3879106 0 0 0 3.101363,-4.191032 5.9931751,5.9931751 0 0 0 -3.646196,-7.543856 m 0,12.07017"
       id="path1771" />
    <path
       style="opacity:0.84;fill:#ffffff;fill-opacity:1;stroke-width:0.264583"
       class="cls-5"
       d="m 31.34935,30.301213 c -1.005848,1.927875 -0.963936,3.520467 -2.807989,5.238788 a 7.5438568,7.5438568 0 0 0 -1.760234,3.478558 c -0.502923,1.885962 -2.598439,3.562375 -4.191031,5.532162 a 16.764126,16.764126 0 0 1 -6.202727,3.101363 16.386933,16.386933 0 0 0 7.96296,-6.035085 9.7231932,9.7231932 0 0 0 1.215397,-2.59844 c 6.41228,-6.70565 9.30409,-18.021436 -7.460036,-19.278745 a 11.609157,11.609157 0 0 0 -6.412276,1.131576 l 0.838206,-1.047755 a 23.176404,23.176404 0 0 1 12.573095,0.963935 17.476601,17.476601 0 0 1 4.484401,3.604287 8.0467806,8.0467806 0 0 1 1.844054,5.951265"
       id="path1777" />
  </g>
</svg>
