<?xml version="1.0" encoding="UTF-8" standalone="no"?>
<svg
   xmlns:dc="http://purl.org/dc/elements/1.1/"
   xmlns:cc="http://creativecommons.org/ns#"
   xmlns:rdf="http://www.w3.org/1999/02/22-rdf-syntax-ns#"
   xmlns:svg="http://www.w3.org/2000/svg"
   xmlns="http://www.w3.org/2000/svg"
   xmlns:sodipodi="http://sodipodi.sourceforge.net/DTD/sodipodi-0.dtd"
   xmlns:inkscape="http://www.inkscape.org/namespaces/inkscape"
   sodipodi:docname="mars.svg"
   inkscape:version="1.0 (4035a4fb49, 2020-05-01)"
   id="svg3085"
   version="1.1"
   viewBox="0 0 14.428 14.468"
   height="14.468mm"
   width="14.428mm">
  <defs
     id="defs3079" />
  <sodipodi:namedview
     inkscape:window-maximized="1"
     inkscape:window-y="-9"
     inkscape:window-x="-9"
     inkscape:window-height="1001"
     inkscape:window-width="1920"
     showgrid="false"
     inkscape:document-rotation="0"
     inkscape:current-layer="layer1"
     inkscape:document-units="mm"
     inkscape:cy="560"
     inkscape:cx="400"
     inkscape:zoom="0.33830645"
     inkscape:pageshadow="2"
     inkscape:pageopacity="0.0"
     borderopacity="1.0"
     bordercolor="#666666"
     pagecolor="#ffffff"
     id="base" />
  <metadata
     id="metadata3082">
    <rdf:RDF>
      <cc:Work
         rdf:about="">
        <dc:format>image/svg+xml</dc:format>
        <dc:type
           rdf:resource="http://purl.org/dc/dcmitype/StillImage" />
        <dc:title></dc:title>
      </cc:Work>
    </rdf:RDF>
  </metadata>
  <g
     id="layer1"
     inkscape:groupmode="layer"
     inkscape:label="Layer 1">
	 <style id="style2">.cls-1{fill:none}.cls-5{fill:#fff}.cls-12{fill:#575756}.cls-14{fill:#ca9e67}.cls-49{fill:#827965}.cls-50{fill:#b29072}.cls-52{fill:#e8c091}.cls-53{fill:#facc9e}.cls-56{fill:#9e8066}.cls-64{fill:#7a7b52}.cls-74{fill:#706355}.cls-75{fill:#847364}.cls-76{fill:#aa9484}.cls-77{fill:#443e3b}.cls-78{fill:#c9a47f}.cls-79{fill:#9b7e64}.cls-80{fill:#7c6452}.cls-81{fill:#d6ae8a}.cls-82{fill:#514d46}.cls-83{fill:#736152}.cls-84{fill:#4c453f}.cls-85{fill:#605448}.cls-105{fill:#959384}.cls-106{fill:#6e6d60}.cls-109{fill:#b2b2b2}.cls-127{fill:#b64435}.cls-148{fill:#41692a}.cls-224{fill:#ab5c41}.cls-226{fill:#502a1f}.cls-241{fill:#715c47}.cls-248{fill:#c2d2ee}.cls-250{fill:#bf9b7b}.cls-252{fill:#6e604f}.cls-262{fill:#ffe2b4}.cls-270{fill:#c7c6c6}.cls-360{fill:#a5b3b8}.cls-361{fill:#939b9e}.cls-366{fill:#e08f73}.cls-368{fill:#fde4d8}.cls-373{fill:#bf9a7c}.cls-380{fill:#a4846b}.cls-383{fill:#887467}.cls-384{fill:#967a60}.cls-394{fill:#5cb4e5}.cls-398{fill:#366584}.cls-424{fill:#7a5a52}</style>
    <path
       id="path1073"
       d="m 14.406584,7.2592355 a 7.33425,7.33425 0 0 1 -0.19907,1.66592 7.2189975,7.2189975 0 0 1 -4.6624897,5.1444605 l -0.34576,0.11525 a 7.0723125,7.0723125 0 0 1 -2.01168,0.28289 7.1351775,7.1351775 0 0 1 -5.23875,-2.25266 l -0.18859,-0.20955 A 7.1561325,7.1561325 0 0 1 0.2619543,9.1870955 5.82549,5.82549 0 0 1 0.0733643,8.3174655 7.0932675,7.0932675 0 0 1 6.430012e-5,7.2697155 7.187565,7.187565 0 0 1 4.2539243,0.68984552 a 5.8359675,5.8359675 0 0 1 0.80677,-0.31433 l 0.52387,-0.1362 c 0.22003,-0.0524 0.46101,-0.0943 0.69152,-0.12573 a 6.852285,6.852285 0 0 1 0.9325,-0.0629 6.978015,6.978015 0 0 1 1.63449,0.1886 7.2189975,7.2189975 0 0 1 5.5844997,7.03039998"
       style="fill:#ad734d;stroke-width:0.264583" />
    <path
       id="path1783"
       d="m 2.5460543,10.423446 a 2.76606,2.76606 0 0 1 -0.59722,1.78117 7.103745,7.103745 0 0 1 -1.89643,-3.8871505 1.362075,1.362075 0 0 1 0.77534,-0.24098 c 0.95345,0 1.71831,1.04775 1.71831,2.3469605"
       class="cls-224"
       style="fill:#ab5c41;stroke-width:0.264583" />
    <path
       id="path1785"
       d="m 5.1863843,7.2382855 a 1.487805,1.487805 0 1 1 -1.45637,-1.19444 1.34112,1.34112 0 0 1 1.45637,1.19444"
       class="cls-224"
       style="fill:#ab5c41;stroke-width:0.264583" />
    <path
       id="path1787"
       d="m 9.2411743,7.9088455 c 0,1.14204 -0.6496,2.0955005 -1.45637,2.0955005 -0.80677,0 -1.46685,-0.9220205 -1.46685,-2.0955005 0,-1.17348 0.66008,-2.0955 1.46685,-2.0955 0.80677,0 1.45637,0.93249 1.45637,2.0955"
       class="cls-224"
       style="fill:#ab5c41;stroke-width:0.264583" />
    <path
       id="path1789"
       d="m 12.332034,12.330346 a 7.25043,7.25043 0 0 1 -2.7870097,1.7707 h -0.22003 c -1.71831,0 -3.14325,-0.49244 -3.31089,-1.11062 a 0.5133975,0.5133975 0 0 1 0,-0.12573 c 0,-0.42957 0.56579,-0.80676 1.4459,-1.04775 a 7.7428725,7.7428725 0 0 1 1.87547,-0.22002 5.3540025,5.3540025 0 0 1 3.0070397,0.71247"
       class="cls-224"
       style="fill:#ab5c41;stroke-width:0.264583" />
    <path
       id="path1791"
       d="m 7.9210143,9.9205255 c 0,1.6973505 -0.99537,3.0803805 -2.23171,3.0803805 -1.23635,0 -2.23171,-1.38303 -2.23171,-3.0803805 0,-1.69736 1.04775,-3.09087 2.23171,-3.09087 1.18396,0 2.23171,1.38303 2.23171,3.09087"
       class="cls-224"
       style="fill:#ab5c41;stroke-width:0.264583" />
    <path
       id="path1793"
       d="m 14.197034,5.5304555 -0.4191,1.55067 -0.25146,-1.04775 -1.19444,-0.44006 -1.41446,-1.04775 -0.67056,-1.23634 0.6077,-0.67056 0.5553,-0.59722 h -1.12109 l -1.1210897,-0.91154 -1.04775,0.31432 -0.91154,0.34576 -0.85916,-0.55531 -1.39351,0.13621 a 3.98145,3.98145 0 0 1 -0.60769,-0.20955 l 0.60769,-0.28288998 -0.70199,-0.24098 A 7.20852,7.20852 0 0 1 14.217984,5.4885455"
       class="cls-226"
       style="opacity:0.33;fill:#502a1f;stroke-width:0.264583" />
    <path
       id="path1799"
       d="m 14.207514,8.9251655 a 7.1142225,7.1142225 0 0 1 -1.87548,3.3842305 7.25043,7.25043 0 0 1 -7.4075897,1.80213 l 0.26194,-0.9325 -0.37719,-2.21075 -2.02216,0.15716 -1.04775,0.88011 a 7.1561325,7.1561325 0 0 1 -1.47733,-2.8184405 l 0.89059,0.12573 0.79629,-1.23635 0.15716,-1.12109 0.702,-1.32017 2.24218,1.60306 2.35744,0.67056 0.76486,0.52388 -0.96393,1.7078305 1.55067,0.92202 0.67056,1.15252 1.7497397,-1.51923 1.37255,-0.7124705 1.11062,-1.04775 z"
       class="cls-226"
       style="opacity:0.36;fill:#502a1f;stroke-width:0.264583" />
    <path
       id="polygon1805"
       d="m 7.1875843,10.632996 0.59722,-0.6600805 v -0.59722 l 0.36671,-0.11525 -0.9325,-0.55531 h 0.9325 l -0.2305,-0.42958 h 0.72294 v -0.73342 l -0.58674,-0.71247 0.46101,0.25146 1.06871,0.46101 -0.70199,1.03727 -0.24099,0.64961 0.52388,0.33528 -0.61817,0.35623 0.92202,1.1420505 -1.07919,-0.92202 -1.20491,0.92202 -1.36207,0.15716 z"
       class="cls-226"
       style="opacity:0.65;fill:#502a1f;stroke-width:0.264583" />
    <path
       id="polygon1811"
       d="m 9.6497943,12.843746 -0.0629,0.39815 1.8126097,-1.03727 1.10013,-0.98489 -1.45637,0.73343 -1.4563697,0.57626 -2.78702,1.71831 z"
       class="cls-226"
       style="opacity:0.65;fill:#502a1f;stroke-width:0.264583" />
    <path
       id="polygon1817"
       d="m 7.7114643,0.92035552 1.45637,0.25145998 1.2258697,0.14668 1.0687,0.39815 0.86963,0.73342 v 1.11062 l 0.5134,0.94297 0.76486,1.13157 -0.52388,-0.73342 -1.28873,-0.92202 0.36671,-0.67056 -0.20955,-1.10014 -1.07918,-0.61817 H 9.2411743 Z"
       class="cls-226"
       style="opacity:0.65;fill:#502a1f;stroke-width:0.264583" />
    <path
       id="polygon1823"
       d="m 2.7660843,3.5606855 -0.74391,0.33528 0.39815,0.60769 -0.63913,-0.36671 -0.48196,0.36671 0.56578,-0.94297 0.68104,-0.28289 1.68688,0.12573 z"
       class="cls-226"
       style="opacity:0.48;fill:#502a1f;stroke-width:0.264583" />
    <path
       id="path1829"
       d="m 7.0513743,1.2242055 -0.12573,0.28289 -0.35623,-0.33528 h -0.57626 l -0.72295,0.0943 0.2305,-0.46100998 -0.52387,0.45052998 0.16764,-0.26193998 0.27241,-0.33528 -0.3248,-0.28289 0.52388,-0.13621 0.61817,0.14669 -0.49244,0.17811 h 0.56578 l -0.3248,0.16764 -0.36671,0.40862998 h 0.6496 l -0.28289,-0.20954998 0.19907,-0.14669 0.75438,0.14669 h -0.70199 z"
       class="cls-5"
       style="opacity:0.35;fill:#ffffff;stroke-width:0.264583" />
    <path
       id="path1835"
       d="m 10.047944,0.85748552 -0.4924397,-0.11525 -0.64961,0.17812 -0.27241,-0.35624 -0.44006,0.0629 -0.35623,0.0629 0.1362,0.13621 0.45054,-0.13621 0.39814,0.47148998 -0.5134,-0.24097998 -0.84867,0.24097998 0.0524,-0.47148998 -0.88011,-0.19907 0.22003,-0.13621 -0.59722,-0.25146 a 6.852285,6.852285 0 0 1 0.9325,-0.0629 6.978015,6.978015 0 0 1 1.63449,0.18859 l -0.34576,0.22003 h 0.76486 z"
       class="cls-5"
       style="opacity:0.35;fill:#ffffff;stroke-width:0.264583" />
    <path
       id="path1841"
       d="m 6.1712643,4.2836355 c 0.0524,-0.0524 0.11526,-0.16764 0.0524,-0.19908 a 1.6659225,1.6659225 0 0 0 -1.11061,-0.24098 c 0.17811,0.16764 0.48196,0.40862 0.4191,0.52388 a 2.17932,2.17932 0 0 0 0.52387,2.91274 3.709035,3.709035 0 0 0 1.42494,0.48197 2.3364825,2.3364825 0 0 1 -2.47269,-2.44126 1.7916525,1.7916525 0 0 1 0.20955,-0.54483 c -0.85915,0 -0.88011,0.97441 -0.69151,1.59258 a 3.5937825,3.5937825 0 0 0 0.51339,1.15252 c 0.10478,0.13621 0.31433,0.25146 0.4191,0.37719 a 2.912745,2.912745 0 0 1 -1.76022,-2.81844 3.9709725,3.9709725 0 0 1 0.24099,-0.78582 1.2258675,1.2258675 0 0 1 0.28289,-0.42957 2.0955,2.0955 0 0 1 0.86963,-0.47149 3.2794575,3.2794575 0 0 1 1.23635,0 1.4773275,1.4773275 0 0 1 0.6496,0.24098 2.2317075,2.2317075 0 0 1 0.27242,0.33528 c -1.18396,0.37719 -2.32601,1.64497 -1.26778,2.95466 a 1.194435,1.194435 0 0 0 0.81724,0.45053 20.892135,20.892135 0 0 1 3.14325,1.3516 c 0.4400597,0.16764 0.1990797,-0.8382 0.4819697,-1.19444 0.0629,0 0.16764,0.16764 0.24098,0.19907 a 1.9592925,1.9592925 0 0 1 0.37719,0.40863 2.72415,2.72415 0 0 1 0.39815,1.45637 4.191,4.191 0 0 1 0.44005,0.4191005 q 0.20955,0.22003 0.37719,0.44005 c 0.0943,0.0943 0.23051,0 0.36671,0 a 2.0221575,2.0221575 0 0 0 0.36672,-0.30384 4.191,4.191 0 0 0 0.46101,-1.6449705 1.92786,1.92786 0 0 1 -0.71247,2.3574405 1.8964275,1.8964275 0 0 1 -0.62865,0.28289 2.0221575,2.0221575 0 0 0 -0.47149,-0.57626 1.76022,1.76022 0 0 0 -0.55531,-0.32481 c -0.15716,-0.20955 -0.0733,-0.5238705 -0.31432,-0.7334205 a 2.8813125,2.8813125 0 0 1 -1.9697697,0.7229505 0.8905875,0.8905875 0 0 1 -0.5134,-0.12573 6.2865,6.2865 0 0 0 -0.47149,-0.5343605 c -1.6764,-1.13157 -3.62521,-1.76022 -4.72535,-3.489 a 3.499485,3.499485 0 0 0 -0.85916,0.1362 4.253865,4.253865 0 0 0 -0.75438,0.39815 2.17932,2.17932 0 0 0 -0.61817,0.82772 1.320165,1.320165 0 0 0 -0.0943,0.96393 2.0955,2.0955 0 0 0 0.40863,1.04775 3.56235,3.56235 0 0 0 1.20491,0.8696305 2.619375,2.619375 0 0 0 1.10014,0.0943 1.3725525,1.3725525 0 0 0 1.04775,-0.9010605 c 0,-0.20955 0,-0.38767 0.22002,-0.37719 a 0.5762625,0.5762625 0 0 0 -0.22002,0.33528 1.63449,1.63449 0 0 1 -2.31553,0.8905805 3.792855,3.792855 0 0 1 -0.96393,-0.6705605 3.14325,3.14325 0 0 1 -0.69152,-1.33064 3.9290625,3.9290625 0 0 0 1.39351,2.1478905 2.6717625,2.6717625 0 0 1 -1.40398,-3.9081105 6.2865,6.2865 0 0 1 0.8382,-0.71247 4.0757475,4.0757475 0 0 1 1.55067,-0.48196 1.63449,1.63449 0 0 1 -0.10478,-0.55531 1.7916525,1.7916525 0 0 1 0.0733,-0.6077 2.326005,2.326005 0 0 1 1.04775,-1.2573 3.14325,3.14325 0 0 1 0.68104,-0.28289 7.83717,7.83717 0 0 1 0.92202,-0.0733 3.9709725,3.9709725 0 0 1 1.27826,0.26194 7.9733775,7.9733775 0 0 1 1.37255,0.79629 2.284095,2.284095 0 0 1 0.50292,0.45053 4.253865,4.253865 0 0 1 -0.67056,-0.46101 c -1.42494,-1.20491 -3.61474,-1.23635 -4.63106,0 a 3.331845,3.331845 0 0 1 4.3796,-0.0838 5.5006875,5.5006875 0 0 1 0.5134,0.40862 c 0.15716,0.14669 0.20955,0.25146 0.14668,0.33528 -1.52971,-0.12573 -3.41566,0.73343 -2.64033,2.39935 l 0.31433,0.38767 c 0.81724,0.59721 1.78117,0.47148 2.6508,0.80676 0.44006,0.16764 0.76486,0.702 1.13157,0.68104 0.5343597,0 0.1676397,-0.78581 0.2828997,-1.15252 0,-0.0629 0.0524,-0.26194 0.22002,-0.0734 0.16764,0.1886 0.27242,0.33528 0.38767,0.44006 a 2.5041225,2.5041225 0 0 1 0.66008,1.41446 0.6600825,0.6600825 0 0 0 0.31433,0.54483 2.2945725,2.2945725 0 0 0 0.88011,0.4610105 1.7287875,1.7287875 0 0 0 0.27241,-0.3352805 1.864995,1.864995 0 0 0 0.20955,-0.40862 c 0.12573,-0.22003 0,-0.44006 0,-0.70199 a 1.29921,1.29921 0 0 0 -0.39814,-0.88011 2.4622125,2.4622125 0 0 0 -0.75438,-0.56579 l -0.34576,-0.20955 a 4.2643425,4.2643425 0 0 0 -1.04775,-0.94297 c -0.18859,-0.12573 -0.39814,-0.26194 -0.7229497,-0.5134 -0.9744,-0.86963 -2.54603,-1.21539 -3.38423,-0.50292 a 0.9324975,0.9324975 0 0 0 -0.42958,0.78581 c 0,0.24098 0,0.45053 0.29337,0.59722 0.54483,0.29337 1.04775,0 1.56115,-0.0943 -0.20955,0.69152 -1.37255,0.55531 -1.82308,0.0943 -0.45054,-0.46101 -0.0524,-1.19444 0.39814,-1.54019 a 2.870835,2.870835 0 0 1 1.88595,-0.20955 5.7940575,5.7940575 0 0 1 1.9697697,1.15252 c 0.29337,0.16764 0.55531,0.34576 0.81725,0.52388 a 0.9534525,0.9534525 0 0 0 0.45053,0.19907 2.01168,2.01168 0 0 1 0.59722,0.15716 c 0.30384,0.0943 0.45053,0.31433 0.72294,0.47149 a 2.4203025,2.4203025 0 0 1 0.74391,1.04775 5.762625,5.762625 0 0 1 0.16764,0.97441 1.4354175,1.4354175 0 0 1 -0.25146,0.9534505 2.55651,2.55651 0 0 0 -1.41447,-3.3947105 2.0012025,2.0012025 0 0 0 -0.61817,-0.13621 c -0.10477,0 -0.27241,-0.0943 -0.60769,-0.39814 a 4.10718,4.10718 0 0 0 -0.54483,-0.40863 c -0.20955,-0.12573 -0.4714897,-0.30384 -0.8381997,-0.5553 -1.17348,-0.79629 -2.97561,-0.91155 -3.52044,0.25146 a 0.8486775,0.8486775 0 0 0 0.0733,0.8382 1.4563725,1.4563725 0 0 0 0.44005,0.3248 0.9534525,0.9534525 0 0 1 -0.35623,-1.4459 2.2317075,2.2317075 0 0 1 2.03263,-0.48196 3.8033325,3.8033325 0 0 1 1.68688,0.82772 3.5309175,3.5309175 0 0 0 0.6915197,0.47149 10.64514,10.64514 0 0 1 0.91154,0.90106 l 0.37719,0.19908 a 2.0012025,2.0012025 0 0 1 1.14205,1.24682 1.9173825,1.9173825 0 0 1 0.0733,1.04775 1.6449675,1.6449675 0 0 1 -0.34576,0.5657805 1.236345,1.236345 0 0 1 -0.42958,0.35624 2.284095,2.284095 0 0 0 -0.47148,-0.5972205 1.5821025,1.5821025 0 0 1 -0.47149,-0.66008 3.7823775,3.7823775 0 0 0 -0.52388,-0.85916 c -0.20955,-0.26193 -0.39814,-0.49244 -0.47148,-0.40862 -0.12573,0.33528 -0.5133997,0.71247 -0.7439097,0.66008 a 26.497597,26.497597 0 0 1 -3.5833,-1.52971 c -1.29921,-0.85916 -0.30385,-2.35744 0.8382,-2.67176 0.33528,-0.11526 0.73342,0 0.92202,-0.23051 0.18859,-0.2305 0.0629,-0.26194 -0.12573,-0.3248 a 3.583305,3.583305 0 0 0 -0.4191,-0.27242 3.8033325,3.8033325 0 0 0 -2.4203,-0.44005 l -0.68104,0.28289 a 3.331845,3.331845 0 0 1 2.04311,-0.34576 c -1.41446,-0.33528 -2.91274,0.30385 -3.09086,1.59258 a 3.14325,3.14325 0 0 0 0,0.54483 0.3457575,0.3457575 0 0 1 -0.0733,0.27242 c -1.82308,0 -3.30041,1.28873 -2.92322,3.028 a 3.14325,3.14325 0 0 0 0.58674,1.19443 2.493645,2.493645 0 0 1 2.02216,-3.85572 0.4924425,0.4924425 0 0 1 0.53435,0.28289 7.732395,7.732395 0 0 0 4.62058,3.04896 0.96393,0.96393 0 0 1 0.56579,0.75438 1.3725525,1.3725525 0 0 0 -1.04775,-0.85916 8.9163525,8.9163525 0 0 1 -4.53676,-3.04895 2.84988,2.84988 0 0 0 -0.5134,0.0524 2.3364825,2.3364825 0 0 0 -1.33064,0.7439 1.76022,1.76022 0 0 0 -0.42958,0.78581 2.0955,2.0955 0 0 0 0,1.19444 c 0.0838,0.33528 0.4191,0.52387 0.44006,0.82772 a 4.3481625,4.3481625 0 0 1 -0.52388,-1.30969 c 0,0.30385 0.22003,0.55531 0.23051,0.85916 a 2.0955,2.0955 0 0 1 1.52971,-3.14325 c 0.26194,0 0.48197,-0.24099 0.80677,0.0733 a 0.9744075,0.9744075 0 0 0 -0.67056,-0.12573 2.0955,2.0955 0 0 0 -1.72879,3.14325 2.9651325,2.9651325 0 0 0 1.04775,1.1106105 2.619375,2.619375 0 0 0 1.83356,0.19907 2.6508075,2.6508075 0 0 1 -2.96513,-1.6973505 c -0.11525,-0.28289 0,-0.50292 0,-0.7439 a 1.445895,1.445895 0 0 1 0.3248,-0.92202 1.7287875,1.7287875 0 0 1 0.82773,-0.71247 c 0.16764,-0.0524 0.34575,-0.0838 0.51339,-0.12573 a 4.06527,4.06527 0 0 0 0.5134,-0.11525 12.887325,12.887325 0 0 0 4.80917,3.12229 c 0.37719,0.13621 0.36672,0.63913 0.69152,0.9220205 a 2.64033,2.64033 0 0 0 1.27825,0 c 0.7229497,-0.18859 0.7124697,-1.2887305 1.4144697,-1.1210905 0.26193,0 0.15716,0.67056 0.33528,1.0477505 a 2.9860875,2.9860875 0 0 1 0.5553,0.7439 c 0.0733,0.13621 0.16764,0.24098 0.35624,0.17812 a 2.2317075,2.2317075 0 0 0 0.58674,-0.30385 2.3783925,2.3783925 0 0 0 0.62865,-0.8172405 1.71831,1.71831 0 0 0 0.13621,-0.58674 c 0,-0.24099 -0.0838,-0.48197 -0.13621,-0.72295 a 1.823085,1.823085 0 0 1 -0.68104,1.7183105 c -0.15716,0.12573 -0.34576,0.2305 -0.46101,0.15716 l -0.47149,-0.47149 a 1.4982825,1.4982825 0 0 1 -0.37719,-0.6391205 1.9383375,1.9383375 0 0 0 -0.79629,-1.48781 c -0.0629,0 -0.2305,-0.22003 -0.25146,-0.18859 -0.16764,0.31432 -0.30384,1.04775 -0.5133897,0.93249 a 29.860875,29.860875 0 0 1 -3.71952,-1.59258 c -1.60305,-1.10013 -0.1362,-2.49364 0.95346,-3.20611 0.10477,0 -0.0734,-0.1886 -0.19908,-0.24098 a 2.787015,2.787015 0 0 0 -0.45053,-0.1886 3.499485,3.499485 0 0 0 -1.39351,0 3.206115,3.206115 0 0 0 -0.71247,0.33528 0.88011,0.88011 0 0 0 -0.29337,0.3248 c -0.0733,0.13621 -0.12573,0.2829 -0.20955,0.42958 -0.60769,1.12109 0.17812,2.57747 1.41447,3.39471 a 4.44246,4.44246 0 0 1 -0.94298,-2.48317 c -0.16764,0 -0.15716,0.13621 -0.22003,0.24099 -0.4191,-1.32017 0.9325,-2.1898 2.27362,-2.04312 0.23051,0.0629 0.37719,0.2829 0.34576,0.33528 -0.9325,0.73343 -1.93834,2.0955 -0.59722,3.14325 a 6.6113025,6.6113025 0 0 0 2.15837,0.74391 c 0.68103,0.22002 0.90106,0.93249 1.54019,1.04775 0.6391297,0.11525 0.2933697,-0.85916 0.5133997,-1.24683 0.0629,-0.11525 0.16764,0 0.17811,0.10478 a 0.9744075,0.9744075 0 0 1 0.6077,0.53435 3.14325,3.14325 0 0 1 0.27241,0.89059 1.4773275,1.4773275 0 0 0 0.31433,0.68104 3.0279975,3.0279975 0 0 1 0.3248,0.4505305 c 0.14669,0.20955 0.29337,0.36671 0.54483,0.24098 a 2.4412575,2.4412575 0 0 0 0.68104,-0.50292 2.0955,2.0955 0 0 1 -0.39815,0.46101 2.3574375,2.3574375 0 0 1 -0.49244,0.35624 c -0.22003,0.25146 -0.50292,0 -0.63913,-0.27242 0.10478,0.13621 0.4191,0.52388 0.63913,0.27242 a 2.3574375,2.3574375 0 0 0 0.49244,-0.35624 2.0955,2.0955 0 0 0 0.39815,-0.46101 2.326005,2.326005 0 0 1 -0.47149,0.37719 c -0.16764,0.0943 -0.34576,0.16764 -0.47149,0.10478 a 2.64033,2.64033 0 0 0 -0.46101,-0.6181805 1.38303,1.38303 0 0 1 -0.45053,-0.60769 3.14325,3.14325 0 0 0 -0.40862,-0.85916 c -0.17812,-0.26193 -0.37719,-0.42957 -0.50292,-0.27241 -0.3248,0.26194 -0.8067697,0.6496 -1.2887297,0.24098 -0.75438,-0.71247 -1.82309,-0.70199 -2.67177,-1.04775 a 1.571625,1.571625 0 0 1 -1.04775,-1.24682 2.409825,2.409825 0 0 1 1.33065,-2.0955 c -0.10478,-0.12573 -0.17812,-0.31433 -0.34576,-0.33528 0.0733,0.18859 0.22003,0.40862 0.11525,0.42958 a 3.14325,3.14325 0 0 0 -1.22587,1.44589 1.739265,1.739265 0 0 1 0.42958,-0.88011 3.14325,3.14325 0 0 1 0.38767,-0.34576"
       class="cls-5"
       style="opacity:0.3;fill:#ffffff;stroke-width:0.264583" />
    <path
       id="path1847"
       d="m 14.406584,7.2592455 a 7.33425,7.33425 0 0 1 -0.19907,1.66592 7.2189975,7.2189975 0 0 1 -4.6624897,5.1444505 l -0.34576,0.11525 a 14.071282,14.071282 0 0 0 3.3527997,-7.2189905 13.903642,13.903642 0 0 0 -0.11525,-4.66249 7.20852,7.20852 0 0 1 1.96977,4.95586"
       style="opacity:0.24;fill:#1d1d1b;stroke-width:0.264583" />
  </g>
</svg>
