<?xml version="1.0" encoding="UTF-8" standalone="no"?>
<svg
   xmlns:dc="http://purl.org/dc/elements/1.1/"
   xmlns:cc="http://creativecommons.org/ns#"
   xmlns:rdf="http://www.w3.org/1999/02/22-rdf-syntax-ns#"
   xmlns:svg="http://www.w3.org/2000/svg"
   xmlns="http://www.w3.org/2000/svg"
   xmlns:sodipodi="http://sodipodi.sourceforge.net/DTD/sodipodi-0.dtd"
   xmlns:inkscape="http://www.inkscape.org/namespaces/inkscape"
   sodipodi:docname="mercury.svg"
   inkscape:version="1.0 (4035a4fb49, 2020-05-01)"
   id="svg5387"
   version="1.1"
   viewBox="0 0 10.475913 10.475913"
   height="39.594002"
   width="39.594002">
  <defs
     id="defs5381">
    <clipPath
       id="clip-path-48">
      <rect
         class="cls-1"
         x="186.38"
         y="351.09"
         width="3.1199999"
         height="4.1500001"
         id="rect94" />
    </clipPath>
    <clipPath
       id="clip-path-49">
      <rect
         class="cls-1"
         x="182.69"
         y="353.42999"
         width="5.9299998"
         height="2.54"
         id="rect97" />
    </clipPath>
    <clipPath
       id="clip-path-50">
      <rect
         class="cls-1"
         x="183.69"
         y="356.14001"
         width="3.6099999"
         height="1.5700001"
         id="rect100" />
    </clipPath>
    <clipPath
       id="clip-path-51">
      <rect
         class="cls-1"
         x="186.05"
         y="355.64999"
         width="3.4100001"
         height="2.4200001"
         id="rect103" />
    </clipPath>
    <clipPath
       id="clip-path-52">
      <rect
         class="cls-1"
         x="181.83"
         y="355.64001"
         width="0.15000001"
         height="0.15000001"
         id="rect106" />
    </clipPath>
    <clipPath
       id="clip-path-53">
      <rect
         class="cls-1"
         x="182.74001"
         y="353.29999"
         width="0.15000001"
         height="0.15000001"
         id="rect109" />
    </clipPath>
    <clipPath
       id="clip-path-54">
      <rect
         class="cls-1"
         x="188.2"
         y="353.04001"
         width="0.15000001"
         height="0.15000001"
         id="rect112" />
    </clipPath>
    <clipPath
       id="clip-path-55">
      <rect
         class="cls-1"
         x="184.82001"
         y="358.23999"
         width="0.15000001"
         height="0.15000001"
         id="rect115" />
    </clipPath>
    <clipPath
       id="clip-path-56">
      <rect
         class="cls-1"
         x="184.3"
         y="352"
         width="0.15000001"
         height="0.15000001"
         id="rect118" />
    </clipPath>
    <clipPath
       id="clip-path-57">
      <rect
         class="cls-1"
         x="181.74001"
         y="353.82001"
         width="0.30000001"
         height="0.30000001"
         id="rect121" />
    </clipPath>
    <clipPath
       id="clip-path-58">
      <rect
         class="cls-1"
         x="189.5"
         y="355.64001"
         width="0.46000001"
         height="0.46000001"
         id="rect124" />
    </clipPath>
    <clipPath
       id="clip-path-59">
      <rect
         class="cls-1"
         x="184.57001"
         y="350.84"
         width="6.1100001"
         height="8.3299999"
         id="rect127" />
    </clipPath>
  </defs>
  <sodipodi:namedview
     inkscape:window-maximized="1"
     inkscape:window-y="-9"
     inkscape:window-x="-9"
     inkscape:window-height="1001"
     inkscape:window-width="1920"
     units="px"
     showgrid="false"
     inkscape:document-rotation="0"
     inkscape:current-layer="layer1"
     inkscape:document-units="mm"
     inkscape:cy="231.67979"
     inkscape:cx="323.56511"
     inkscape:zoom="1.3532258"
     inkscape:pageshadow="2"
     inkscape:pageopacity="0.0"
     borderopacity="1.0"
     bordercolor="#666666"
     pagecolor="#ffffff"
     id="base" />
  <metadata
     id="metadata5384">
    <rdf:RDF>
      <cc:Work
         rdf:about="">
        <dc:format>image/svg+xml</dc:format>
        <dc:type
           rdf:resource="http://purl.org/dc/dcmitype/StillImage" />
        <dc:title></dc:title>
      </cc:Work>
    </rdf:RDF>
  </metadata>
  <g
     id="layer1"
     inkscape:groupmode="layer"
     inkscape:label="Layer 1">
	 <style id="style2">.cls-1{fill:none}.cls-5{fill:#fff}.cls-12{fill:#575756}.cls-14{fill:#ca9e67}.cls-49{fill:#827965}.cls-50{fill:#b29072}.cls-52{fill:#e8c091}.cls-53{fill:#facc9e}.cls-56{fill:#9e8066}.cls-64{fill:#7a7b52}.cls-74{fill:#706355}.cls-75{fill:#847364}.cls-76{fill:#aa9484}.cls-77{fill:#443e3b}.cls-78{fill:#c9a47f}.cls-79{fill:#9b7e64}.cls-80{fill:#7c6452}.cls-81{fill:#d6ae8a}.cls-82{fill:#514d46}.cls-83{fill:#736152}.cls-84{fill:#4c453f}.cls-85{fill:#605448}.cls-105{fill:#959384}.cls-106{fill:#6e6d60}.cls-109{fill:#b2b2b2}.cls-127{fill:#b64435}.cls-148{fill:#41692a}.cls-224{fill:#ab5c41}.cls-226{fill:#502a1f}.cls-241{fill:#715c47}.cls-248{fill:#c2d2ee}.cls-250{fill:#bf9b7b}.cls-252{fill:#6e604f}.cls-262{fill:#ffe2b4}.cls-270{fill:#c7c6c6}.cls-360{fill:#a5b3b8}.cls-361{fill:#939b9e}.cls-366{fill:#e08f73}.cls-368{fill:#fde4d8}.cls-373{fill:#bf9a7c}.cls-380{fill:#a4846b}.cls-383{fill:#887467}.cls-384{fill:#967a60}.cls-394{fill:#5cb4e5}.cls-398{fill:#366584}.cls-424{fill:#7a5a52}</style>
    <path
       style="fill:#8c8b79;stroke-width:0.264583"
       id="path1121"
       d="M 7.5890997e-5,5.2273977 A 5.2379674,5.2379673 0 1 0 5.2274629,1.0664186e-5 5.2273858,5.2273857 0 0 0 7.5890997e-5,5.2273977"
       class="cls-104" />
    <path
       style="fill:#959384;stroke-width:0.264583"
       id="path1123"
       d="m 1.8942129,2.2433437 c 0,0.931193 1.058174,1.693079 2.433801,1.693079 1.37563,0 2.423221,-0.761886 2.423221,-1.693079 0,-0.931197 -1.058173,-1.68250004 -2.423221,-1.68250004 -1.365044,0 -2.433801,0.75130304 -2.433801,1.68250004"
       class="cls-105" />
    <path
       style="fill:#959384;stroke-width:0.264583"
       id="path1125"
       d="M 7.5890997e-5,5.2273977 A 5.1638953,5.1638952 0 0 0 0.68789289,7.8305087 a 1.8306431,1.8306431 0 0 0 0.97351901,0.275119 2.8041643,2.8041643 0 0 0 0,-5.470762 1.8835519,1.8835519 0 0 0 -1.20632001,0.444433 5.2168038,5.2168037 0 0 0 -0.455015999003,2.116348"
       class="cls-105" />
    <path
       style="fill:#6e6d60;stroke-width:0.264583"
       id="path1127"
       d="m 7.4707959,4.8252897 a 0.15872628,0.15872628 0 1 0 0.158736,-0.158736 0.15872628,0.15872628 0 0 0 -0.158736,0.158736"
       class="cls-106" />
    <g
       transform="matrix(1.0581752,0,0,1.0581752,-191.30742,-369.59943)"
       style="opacity:0.24;stroke-width:0.250037"
       id="g1133"
       class="cls-107">
      <g
         style="stroke-width:0.250037"
         id="g1131"
         clip-path="url(#clip-path-48)"
         class="cls-108">
        <path
           style="stroke-width:0.250037"
           id="path1129"
           d="m 188.71,351.1 c -0.73,0.12 -1.37,0.14 -1.53,1 a 6.71,6.71 0 0 1 -0.72,2.23 0.63,0.63 0 0 0 1.08,0.63 5.91,5.91 0 0 0 0.58,-1.34 c 0.07,-0.23 0.12,-0.46 0.17,-0.69 a 1.84,1.84 0 0 1 0.16,-0.7 l -0.37,0.29 a 7.41,7.41 0 0 1 1,-0.19 c 0.79,-0.13 0.46,-1.33 -0.33,-1.2"
           class="cls-109" />
      </g>
    </g>
    <g
       transform="matrix(1.0581752,0,0,1.0581752,-191.30742,-369.59943)"
       style="opacity:0.12;stroke-width:0.250037"
       id="g1139"
       class="cls-110">
      <g
         style="stroke-width:0.250037"
         id="g1137"
         clip-path="url(#clip-path-49)"
         class="cls-111">
        <path
           style="stroke-width:0.250037"
           id="path1135"
           d="m 188.61,355.37 a 2,2 0 0 0 -1.7,-1.91 1.44,1.44 0 0 0 -1.1,0.24 3,3 0 0 1 -2.34,0.12 c -0.79,-0.14 -1.12,1.06 -0.33,1.21 a 6.22,6.22 0 0 0 2.27,0.2 3,3 0 0 0 0.92,-0.36 c 0.37,-0.19 1,-0.22 1,0.5 a 0.63,0.63 0 0 0 1.25,0"
           class="cls-109" />
      </g>
    </g>
    <g
       transform="matrix(1.0581752,0,0,1.0581752,-191.30742,-369.59943)"
       style="opacity:0.15;stroke-width:0.250037"
       id="g1145"
       class="cls-112">
      <g
         style="stroke-width:0.250037"
         id="g1143"
         clip-path="url(#clip-path-50)"
         class="cls-113">
        <path
           style="stroke-width:0.250037"
           id="path1141"
           d="m 186.34,356.2 a 3.24,3.24 0 0 1 -1.87,0.23 c -0.78,-0.15 -1.12,1.06 -0.33,1.2 a 4.66,4.66 0 0 0 2.83,-0.35 c 0.74,-0.33 0.1,-1.4 -0.63,-1.08"
           class="cls-109" />
      </g>
    </g>
    <g
       transform="matrix(1.0581752,0,0,1.0581752,-191.30742,-369.59943)"
       style="opacity:0.09;stroke-width:0.250037"
       id="g1151"
       class="cls-114">
      <g
         style="stroke-width:0.250037"
         id="g1149"
         clip-path="url(#clip-path-51)"
         class="cls-115">
        <path
           style="stroke-width:0.250037"
           id="path1147"
           d="m 188.25,356.1 -0.09,0.55 a 2.87,2.87 0 0 1 0,0.44 l 0.37,-0.28 a 1.21,1.21 0 0 1 -0.5,0 1.72,1.72 0 0 1 -0.29,-0.11 l -0.14,-0.08 q -0.21,-0.18 -0.09,0 c 0,0.13 0.05,0.15 0,0.05 -0.05,-0.1 0,-0.09 0,-0.14 a 1,1 0 0 0 -0.49,-0.72 0.63,0.63 0 0 0 -0.64,1.08 c -0.08,-0.06 -0.08,-0.25 -0.1,-0.07 a 0.78,0.78 0 0 0 0,0.26 0.94,0.94 0 0 0 0.43,0.47 2.83,2.83 0 0 0 1.29,0.45 1.37,1.37 0 0 0 1.12,-0.18 c 0.31,-0.31 0.29,-1 0.35,-1.42 0.13,-0.79 -1.08,-1.13 -1.2,-0.33"
           class="cls-109" />
      </g>
    </g>
    <path
       style="fill:#6e6d60;stroke-width:0.264583"
       id="path1153"
       d="m 8.1057009,5.7353217 a 0.11639929,0.11639929 0 0 0 0.116383,0.116383 0.11639929,0.11639929 0 0 0 0.105824,-0.116383 0.10581751,0.10581751 0 0 0 -0.105824,-0.105824 0.10581751,0.10581751 0 0 0 -0.116383,0.105824"
       class="cls-106" />
    <path
       style="fill:#6e6d60;stroke-width:0.264583"
       id="path1155"
       d="m 7.8411569,7.3649107 a 0.08465403,0.08465403 0 0 0 0.08467,0.07407 0.07407225,0.07407225 0 0 0 0.07407,-0.07407 0.08465403,0.08465403 0 0 0 -0.07407,-0.08467 0.09523577,0.09523577 0 0 0 -0.08467,0.08467"
       class="cls-106" />
    <g
       transform="matrix(1.0581752,0,0,1.0581752,-191.30742,-369.59943)"
       style="opacity:0.46;stroke-width:0.250037"
       id="g1161"
       class="cls-116">
      <g
         style="stroke-width:0.250037"
         id="g1159"
         clip-path="url(#clip-path-52)"
         class="cls-117">
        <path
           style="stroke-width:0.250037"
           id="path1157"
           d="m 181.83,355.72 a 0.08,0.08 0 0 0 0.08,0.07 0.07,0.07 0 0 0 0.07,-0.07 0.08,0.08 0 0 0 -0.07,-0.08 0.09,0.09 0 0 0 -0.08,0.08"
           class="cls-106" />
      </g>
    </g>
    <path
       style="fill:#6e6d60;stroke-width:0.264583"
       id="path1163"
       d="m 0.96301589,5.7141577 a 0.08465403,0.08465403 0 0 0 0.08467,0.07407 0.07407225,0.07407225 0 0 0 0.07407,-0.07407 0.08465403,0.08465403 0 0 0 -0.07407,-0.08467 0.09523577,0.09523577 0 0 0 -0.08467,0.08467"
       class="cls-106" />
    <g
       transform="matrix(1.0581752,0,0,1.0581752,-191.30742,-369.59943)"
       style="opacity:0.46;stroke-width:0.250037"
       id="g1169"
       class="cls-116">
      <g
         style="stroke-width:0.250037"
         id="g1167"
         clip-path="url(#clip-path-53)"
         class="cls-118">
        <path
           style="stroke-width:0.250037"
           id="path1165"
           d="m 182.74,353.38 a 0.08,0.08 0 0 0 0.08,0.07 0.07,0.07 0 0 0 0.07,-0.07 0.07,0.07 0 0 0 -0.07,-0.08 0.08,0.08 0 0 0 -0.08,0.08"
           class="cls-106" />
      </g>
    </g>
    <path
       style="fill:#6e6d60;stroke-width:0.264583"
       id="path1171"
       d="m 2.0635199,7.1109487 a 0.08465403,0.08465403 0 0 0 0.08467,0.07407 0.07407225,0.07407225 0 0 0 0.07407,-0.07407 0.08465403,0.08465403 0 0 0 -0.07407,-0.08467 0.09523577,0.09523577 0 0 0 -0.08467,0.08467"
       class="cls-106" />
    <path
       style="fill:#6e6d60;stroke-width:0.264583"
       id="path1173"
       d="m 4.8147769,4.3385307 a 0.08465403,0.08465403 0 0 0 0.08467,0.07407 0.07407225,0.07407225 0 0 0 0.07407,-0.07407 0.07407225,0.07407225 0 0 0 -0.07407,-0.08467 0.08465403,0.08465403 0 0 0 -0.08467,0.08467"
       class="cls-106" />
    <path
       style="fill:#6e6d60;stroke-width:0.264583"
       id="path1175"
       d="m 6.4972729,5.7141577 a 0.07407225,0.07407225 0 0 0 0.07407,0.07407 0.07407225,0.07407225 0 0 0 0.08467,-0.07407 0.08465403,0.08465403 0 0 0 -0.08467,-0.08467 0.08465403,0.08465403 0 0 0 -0.07407,0.08467"
       class="cls-106" />
    <g
       transform="matrix(1.0581752,0,0,1.0581752,-191.30742,-369.59943)"
       style="opacity:0.46;stroke-width:0.250037"
       id="g1181"
       class="cls-116">
      <g
         style="stroke-width:0.250037"
         id="g1179"
         clip-path="url(#clip-path-54)"
         class="cls-119">
        <path
           style="stroke-width:0.250037"
           id="path1177"
           d="m 188.2,353.12 a 0.08,0.08 0 0 0 0.08,0.07 0.07,0.07 0 0 0 0.07,-0.07 0.07,0.07 0 0 0 -0.07,-0.08 0.08,0.08 0 0 0 -0.08,0.08"
           class="cls-106" />
      </g>
    </g>
    <path
       style="fill:#6e6d60;stroke-width:0.264583"
       id="path1183"
       d="m 6.1904029,0.76189766 a 0.08465403,0.08465403 0 0 0 0.08467,0.07407 0.07407225,0.07407225 0 0 0 0.07407,-0.07407 0.07407225,0.07407225 0 0 0 -0.07407,-0.08467 0.08465403,0.08465403 0 0 0 -0.08467,0.08467"
       class="cls-106" />
    <g
       transform="matrix(1.0581752,0,0,1.0581752,-191.30742,-369.59943)"
       style="opacity:0.46;stroke-width:0.250037"
       id="g1189"
       class="cls-116">
      <g
         style="stroke-width:0.250037"
         id="g1187"
         clip-path="url(#clip-path-55)"
         class="cls-120">
        <path
           style="stroke-width:0.250037"
           id="path1185"
           d="m 184.82,358.32 a 0.08,0.08 0 0 0 0.08,0.07 0.07,0.07 0 0 0 0.07,-0.07 0.08,0.08 0 0 0 -0.07,-0.08 0.09,0.09 0 0 0 -0.08,0.08"
           class="cls-106" />
      </g>
    </g>
    <path
       style="fill:#6e6d60;stroke-width:0.264583"
       id="path1191"
       d="m 5.7777129,9.5659137 a 0.08465403,0.08465403 0 0 0 0.08467,0.07407 0.07407225,0.07407225 0 0 0 0.07407,-0.07407 0.08465403,0.08465403 0 0 0 -0.07407,-0.08467 0.09523577,0.09523577 0 0 0 -0.08467,0.08467"
       class="cls-106" />
    <path
       style="fill:#6e6d60;stroke-width:0.264583"
       id="path1193"
       d="m 4.8147769,9.8410407 a 0.08465403,0.08465403 0 0 0 0.08467,0.07407 0.07407225,0.07407225 0 0 0 0.07407,-0.07407 0.08465403,0.08465403 0 0 0 -0.07407,-0.08467 0.09523577,0.09523577 0 0 0 -0.08467,0.08467"
       class="cls-106" />
    <path
       style="fill:#6e6d60;stroke-width:0.264583"
       id="path1195"
       d="m 3.0264599,6.5395337 a 0.08465403,0.08465403 0 0 0 0.08467,0.07407 0.07407225,0.07407225 0 0 0 0.07407,-0.07407 0.08465403,0.08465403 0 0 0 -0.07407,-0.08467 0.09523577,0.09523577 0 0 0 -0.08467,0.08467"
       class="cls-106" />
    <g
       transform="matrix(1.0581752,0,0,1.0581752,-191.30742,-369.59943)"
       style="opacity:0.46;stroke-width:0.250037"
       id="g1201"
       class="cls-116">
      <g
         style="stroke-width:0.250037"
         id="g1199"
         clip-path="url(#clip-path-56)"
         class="cls-121">
        <path
           style="stroke-width:0.250037"
           id="path1197"
           d="m 184.3,352.08 a 0.08,0.08 0 0 0 0.08,0.07 0.07,0.07 0 0 0 0.07,-0.07 0.07,0.07 0 0 0 -0.07,-0.08 0.08,0.08 0 0 0 -0.08,0.08"
           class="cls-106" />
      </g>
    </g>
    <path
       style="fill:#6e6d60;stroke-width:0.264583"
       id="path1203"
       d="m 0.68789289,7.2273467 a 0.08465403,0.08465403 0 0 0 0.08467,0.07407 0.07407225,0.07407225 0 0 0 0.07407,-0.07407 0.08465403,0.08465403 0 0 0 -0.07407,-0.08467 0.09523577,0.09523577 0 0 0 -0.08467,0.08467"
       class="cls-106" />
    <path
       style="fill:#6e6d60;stroke-width:0.264583"
       id="path1205"
       d="m 6.4972729,5.1850687 a 0.26454379,0.26454379 0 1 0 0.253962,-0.253962 0.26454379,0.26454379 0 0 0 -0.253962,0.253962"
       class="cls-106" />
    <path
       style="fill:#6e6d60;stroke-width:0.264583"
       id="path1207"
       d="m 3.7565989,7.0262937 a 0.15872628,0.15872628 0 1 0 0.158736,-0.158737 0.15872628,0.15872628 0 0 0 -0.158736,0.158737"
       class="cls-106" />
    <g
       transform="matrix(1.0581752,0,0,1.0581752,-191.30742,-369.59943)"
       style="opacity:0.49;stroke-width:0.250037"
       id="g1213"
       class="cls-122">
      <g
         style="stroke-width:0.250037"
         id="g1211"
         clip-path="url(#clip-path-57)"
         class="cls-123">
        <path
           style="stroke-width:0.250037"
           id="path1209"
           d="m 181.74,354 a 0.15,0.15 0 1 0 0.15,-0.15 0.15,0.15 0 0 0 -0.15,0.15"
           class="cls-106" />
      </g>
    </g>
    <path
       style="fill:#6e6d60;stroke-width:0.264583"
       id="path1215"
       d="m 5.1322289,1.5237837 a 0.15872628,0.15872628 0 1 0 0.158737,-0.158737 0.15872628,0.15872628 0 0 0 -0.158737,0.158737"
       class="cls-106" />
    <g
       transform="matrix(1.0581752,0,0,1.0581752,-191.30742,-369.59943)"
       style="opacity:0.49;stroke-width:0.250037"
       id="g1223"
       class="cls-122">
      <g
         style="stroke-width:0.250037"
         id="g1221"
         clip-path="url(#clip-path-58)"
         class="cls-124">
        <path
           style="stroke-width:0.250037"
           id="path1217"
           d="m 189.62,355.87 a 0.11,0.11 0 0 0 0.11,0.11 0.11,0.11 0 0 0 0.1,-0.11 0.1,0.1 0 0 0 -0.1,-0.1 0.1,0.1 0 0 0 -0.11,0.1"
           class="cls-106" />
        <path
           style="stroke-width:0.250037"
           id="path1219"
           d="m 189.62,355.87 a 0.11,0.11 0 0 0 0.11,0.11 0.11,0.11 0 0 0 0.1,-0.11 0.1,0.1 0 0 0 -0.1,-0.1 0.1,0.1 0 0 0 -0.11,0.1 z"
           class="cls-15" />
      </g>
    </g>
    <path
       style="fill:#6e6d60;stroke-width:0.264583"
       id="path1225"
       d="m 1.9153739,8.6241387 a 0.11639929,0.11639929 0 0 0 0.116383,0.116382 0.11639929,0.11639929 0 0 0 0.105824,-0.116382 0.10581751,0.10581751 0 0 0 -0.105824,-0.105824 0.10581751,0.10581751 0 0 0 -0.116383,0.105824"
       class="cls-106" />
    <path
       style="fill:#6e6d60;stroke-width:0.264583"
       id="path1227"
       d="m 3.8412539,0.92062566 a 0.11639929,0.11639929 0 0 0 0.116383,0.11638204 0.11639929,0.11639929 0 0 0 0.105824,-0.11638204 0.10581751,0.10581751 0 0 0 -0.105824,-0.105824 0.10581751,0.10581751 0 0 0 -0.116383,0.105824"
       class="cls-106" />
    <path
       style="fill:#6e6d60;stroke-width:0.264583"
       id="path1229"
       d="m 1.6402509,5.5977587 a 0.11639929,0.11639929 0 0 0 0.116383,0.116383 0.11639929,0.11639929 0 0 0 0.105824,-0.116383 0.10581751,0.10581751 0 0 0 -0.105824,-0.105824 0.10581751,0.10581751 0 0 0 -0.116383,0.105824"
       class="cls-106" />
    <g
       transform="matrix(1.0581752,0,0,1.0581752,-191.30742,-369.59943)"
       style="opacity:0.37;stroke-width:0.250037"
       id="g1235"
       class="cls-36">
      <g
         style="stroke-width:0.250037"
         id="g1233"
         clip-path="url(#clip-path-59)"
         class="cls-125">
        <path
           style="stroke-width:0.250037"
           id="path1231"
           d="m 184.57,359 a 4.94,4.94 0 0 0 4.77,-8.19 7.6,7.6 0 0 1 -0.59,4.26 7.82,7.82 0 0 1 -4.18,3.93"
           class="cls-106" />
      </g>
    </g>
  </g>
</svg>
