<?xml version="1.0" encoding="UTF-8" standalone="no"?>
<svg
   xmlns:dc="http://purl.org/dc/elements/1.1/"
   xmlns:cc="http://creativecommons.org/ns#"
   xmlns:rdf="http://www.w3.org/1999/02/22-rdf-syntax-ns#"
   xmlns:svg="http://www.w3.org/2000/svg"
   xmlns="http://www.w3.org/2000/svg"
   xmlns:sodipodi="http://sodipodi.sourceforge.net/DTD/sodipodi-0.dtd"
   xmlns:inkscape="http://www.inkscape.org/namespaces/inkscape"
   sodipodi:docname="neptune.svg"
   inkscape:version="1.0 (4035a4fb49, 2020-05-01)"
   id="svg6714"
   version="1.1"
   viewBox="0 0 26.567 26.579"
   height="26.579mm"
   width="26.566999mm">
  <defs
     id="defs6708" />
  <sodipodi:namedview
     inkscape:window-maximized="1"
     inkscape:window-y="-9"
     inkscape:window-x="-9"
     inkscape:window-height="1001"
     inkscape:window-width="1920"
     showgrid="false"
     inkscape:document-rotation="0"
     inkscape:current-layer="layer1"
     inkscape:document-units="mm"
     inkscape:cy="205.29201"
     inkscape:cx="400"
     inkscape:zoom="0.33830645"
     inkscape:pageshadow="2"
     inkscape:pageopacity="0.0"
     borderopacity="1.0"
     bordercolor="#666666"
     pagecolor="#ffffff"
     id="base" />
  <metadata
     id="metadata6711">
    <rdf:RDF>
      <cc:Work
         rdf:about="">
        <dc:format>image/svg+xml</dc:format>
        <dc:type
           rdf:resource="http://purl.org/dc/dcmitype/StillImage" />
        <dc:title></dc:title>
      </cc:Work>
    </rdf:RDF>
  </metadata>
  <g
     id="layer1"
     inkscape:groupmode="layer"
     inkscape:label="Layer 1">
	 <style id="style2">.cls-1{fill:none}.cls-5{fill:#fff}.cls-12{fill:#575756}.cls-14{fill:#ca9e67}.cls-49{fill:#827965}.cls-50{fill:#b29072}.cls-52{fill:#e8c091}.cls-53{fill:#facc9e}.cls-56{fill:#9e8066}.cls-64{fill:#7a7b52}.cls-74{fill:#706355}.cls-75{fill:#847364}.cls-76{fill:#aa9484}.cls-77{fill:#443e3b}.cls-78{fill:#c9a47f}.cls-79{fill:#9b7e64}.cls-80{fill:#7c6452}.cls-81{fill:#d6ae8a}.cls-82{fill:#514d46}.cls-83{fill:#736152}.cls-84{fill:#4c453f}.cls-85{fill:#605448}.cls-105{fill:#959384}.cls-106{fill:#6e6d60}.cls-109{fill:#b2b2b2}.cls-127{fill:#b64435}.cls-148{fill:#41692a}.cls-224{fill:#ab5c41}.cls-226{fill:#502a1f}.cls-241{fill:#715c47}.cls-248{fill:#c2d2ee}.cls-250{fill:#bf9b7b}.cls-252{fill:#6e604f}.cls-262{fill:#ffe2b4}.cls-270{fill:#c7c6c6}.cls-360{fill:#a5b3b8}.cls-361{fill:#939b9e}.cls-366{fill:#e08f73}.cls-368{fill:#fde4d8}.cls-373{fill:#bf9a7c}.cls-380{fill:#a4846b}.cls-383{fill:#887467}.cls-384{fill:#967a60}.cls-394{fill:#5cb4e5}.cls-398{fill:#366584}.cls-424{fill:#7a5a52}</style>
    <path
       id="path1077"
       d="m 26.567031,13.292789 a 13.300604,13.300604 0 0 1 -7.5565,11.98827 13.110104,13.110104 0 0 1 -2.95539,1.00541 13.284729,13.284729 0 1 1 6.38175,-22.6218704 13.573125,13.573125 0 0 1 1.11125,1.19592 13.250333,13.250333 0 0 1 3.01889,8.4322704"
       style="fill:#4175a9;stroke-width:0.264583" />
    <path
       id="path1853"
       d="m 22.757031,22.598179 a 13.274146,13.274146 0 0 1 -18.9018302,0.0476 c 0.99219,-2.55323 4.84981,-4.45558 9.4588502,-4.45558 4.60904,0 8.42169,1.88119 9.44298,4.40796"
       style="fill:#3a6c8f;stroke-width:0.264583" />
    <path
       id="path2995"
       d="m 24.823431,6.7046586 c -5.47952,-2.23308 -13.97794,-4.10898 -23.0187502,-0.11377 a 13.287375,13.287375 0 0 1 23.0187502,0.11377"
       style="fill:#4a88bc;stroke-width:0.264583" />
    <path
       id="path2997"
       d="M 22.436891,3.6593086 A 65.88125,65.88125 0 0 0 6.6968208,1.7490186 13.290021,13.290021 0 0 1 22.436891,3.6593086"
       style="fill:#315a7c;stroke-width:0.264583" />
    <path
       style="fill:#5cb4e5;stroke-width:0.264583"
       id="path2999"
       d="m 6.6968208,2.7464986 c 0,0 2.18811,-1.52665 6.6145902,-1.05834 4.42648,0.46832 5.88168,1.66688 5.88168,1.66688 a 17.375187,17.375187 0 0 0 -4.9477,-1.07156 c -2.69346,-0.15611 -4.8471702,-0.33603 -7.5512102,0.46566"
       class="cls-394" />
    <path
       id="path3001"
       d="m 13.978161,14.525749 c 0,4.13014 -2.80723,7.47712 -6.2732702,7.47712 -3.46605,0 -6.27328,-3.34698 -6.27328,-7.47712 0,-4.13015 2.80723,-7.4771304 6.27328,-7.4771304 3.4660402,0 6.2732702,3.3469804 6.2732702,7.4771304"
       style="opacity:0.54;fill:#4681b2;stroke-width:0.264583" />
    <path
       style="fill:#366584;stroke-width:0.264583"
       id="path3007"
       d="m 19.010531,25.275769 a 13.30325,13.30325 0 0 1 -11.4564602,0 c 1.34673,-1.18269 3.4131302,-1.9394 5.7282302,-1.9394 2.31511,0 4.3815,0.75671 5.72823,1.9394"
       class="cls-398" />
    <path
       id="path3009"
       d="m 12.443571,10.467039 c 0,0.73289 -1.05833,1.32291 -2.38125,1.32291 -1.3229102,0 -2.3812502,-0.59266 -2.3812502,-1.32291 0,-0.7302504 1.05834,-1.3229204 2.3812502,-1.3229204 1.32292,0 2.38125,0.59267 2.38125,1.3229204"
       style="opacity:0.51;fill:#325d7b;stroke-width:0.264583" />
    <path
       style="fill:#5cb4e5;stroke-width:0.264583"
       id="path3015"
       d="m 7.3873908,9.4880786 c 0,0 1.77535,-1.0451 5.0006202,-0.24871 3.22527,0.7964004 4.16983,1.9155804 4.16983,1.9155804 a 11.90625,11.90625 0 0 0 -3.54277,-1.3414304 c -1.97379,-0.37836 -3.5454102,-0.73025 -5.6276802,-0.32544"
       class="cls-394" />
    <path
       id="path3017"
       d="m 5.7496108,22.352119 a 0.35189583,0.35189583 0 1 1 -0.34925,-0.34925 0.35189583,0.35189583 0 0 1 0.34925,0.34925"
       style="fill:#4c8eb2;stroke-width:0.264583" />
    <path
       id="path3019"
       d="m 13.464861,18.216679 c 0,0 1.9394,-0.69321 4.9583,0.69321 3.01889,1.38642 3.73062,2.667 3.73062,2.667 a 11.871854,11.871854 0 0 0 -3.23056,-1.98437 c -1.85208,-0.74348 -3.34433,-1.38113 -5.46629,-1.37584"
       style="fill:#468aaa;stroke-width:0.264583" />
    <path
       id="path3021"
       d="m 11.570451,23.484539 c 0,0 1.42081,-0.92075 3.91319,-0.20109 2.49237,0.71967 3.19352,1.7145 3.19352,1.7145 a 8.3396667,8.3396667 0 0 0 -2.72257,-1.20385 c -1.52929,-0.34396 -2.74637,-0.65881 -4.38414,-0.30956"
       style="fill:#27515b;stroke-width:0.264583" />
    <path
       id="path3023"
       d="m 26.567031,13.292789 a 13.300604,13.300604 0 0 1 -7.5565,11.98827 13.110104,13.110104 0 0 1 -2.95539,1.00541 c 3.01889,-3.1406 5.97958,-7.46918 7.17814,-13.0466 a 24.177625,24.177625 0 0 0 0.31486,-8.3793504 13.250333,13.250333 0 0 1 3.01889,8.4322704"
       class="cls-398"
       style="opacity:0.4;fill:#366584;stroke-width:0.264583" />
    <path
       style="fill:#5cb4e5;stroke-width:0.264583"
       id="path3029"
       d="m 15.208471,12.403789 c 0,0 1.00542,0 2.71727,0.81756 1.71185,0.81756 2.17752,1.30969 2.17752,1.30969 a 12.435417,12.435417 0 0 0 -1.85208,-1.02923 15.08125,15.08125 0 0 0 -3.03213,-1.09802"
       class="cls-394" />
    <path
       id="path3091"
       d="m 12.218681,15.562909 c 0,3.06917 -2.16429,5.55625 -4.8312902,5.55625 -2.667,0 -4.8313,-2.48708 -4.8313,-5.55625 0,-3.06916 2.1643,-5.55625 4.8313,-5.55625 2.6670002,0 4.8312902,2.48709 4.8312902,5.55625"
       class="cls-5"
       style="opacity:0.08;fill:#ffffff;stroke-width:0.264583" />
  </g>
</svg>
