<?xml version="1.0" encoding="UTF-8" standalone="no"?>
<svg
   xmlns:dc="http://purl.org/dc/elements/1.1/"
   xmlns:cc="http://creativecommons.org/ns#"
   xmlns:rdf="http://www.w3.org/1999/02/22-rdf-syntax-ns#"
   xmlns:svg="http://www.w3.org/2000/svg"
   xmlns="http://www.w3.org/2000/svg"
   xmlns:sodipodi="http://sodipodi.sourceforge.net/DTD/sodipodi-0.dtd"
   xmlns:inkscape="http://www.inkscape.org/namespaces/inkscape"
   sodipodi:docname="uranus.svg"
   inkscape:version="1.0 (4035a4fb49, 2020-05-01)"
   id="svg6117"
   version="1.1"
   viewBox="0 0 27.417 27.416"
   height="27.416mm"
   width="27.417mm">
  <defs
     id="defs6111" />
  <sodipodi:namedview
     inkscape:window-maximized="1"
     inkscape:window-y="-9"
     inkscape:window-x="-9"
     inkscape:window-height="1001"
     inkscape:window-width="1920"
     showgrid="false"
     inkscape:document-rotation="0"
     inkscape:current-layer="layer1"
     inkscape:document-units="mm"
     inkscape:cy="560"
     inkscape:cx="400"
     inkscape:zoom="0.33830645"
     inkscape:pageshadow="2"
     inkscape:pageopacity="0.0"
     borderopacity="1.0"
     bordercolor="#666666"
     pagecolor="#ffffff"
     id="base" />
  <metadata
     id="metadata6114">
    <rdf:RDF>
      <cc:Work
         rdf:about="">
        <dc:format>image/svg+xml</dc:format>
        <dc:type
           rdf:resource="http://purl.org/dc/dcmitype/StillImage" />
        <dc:title></dc:title>
      </cc:Work>
    </rdf:RDF>
  </metadata>
  <g
     id="layer1"
     inkscape:groupmode="layer"
     inkscape:label="Layer 1">
	 <style id="style2">.cls-1{fill:none}.cls-5{fill:#fff}.cls-12{fill:#575756}.cls-14{fill:#ca9e67}.cls-49{fill:#827965}.cls-50{fill:#b29072}.cls-52{fill:#e8c091}.cls-53{fill:#facc9e}.cls-56{fill:#9e8066}.cls-64{fill:#7a7b52}.cls-74{fill:#706355}.cls-75{fill:#847364}.cls-76{fill:#aa9484}.cls-77{fill:#443e3b}.cls-78{fill:#c9a47f}.cls-79{fill:#9b7e64}.cls-80{fill:#7c6452}.cls-81{fill:#d6ae8a}.cls-82{fill:#514d46}.cls-83{fill:#736152}.cls-84{fill:#4c453f}.cls-85{fill:#605448}.cls-105{fill:#959384}.cls-106{fill:#6e6d60}.cls-109{fill:#b2b2b2}.cls-127{fill:#b64435}.cls-148{fill:#41692a}.cls-224{fill:#ab5c41}.cls-226{fill:#502a1f}.cls-241{fill:#715c47}.cls-248{fill:#c2d2ee}.cls-250{fill:#bf9b7b}.cls-252{fill:#6e604f}.cls-262{fill:#ffe2b4}.cls-270{fill:#c7c6c6}.cls-360{fill:#a5b3b8}.cls-361{fill:#939b9e}.cls-366{fill:#e08f73}.cls-368{fill:#fde4d8}.cls-373{fill:#bf9a7c}.cls-380{fill:#a4846b}.cls-383{fill:#887467}.cls-384{fill:#967a60}.cls-394{fill:#5cb4e5}.cls-398{fill:#366584}.cls-424{fill:#7a5a52}</style>
    <path
       id="path1075"
       d="m 27.417469,13.708044 a 13.660437,13.660437 0 0 1 -3.870856,9.54088 13.342937,13.342937 0 0 1 -1.000125,0.93397 13.758333,13.758333 0 0 1 -2.492375,1.67746 13.559896,13.559896 0 0 1 -3.148541,1.18004 c -0.314855,0.0767 -0.635,0.14023 -0.957792,0.19315 l -0.174625,0.0265 -0.346604,0.0503 -0.214313,0.0238 a 13.541375,13.541375 0 0 1 -1.508125,0.082 c -0.312208,0 -0.621771,0 -0.928687,-0.0291 A 13.713354,13.713354 0 0 1 10.285697,0.42864651 13.6525,13.6525 0 0 1 13.704113,2.1512663e-5 c 0.378354,0 0.751417,0.01587999734 1.121834,0.04497999734 l 0.325437,0.0291 c 0.22225,0.02381 0.4445,0.05292 0.661458,0.08731 0.399521,0.0635 0.79375,0.142875 1.180042,0.238125 a 13.536083,13.536083 0 0 1 3.235854,1.25676699 13.702771,13.702771 0 0 1 7.172856,12.0517705"
       style="fill:#6895a9;stroke-width:0.264583" />
    <path
       id="path3031"
       d="m 11.240842,13.708044 a 87.730542,87.730542 0 0 1 -0.949854,13.27944 13.713354,13.713354 0 0 1 0,-26.55887749 87.730542,87.730542 0 0 1 0.949854,13.27943749"
       style="fill:#7fada9;stroke-width:0.264583" />
    <path
       id="path3033"
       d="m 8.6505717,13.708044 c 0,4.56406 -1.764771,8.26558 -3.942292,8.26558 -2.17752,0 -3.94229099,-3.70416 -3.94229099,-8.26558 0,-4.5614205 1.76477099,-8.2655805 3.94229099,-8.2655805 2.177521,0 3.942292,3.70416 3.942292,8.2655805"
       style="fill:#9ed1ca;stroke-width:0.264583" />
    <path
       id="path3035"
       d="m 4.9305297,13.684234 c 0,3.42106 -0.830791,6.19654 -1.852083,6.19654 -1.021292,0 -1.852083,-2.77548 -1.852083,-6.19654 0,-3.42106 0.833437,-6.1965405 1.852083,-6.1965405 1.018646,0 1.852083,2.7754805 1.852083,6.1965405"
       style="fill:#b5dddd;stroke-width:0.264583" />
    <path
       id="path3037"
       d="m 15.953072,27.233544 c -0.17198,0.0291 -0.346605,0.0529 -0.529167,0.0767 a 14.234583,14.234583 0 0 1 -1.722438,0.10583 c -0.312208,0 -0.62177,0 -0.928687,-0.0291 1.987021,-10.04093 0.34925,-21.9789305 -0.590021,-27.30499649 a 14.136687,14.136687 0 0 1 2.965979,0 c 0.224896,0.02381 0.449792,0.05292 0.672042,0.08731 A 150.73842,150.73842 0 0 1 15.945134,27.241454"
       style="fill:#719894;stroke-width:0.264583" />
    <path
       id="path3039"
       d="m 16.910863,27.040394 c -0.314854,0.0767 -0.635,0.14023 -0.957791,0.19315 -0.17198,0.0291 -0.346605,0.0529 -0.529167,0.0767 0.994833,-11.18394 0.150812,-22.6668505 -0.264583,-27.23620849 0.224895,0.02381 0.449791,0.05292 0.672041,0.08731 0.399521,0.0635 0.79375,0.142875 1.180042,0.238125 1.116542,15.11035349 0.137583,24.67504349 -0.0979,26.64090349"
       style="fill:#a0d3cd;stroke-width:0.264583" />
    <path
       id="path3041"
       d="M 25.75853,7.1675435 23.546613,23.251564 c -0.3175,0.32544 -0.650875,0.63765 -1.000125,0.93133 a 13.758333,13.758333 0 0 1 -2.492375,1.67746 C 22.86928,13.483144 21.215634,5.0376435 20.239322,1.6562735 a 13.758333,13.758333 0 0 1 5.513916,5.51127"
       style="fill:#5f8b98;stroke-width:0.264583" />
    <path
       id="path3043"
       d="m 27.417469,13.708044 a 13.660437,13.660437 0 0 1 -3.870856,9.54088 13.342937,13.342937 0 0 1 -1.000125,0.93397 C 24.271572,15.795604 23.197363,7.3342335 22.432717,3.1379435 a 13.758333,13.758333 0 0 1 3.320521,4.0296 13.631333,13.631333 0 0 1 1.658939,6.5405005"
       style="fill:#58828c;stroke-width:0.264583" />
    <path
       id="path3045"
       d="m 21.429947,14.414484 c 0,0.86254 -0.224896,1.56104 -0.500063,1.56104 -0.275167,0 -0.500062,-0.6985 -0.500062,-1.56104 0,-0.86254 0.224895,-1.5584 0.500062,-1.5584 0.275167,0 0.500063,0.6985 0.500063,1.5584"
       style="opacity:0.5;fill:#436167;stroke-width:0.264583" />
    <path
       id="path3051"
       d="m 15.778447,27.260004 -0.346605,0.0503 -0.214312,0.0238 C 15.855176,10.366374 15.15138,2.5532335 14.831238,0.04498051 l 0.325438,0.0291 c 0.22225,0.02381 0.4445,0.05292 0.664104,0.08731 C 16.918801,14.676434 15.992759,25.159224 15.77845,27.260014"
       style="fill:#83a8a3;stroke-width:0.264583" />
    <path
       id="path3053"
       d="m 26.48349,14.247794 c 0,6.13569 -4.437064,11.1125 -9.911293,11.1125 -5.47423,0 -9.9112923,-4.97681 -9.9112923,-11.1125 0,-6.1356905 4.4370623,-11.1125005 9.9112923,-11.1125005 5.474229,0 9.911293,4.97417 9.911293,11.1125005"
       class="cls-5"
       style="opacity:0.17;fill:#ffffff;stroke-width:0.264583" />
    <path
       id="path3059"
       d="m 21.993509,12.297814 c 0,4.18306 -3.061229,7.57502 -6.836833,7.57502 -3.775604,0 -6.8368333,-3.39196 -6.8368333,-7.57502 0,-4.1830605 3.0612293,-7.5723705 6.8368333,-7.5723705 3.775604,0 6.836833,3.38931 6.836833,7.5723705"
       class="cls-5"
       style="opacity:0.17;fill:#ffffff;stroke-width:0.264583" />
  </g>
</svg>
