<?xml version="1.0" encoding="UTF-8" standalone="no"?>
<svg
   xmlns:dc="http://purl.org/dc/elements/1.1/"
   xmlns:cc="http://creativecommons.org/ns#"
   xmlns:rdf="http://www.w3.org/1999/02/22-rdf-syntax-ns#"
   xmlns:svg="http://www.w3.org/2000/svg"
   xmlns="http://www.w3.org/2000/svg"
   xmlns:sodipodi="http://sodipodi.sourceforge.net/DTD/sodipodi-0.dtd"
   xmlns:inkscape="http://www.inkscape.org/namespaces/inkscape"
   sodipodi:docname="Venus.svg"
   inkscape:version="1.0 (4035a4fb49, 2020-05-01)"
   id="svg6243"
   version="1.1"
   viewBox="0 0 102.668 102.853"
   height="102.853mm"
   width="102.668mm">
  <defs
     id="defs6237">
    <clipPath
       id="clip-path-60">
      <rect
         class="cls-1"
         x="244.19"
         y="343.67001"
         width="8.9700003"
         height="7.4400001"
         id="rect130" />
    </clipPath>
    <clipPath
       id="clip-path-61">
      <rect
         class="cls-1"
         x="244.36"
         y="356.57001"
         width="9.7700005"
         height="7.8600001"
         id="rect133" />
    </clipPath>
    <clipPath
       id="clip-path-62">
      <rect
         class="cls-1"
         x="254.75"
         y="352.23001"
         width="9"
         height="8.0200005"
         id="rect136" />
    </clipPath>
    <clipPath
       id="clip-path-63">
      <rect
         class="cls-1"
         x="259.14001"
         y="346.20001"
         width="3.2"
         height="3.3599999"
         id="rect139" />
    </clipPath>
    <clipPath
       id="clip-path-64">
      <rect
         class="cls-1"
         x="240.89"
         y="350.51999"
         width="0.54000002"
         height="0.76999998"
         id="rect142" />
    </clipPath>
    <clipPath
       id="clip-path-65">
      <rect
         class="cls-1"
         x="258.17999"
         y="355.98001"
         width="0.54000002"
         height="0.76999998"
         id="rect145" />
    </clipPath>
    <clipPath
       id="clip-path-66">
      <rect
         class="cls-1"
         x="243.37"
         y="347.69"
         width="0.54000002"
         height="0.54000002"
         id="rect148" />
    </clipPath>
    <clipPath
       id="clip-path-67">
      <rect
         class="cls-1"
         x="255.64"
         y="349.29999"
         width="0.54000002"
         height="0.54000002"
         id="rect151" />
    </clipPath>
    <clipPath
       id="clip-path-68">
      <rect
         class="cls-1"
         x="257.91"
         y="345.10001"
         width="0.37"
         height="0.37"
         id="rect154" />
    </clipPath>
    <clipPath
       id="clip-path-69">
      <rect
         class="cls-1"
         x="261.54999"
         y="349"
         width="0.37"
         height="0.37"
         id="rect157" />
    </clipPath>
    <clipPath
       id="clip-path-70">
      <rect
         class="cls-1"
         x="256.73999"
         y="350.42999"
         width="0.37"
         height="0.37"
         id="rect160" />
    </clipPath>
    <clipPath
       id="clip-path-71">
      <rect
         class="cls-1"
         x="251.67"
         y="342.89001"
         width="0.37"
         height="0.37"
         id="rect163" />
    </clipPath>
    <clipPath
       id="clip-path-72">
      <rect
         class="cls-1"
         x="249.2"
         y="345.48999"
         width="0.37"
         height="0.37"
         id="rect166" />
    </clipPath>
    <clipPath
       id="clip-path-73">
      <rect
         class="cls-1"
         x="249.07001"
         y="359.67001"
         width="0.37"
         height="0.37"
         id="rect169" />
    </clipPath>
    <clipPath
       id="clip-path-74">
      <rect
         class="cls-1"
         x="250.11"
         y="361.62"
         width="0.37"
         height="0.37"
         id="rect172" />
    </clipPath>
    <clipPath
       id="clip-path-75">
      <rect
         class="cls-1"
         x="242.44"
         y="349.26001"
         width="0.37"
         height="0.37"
         id="rect175" />
    </clipPath>
    <clipPath
       id="clip-path-76">
      <rect
         class="cls-1"
         x="243.87"
         y="360.97"
         width="0.37"
         height="0.37"
         id="rect178" />
    </clipPath>
    <clipPath
       id="clip-path-77">
      <rect
         class="cls-1"
         x="252.09"
         y="348.09"
         width="12.04"
         height="18.299999"
         id="rect181" />
    </clipPath>
    <clipPath
       id="clip-path-310">
      <rect
         class="cls-1"
         x="239.59"
         y="341.85001"
         width="24.540001"
         height="24.540001"
         id="rect880" />
    </clipPath>
    <clipPath
       id="clip-path-311">
      <rect
         class="cls-1"
         x="252.56"
         y="348.48999"
         width="10.96"
         height="17.870001"
         id="rect883" />
    </clipPath>
    <clipPath
       id="clip-path-312">
      <rect
         class="cls-1"
         x="240.95"
         y="344.85001"
         width="20.129999"
         height="16.66"
         id="rect886" />
    </clipPath>
    <clipPath
       id="clip-path-313">
      <rect
         class="cls-1"
         x="239.59"
         y="343.67999"
         width="19.860001"
         height="14.3"
         id="rect889" />
    </clipPath>
  </defs>
  <sodipodi:namedview
     inkscape:window-maximized="1"
     inkscape:window-y="-9"
     inkscape:window-x="-9"
     inkscape:window-height="1001"
     inkscape:window-width="1920"
     showgrid="false"
     inkscape:document-rotation="0"
     inkscape:current-layer="layer1"
     inkscape:document-units="mm"
     inkscape:cy="560"
     inkscape:cx="400"
     inkscape:zoom="0.33830645"
     inkscape:pageshadow="2"
     inkscape:pageopacity="0.0"
     borderopacity="1.0"
     bordercolor="#666666"
     pagecolor="#ffffff"
     id="base" />
  <metadata
     id="metadata6240">
    <rdf:RDF>
      <cc:Work
         rdf:about="">
        <dc:format>image/svg+xml</dc:format>
        <dc:type
           rdf:resource="http://purl.org/dc/dcmitype/StillImage" />
        <dc:title></dc:title>
      </cc:Work>
    </rdf:RDF>
  </metadata>
  <g
     id="layer1"
     inkscape:groupmode="layer"
     inkscape:label="Layer 1">
	 <style id="style2">.cls-1{fill:none}.cls-5{fill:#fff}.cls-12{fill:#575756}.cls-14{fill:#ca9e67}.cls-49{fill:#827965}.cls-50{fill:#b29072}.cls-52{fill:#e8c091}.cls-53{fill:#facc9e}.cls-56{fill:#9e8066}.cls-64{fill:#7a7b52}.cls-74{fill:#706355}.cls-75{fill:#847364}.cls-76{fill:#aa9484}.cls-77{fill:#443e3b}.cls-78{fill:#c9a47f}.cls-79{fill:#9b7e64}.cls-80{fill:#7c6452}.cls-81{fill:#d6ae8a}.cls-82{fill:#514d46}.cls-83{fill:#736152}.cls-84{fill:#4c453f}.cls-85{fill:#605448}.cls-105{fill:#959384}.cls-106{fill:#6e6d60}.cls-109{fill:#b2b2b2}.cls-127{fill:#b64435}.cls-148{fill:#41692a}.cls-224{fill:#ab5c41}.cls-226{fill:#502a1f}.cls-241{fill:#715c47}.cls-248{fill:#c2d2ee}.cls-250{fill:#bf9b7b}.cls-252{fill:#6e604f}.cls-262{fill:#ffe2b4}.cls-270{fill:#c7c6c6}.cls-360{fill:#a5b3b8}.cls-361{fill:#939b9e}.cls-366{fill:#e08f73}.cls-368{fill:#fde4d8}.cls-373{fill:#bf9a7c}.cls-380{fill:#a4846b}.cls-383{fill:#887467}.cls-384{fill:#967a60}.cls-394{fill:#5cb4e5}.cls-398{fill:#366584}.cls-424{fill:#7a5a52}</style>
    <path
       id="path1069"
       d="m 102.63703,51.733808 a 51.590936,51.590936 0 0 1 -1.59259,12.78249 c -0.3352,1.34112 -0.75436,2.68223 -1.17347,3.98142 -0.41908,1.2992 -0.71244,1.96975 -1.13156,2.93371 -0.41908,0.96391 -0.3772,0.88007 -0.58672,1.29919 v 0.41908 c -0.37719,0.83819 -0.75439,1.63451 -1.17347,2.43078 v 0.2516 c -0.58676,1.08964 -1.21539,2.17931 -1.88595,3.18515 v 0 a 21.248258,21.248258 0 0 1 -1.50875,2.263098 v 0 l -0.79628,1.08968 -1.67639,2.13739 c -0.41912,0.461 -0.79631,0.92203 -1.21539,1.34111 a 11.902377,11.902377 0 0 1 -1.00584,1.08967 c -0.41911,0.461 -0.83819,0.922 -1.29919,1.34112 l -1.969794,1.84403 -1.96975,1.63447 -2.09547,1.59255 a 49.872637,49.872637 0 0 1 -4.44245,2.84987 25.145867,25.145867 0 0 1 -2.34695,1.25731 l -2.34695,1.13155 v 0 l -1.46683,0.62864 a 21.793085,21.793085 0 0 1 -2.30503,0.880124 c -0.92204,0.33519 -1.84403,0.62863 -2.80795,0.88011 l -1.46687,0.54484 -1.04771,0.2516 a 21.164438,21.164438 0 0 1 -2.34695,0.50291 16.135265,16.135265 0 0 1 -2.05359,0.3352 h -0.3772 a 11.31564,11.31564 0 0 1 -1.71831,0.2096 h -0.3772 -2.34694 v 0 a 14.877972,14.877972 0 0 1 -1.92783,0 h -0.96392 a 50.794652,50.794652 0 0 1 -27.91189,-8.381954 40.862032,40.862032 0 0 1 -3.52042,-2.47271 51.423297,51.423297 0 0 1 -9.59735,-9.72307 v 0 a 48.028607,48.028607 0 0 1 -4.65198,-7.417998 45.555928,45.555928 0 0 1 -3.05942,-7.37612 49.2859,49.2859 0 0 1 -2.43074999,-11.39946 c 0,-1.50875 0,-3.05943 0,-4.6101 v 0 A 51.423297,51.423297 0 0 1 16.135286,14.057167 a 39.059914,39.059914 0 0 1 3.18514,-2.724145 44.885371,44.885371 0 0 1 5.19681,-3.6880608 51.465209,51.465209 0 0 1 53.97976,0 42.454604,42.454604 0 0 1 4.77769,3.3527828 c 0.62868,0.461037 1.25732,1.005834 1.88595,1.550671 a 49.20208,49.20208 0 0 1 4.945384,4.861535 c 0.54479,0.670556 1.13155,1.341113 1.67639,2.053589 a 53.1416,53.1416 0 0 1 3.5623,5.112973 c 0.3352,0.502917 0.62868,1.005835 0.92203,1.550672 0.2932,0.544837 0.62864,1.089634 0.88012,1.676391 0.2516,0.586717 0.62864,1.215393 0.92199,1.844033 a 22.547461,22.547461 0 0 1 1.00584,2.30503 c 0.3352,0.79627 0.67056,1.67639 0.96391,2.51458 l 0.2932,0.92204 c 0.2096,0.62863 0.41912,1.25727 0.58676,1.92783 a 14.458874,14.458874 0 0 1 0.50292,1.92787 c 0.3352,1.29919 0.58671,2.59838 0.79627,3.9395 a 30.803688,30.803688 0 0 1 0.41912,3.43662 5.1549028,5.1549028 0 0 1 0,1.13155 8.1304971,8.1304971 0 0 1 0,1.00584 c 0,0.88011 0,1.76023 0,2.6403"
       class="cls-86"
       style="fill:#e8b861;stroke-width:0.264583" />
    <g
       id="g1241"
       class="cls-112"
       transform="matrix(4.1909778,0,0,4.1909778,-1004.3259,-1432.3752)"
       style="opacity:0.15;stroke-width:0.0631316">
      <g
         id="g1239"
         clip-path="url(#clip-path-60)"
         class="cls-126"
         style="stroke-width:0.0631316">
        <path
           id="path1237"
           d="m 253.16,349.8 -2.59,1.31 -0.68,-1.75 -5.58,1.17 2.09,-1.41 v -1.69 l -1,-0.73 0.74,-0.94 -1.93,-1.22 a 12,12 0 0 1 1.24,-0.87 l 1.31,0.25 2.31,1.16 3,0.68 -1.92,1.88 z"
           class="cls-127"
           style="stroke-width:0.0631316" />
      </g>
    </g>
    <g
       id="g1247"
       class="cls-114"
       transform="matrix(4.1909778,0,0,4.1909778,-1004.3259,-1432.3752)"
       style="opacity:0.09;stroke-width:0.0631316">
      <g
         id="g1245"
         clip-path="url(#clip-path-61)"
         class="cls-128"
         style="stroke-width:0.0631316">
        <path
           id="path1243"
           d="m 254.13,357.27 v 1.2 l -1.77,0.44 -0.22,3 -1.73,0.53 -0.13,0.8 -2.35,-0.09 -1.72,0.4 -1,0.9 a 9.75,9.75 0 0 1 -0.84,-0.59 l 0.78,-1.2 2.57,0.22 2.79,-2.12 1.36,-2.61 -2.69,-0.8 3.32,0.2 c 0,0 -0.31,-0.95 0,-0.95 a 8.61,8.61 0 0 1 1.64,0.7"
           class="cls-127"
           style="stroke-width:0.0631316" />
      </g>
    </g>
    <g
       id="g1253"
       class="cls-3"
       transform="matrix(4.1909778,0,0,4.1909778,-1004.3259,-1432.3752)"
       style="opacity:0.2;stroke-width:0.0631316">
      <g
         id="g1251"
         clip-path="url(#clip-path-62)"
         class="cls-129"
         style="stroke-width:0.0631316">
        <path
           id="path1249"
           d="m 263.75,357.17 c -0.08,0.32 -0.18,0.64 -0.28,0.95 l -1,-0.6 -1.73,1 -1.11,1.73 v -1.15 l -1.28,-1.24 0.8,-1.28 -1,-1.47 -2.3,-1 -1.07,-0.61 1.82,-0.44 1.5,-0.84 -0.35,1 -0.8,0.88 1.69,0.54 1.46,-0.45 V 356 l -0.23,1.57 0.05,1 1.24,-1 1.37,-1.22 0.27,0.84 z"
           class="cls-127"
           style="stroke-width:0.0631316" />
      </g>
    </g>
    <g
       id="g1259"
       class="cls-130"
       transform="matrix(4.1909778,0,0,4.1909778,-1004.3259,-1432.3752)"
       style="opacity:0.13;stroke-width:0.0631316">
      <g
         id="g1257"
         clip-path="url(#clip-path-63)"
         class="cls-131"
         style="stroke-width:0.0631316">
        <path
           id="path1255"
           d="m 262.33,347.72 -0.36,-0.14 -0.89,-0.19 -0.22,2.18 -0.31,-1.29 -0.35,-0.7 -1.06,-0.19 0.17,-1.19 1.15,0.93 1,-0.63 a 12.68,12.68 0 0 1 0.85,1.22"
           class="cls-127"
           style="stroke-width:0.0631316" />
      </g>
    </g>
    <g
       id="g1265"
       class="cls-132"
       transform="matrix(4.1909778,0,0,4.1909778,-1004.3259,-1432.3752)"
       style="opacity:0.41;stroke-width:0.0631316">
      <g
         id="g1263"
         clip-path="url(#clip-path-64)"
         class="cls-133"
         style="stroke-width:0.0631316">
        <path
           id="path1261"
           d="m 241.43,350.9 c 0,0.22 -0.12,0.39 -0.27,0.39 -0.15,0 -0.27,-0.17 -0.27,-0.39 0,-0.22 0.12,-0.38 0.27,-0.38 0.15,0 0.27,0.17 0.27,0.38"
           class="cls-127"
           style="stroke-width:0.0631316" />
      </g>
    </g>
    <g
       id="g1271"
       class="cls-132"
       transform="matrix(4.1909778,0,0,4.1909778,-1004.3259,-1432.3752)"
       style="opacity:0.41;stroke-width:0.0631316">
      <g
         id="g1269"
         clip-path="url(#clip-path-65)"
         class="cls-134"
         style="stroke-width:0.0631316">
        <path
           id="path1267"
           d="m 258.72,356.36 c 0,0.22 -0.12,0.39 -0.27,0.39 -0.15,0 -0.27,-0.17 -0.27,-0.39 0,-0.22 0.12,-0.38 0.27,-0.38 0.15,0 0.27,0.17 0.27,0.38"
           class="cls-127"
           style="stroke-width:0.0631316" />
      </g>
    </g>
    <g
       id="g1277"
       class="cls-132"
       transform="matrix(4.1909778,0,0,4.1909778,-1004.3259,-1432.3752)"
       style="opacity:0.41;stroke-width:0.0631316">
      <g
         id="g1275"
         clip-path="url(#clip-path-66)"
         class="cls-135"
         style="stroke-width:0.0631316">
        <path
           id="path1273"
           d="m 243.91,348 a 0.27,0.27 0 1 1 -0.27,-0.26 0.27,0.27 0 0 1 0.27,0.26"
           class="cls-127"
           style="stroke-width:0.0631316" />
      </g>
    </g>
    <g
       id="g1283"
       class="cls-132"
       transform="matrix(4.1909778,0,0,4.1909778,-1004.3259,-1432.3752)"
       style="opacity:0.41;stroke-width:0.0631316">
      <g
         id="g1281"
         clip-path="url(#clip-path-67)"
         class="cls-136"
         style="stroke-width:0.0631316">
        <path
           id="path1279"
           d="m 256.18,349.57 a 0.27,0.27 0 1 1 -0.27,-0.27 0.27,0.27 0 0 1 0.27,0.27"
           class="cls-127"
           style="stroke-width:0.0631316" />
      </g>
    </g>
    <g
       id="g1289"
       class="cls-132"
       transform="matrix(4.1909778,0,0,4.1909778,-1004.3259,-1432.3752)"
       style="opacity:0.41;stroke-width:0.0631316">
      <g
         id="g1287"
         clip-path="url(#clip-path-68)"
         class="cls-137"
         style="stroke-width:0.0631316">
        <path
           id="path1285"
           d="m 258.28,345.29 a 0.18,0.18 0 0 1 -0.18,0.18 0.19,0.19 0 0 1 -0.19,-0.18 0.2,0.2 0 0 1 0.19,-0.19 0.19,0.19 0 0 1 0.18,0.19"
           class="cls-127"
           style="stroke-width:0.0631316" />
      </g>
    </g>
    <g
       id="g1295"
       class="cls-132"
       transform="matrix(4.1909778,0,0,4.1909778,-1004.3259,-1432.3752)"
       style="opacity:0.41;stroke-width:0.0631316">
      <g
         id="g1293"
         clip-path="url(#clip-path-69)"
         class="cls-138"
         style="stroke-width:0.0631316">
        <path
           id="path1291"
           d="m 261.92,349.19 a 0.18,0.18 0 0 1 -0.18,0.18 0.19,0.19 0 0 1 -0.19,-0.18 0.2,0.2 0 0 1 0.19,-0.19 0.19,0.19 0 0 1 0.18,0.19"
           class="cls-127"
           style="stroke-width:0.0631316" />
      </g>
    </g>
    <g
       id="g1301"
       class="cls-132"
       transform="matrix(4.1909778,0,0,4.1909778,-1004.3259,-1432.3752)"
       style="opacity:0.41;stroke-width:0.0631316">
      <g
         id="g1299"
         clip-path="url(#clip-path-70)"
         class="cls-139"
         style="stroke-width:0.0631316">
        <path
           id="path1297"
           d="m 257.11,350.62 a 0.18,0.18 0 0 1 -0.18,0.18 0.19,0.19 0 0 1 -0.19,-0.18 0.2,0.2 0 0 1 0.19,-0.19 0.19,0.19 0 0 1 0.18,0.19"
           class="cls-127"
           style="stroke-width:0.0631316" />
      </g>
    </g>
    <g
       id="g1307"
       class="cls-132"
       transform="matrix(4.1909778,0,0,4.1909778,-1004.3259,-1432.3752)"
       style="opacity:0.41;stroke-width:0.0631316">
      <g
         id="g1305"
         clip-path="url(#clip-path-71)"
         class="cls-140"
         style="stroke-width:0.0631316">
        <path
           id="path1303"
           d="m 252,343.08 a 0.18,0.18 0 0 1 -0.18,0.18 0.19,0.19 0 0 1 -0.19,-0.18 0.2,0.2 0 0 1 0.19,-0.19 0.19,0.19 0 0 1 0.18,0.19"
           class="cls-127"
           style="stroke-width:0.0631316" />
      </g>
    </g>
    <g
       id="g1313"
       class="cls-132"
       transform="matrix(4.1909778,0,0,4.1909778,-1004.3259,-1432.3752)"
       style="opacity:0.41;stroke-width:0.0631316">
      <g
         id="g1311"
         clip-path="url(#clip-path-72)"
         class="cls-141"
         style="stroke-width:0.0631316">
        <path
           id="path1309"
           d="m 249.57,345.68 a 0.18,0.18 0 0 1 -0.18,0.18 0.19,0.19 0 0 1 -0.19,-0.18 0.2,0.2 0 0 1 0.19,-0.19 0.19,0.19 0 0 1 0.18,0.19"
           class="cls-127"
           style="stroke-width:0.0631316" />
      </g>
    </g>
    <g
       id="g1319"
       class="cls-132"
       transform="matrix(4.1909778,0,0,4.1909778,-1004.3259,-1432.3752)"
       style="opacity:0.41;stroke-width:0.0631316">
      <g
         id="g1317"
         clip-path="url(#clip-path-73)"
         class="cls-142"
         style="stroke-width:0.0631316">
        <path
           id="path1315"
           d="m 249.44,359.85 a 0.18,0.18 0 0 1 -0.18,0.18 0.18,0.18 0 1 1 0,-0.36 0.18,0.18 0 0 1 0.18,0.18"
           class="cls-127"
           style="stroke-width:0.0631316" />
      </g>
    </g>
    <g
       id="g1325"
       class="cls-132"
       transform="matrix(4.1909778,0,0,4.1909778,-1004.3259,-1432.3752)"
       style="opacity:0.41;stroke-width:0.0631316">
      <g
         id="g1323"
         clip-path="url(#clip-path-74)"
         class="cls-143"
         style="stroke-width:0.0631316">
        <path
           id="path1321"
           d="m 250.48,361.8 a 0.18,0.18 0 0 1 -0.18,0.18 0.18,0.18 0 1 1 0,-0.36 0.18,0.18 0 0 1 0.18,0.18"
           class="cls-127"
           style="stroke-width:0.0631316" />
      </g>
    </g>
    <g
       id="g1331"
       class="cls-132"
       transform="matrix(4.1909778,0,0,4.1909778,-1004.3259,-1432.3752)"
       style="opacity:0.41;stroke-width:0.0631316">
      <g
         id="g1329"
         clip-path="url(#clip-path-75)"
         class="cls-144"
         style="stroke-width:0.0631316">
        <path
           id="path1327"
           d="m 242.81,349.45 a 0.18,0.18 0 0 1 -0.18,0.18 0.19,0.19 0 0 1 -0.19,-0.18 0.2,0.2 0 0 1 0.19,-0.19 0.19,0.19 0 0 1 0.18,0.19"
           class="cls-127"
           style="stroke-width:0.0631316" />
      </g>
    </g>
    <g
       id="g1337"
       class="cls-132"
       transform="matrix(4.1909778,0,0,4.1909778,-1004.3259,-1432.3752)"
       style="opacity:0.41;stroke-width:0.0631316">
      <g
         id="g1335"
         clip-path="url(#clip-path-76)"
         class="cls-145"
         style="stroke-width:0.0631316">
        <path
           id="path1333"
           d="m 244.24,361.15 a 0.18,0.18 0 0 1 -0.18,0.18 0.18,0.18 0 1 1 0,-0.36 0.18,0.18 0 0 1 0.18,0.18"
           class="cls-127"
           style="stroke-width:0.0631316" />
      </g>
    </g>
    <g
       id="g1343"
       class="cls-36"
       transform="matrix(4.1909778,0,0,4.1909778,-1004.3259,-1432.3752)"
       style="opacity:0.37;stroke-width:0.0631316">
      <g
         id="g1341"
         clip-path="url(#clip-path-77)"
         class="cls-146"
         style="stroke-width:0.0631316">
        <path
           id="path1339"
           d="m 264.13,354.12 a 12.31,12.31 0 0 1 -0.38,3.05 c -0.08,0.32 -0.18,0.64 -0.28,0.95 -0.1,0.31 -0.17,0.47 -0.27,0.7 -0.1,0.23 -0.09,0.21 -0.14,0.31 v 0.1 c -0.09,0.2 -0.18,0.39 -0.28,0.58 v 0.06 c -0.14,0.26 -0.29,0.52 -0.45,0.76 v 0 a 5.07,5.07 0 0 1 -0.36,0.54 v 0 l -0.19,0.26 -0.4,0.51 c -0.1,0.11 -0.19,0.22 -0.29,0.32 a 2.84,2.84 0 0 1 -0.24,0.26 c -0.1,0.11 -0.2,0.22 -0.31,0.32 l -0.47,0.44 -0.47,0.39 -0.5,0.38 a 11.9,11.9 0 0 1 -1.06,0.68 6,6 0 0 1 -0.56,0.3 l -0.56,0.27 v 0 l -0.35,0.15 a 5.2,5.2 0 0 1 -0.55,0.21 c -0.22,0.08 -0.44,0.15 -0.67,0.21 L 255,366 l -0.25,0.06 a 5.05,5.05 0 0 1 -0.56,0.12 3.85,3.85 0 0 1 -0.49,0.08 h -0.09 a 2.7,2.7 0 0 1 -0.41,0.05 h -0.09 -0.56 v 0 a 3.55,3.55 0 0 1 -0.46,0 20.24,20.24 0 0 0 5,-3.52 18.32,18.32 0 0 0 2.48,-2.95 15.67,15.67 0 0 0 1.23,-2.17 v 0 l 0.16,-0.32 a 18.29,18.29 0 0 0 1.62,-7.54 v 0 c 0,-0.64 0,-1.23 -0.08,-1.76 0.07,0.13 0.15,0.26 0.21,0.4 0.06,0.14 0.15,0.29 0.22,0.44 a 5.38,5.38 0 0 1 0.24,0.55 c 0.08,0.19 0.16,0.4 0.23,0.6 l 0.07,0.22 c 0.05,0.15 0.1,0.3 0.14,0.46 a 3.45,3.45 0 0 1 0.12,0.46 c 0.08,0.31 0.14,0.62 0.19,0.94 a 7.35,7.35 0 0 1 0.1,0.82 1.23,1.23 0 0 1 0,0.27 1.94,1.94 0 0 1 0,0.24 c 0,0.21 0,0.42 0,0.63"
           class="cls-106"
           style="stroke-width:0.0631316" />
      </g>
    </g>
    <g
       id="g3275"
       class="cls-420"
       transform="matrix(4.1909778,0,0,4.1909778,-1004.3259,-1432.3752)"
       style="opacity:0.22;stroke-width:0.0631316">
      <g
         id="g3273"
         clip-path="url(#clip-path-310)"
         class="cls-459"
         style="stroke-width:0.0631316">
        <path
           id="path3271"
           d="m 264.13,354.12 a 12.31,12.31 0 0 1 -0.38,3.05 c -0.08,0.32 -0.18,0.64 -0.28,0.95 -0.1,0.31 -0.17,0.47 -0.27,0.7 -0.1,0.23 -0.09,0.21 -0.14,0.31 v 0.1 c -0.09,0.2 -0.18,0.39 -0.28,0.58 v 0.06 c -0.14,0.26 -0.29,0.52 -0.45,0.76 v 0 a 5.07,5.07 0 0 1 -0.36,0.54 v 0 l -0.19,0.26 -0.4,0.51 c -0.1,0.11 -0.19,0.22 -0.29,0.32 a 2.84,2.84 0 0 1 -0.24,0.26 c -0.1,0.11 -0.2,0.22 -0.31,0.32 l -0.47,0.44 -0.47,0.39 -0.5,0.38 a 11.9,11.9 0 0 1 -1.06,0.68 6,6 0 0 1 -0.56,0.3 l -0.56,0.27 v 0 l -0.35,0.15 a 5.2,5.2 0 0 1 -0.55,0.21 c -0.22,0.08 -0.44,0.15 -0.67,0.21 L 255,366 l -0.25,0.06 a 5.05,5.05 0 0 1 -0.56,0.12 3.85,3.85 0 0 1 -0.49,0.08 h -0.09 a 2.7,2.7 0 0 1 -0.41,0.05 h -0.09 -0.56 v 0 a 3.55,3.55 0 0 1 -0.46,0 h -0.23 a 12.12,12.12 0 0 1 -6.66,-2 9.75,9.75 0 0 1 -0.84,-0.59 12.27,12.27 0 0 1 -2.29,-2.32 v 0 a 11.46,11.46 0 0 1 -1.11,-1.77 10.87,10.87 0 0 1 -0.73,-1.76 11.76,11.76 0 0 1 -0.58,-2.72 c 0,-0.36 0,-0.73 0,-1.1 v 0 a 12.27,12.27 0 0 1 3.84,-8.92 9.32,9.32 0 0 1 0.76,-0.65 10.71,10.71 0 0 1 1.24,-0.88 12.28,12.28 0 0 1 12.88,0 10.13,10.13 0 0 1 1.14,0.8 c 0.15,0.11 0.3,0.24 0.45,0.37 a 11.74,11.74 0 0 1 1.18,1.16 c 0.13,0.16 0.27,0.32 0.4,0.49 a 12.68,12.68 0 0 1 0.85,1.22 c 0.08,0.12 0.15,0.24 0.22,0.37 0.07,0.13 0.15,0.26 0.21,0.4 0.06,0.14 0.15,0.29 0.22,0.44 a 5.38,5.38 0 0 1 0.24,0.55 c 0.08,0.19 0.16,0.4 0.23,0.6 l 0.07,0.22 c 0.05,0.15 0.1,0.3 0.14,0.46 a 3.45,3.45 0 0 1 0.12,0.46 c 0.08,0.31 0.14,0.62 0.19,0.94 a 7.35,7.35 0 0 1 0.1,0.82 1.23,1.23 0 0 1 0,0.27 1.94,1.94 0 0 1 0,0.24 c 0,0.21 0,0.42 0,0.63"
           class="cls-5"
           style="stroke-width:0.0631316" />
      </g>
    </g>
    <g
       id="g3281"
       class="cls-132"
       transform="matrix(4.1909778,0,0,4.1909778,-1004.3259,-1432.3752)"
       style="opacity:0.41;stroke-width:0.0631316">
      <g
         id="g3279"
         clip-path="url(#clip-path-311)"
         class="cls-460"
         style="stroke-width:0.0631316">
        <path
           id="path3277"
           d="m 263.52,350.3 a 31.21,31.21 0 0 1 -1.48,6.41 c -0.16,0.45 -0.33,0.9 -0.52,1.35 a 23,23 0 0 1 -4.69,7.28 v 0 l -0.35,0.15 a 5.2,5.2 0 0 1 -0.55,0.21 c -0.22,0.08 -0.44,0.15 -0.67,0.21 L 255,366 l -0.25,0.06 a 5.05,5.05 0 0 1 -0.56,0.12 3.85,3.85 0 0 1 -0.49,0.08 h -0.09 a 2.7,2.7 0 0 1 -0.41,0.05 h -0.09 -0.56 a 16.86,16.86 0 0 0 4.58,-3.49 18.27,18.27 0 0 0 2.48,-3.37 c 0.25,-0.42 0.48,-0.87 0.71,-1.34 a 26,26 0 0 0 2.3,-8.28 v 0 c 0.05,-0.44 0.1,-0.89 0.13,-1.36 0.08,0.15 0.15,0.29 0.22,0.44 a 5.38,5.38 0 0 1 0.24,0.55 c 0.08,0.19 0.16,0.4 0.23,0.6 l 0.07,0.22"
           class="cls-5"
           style="stroke-width:0.0631316" />
      </g>
    </g>
    <g
       id="g3287"
       class="cls-132"
       transform="matrix(4.1909778,0,0,4.1909778,-1004.3259,-1432.3752)"
       style="opacity:0.41;stroke-width:0.0631316">
      <g
         id="g3285"
         clip-path="url(#clip-path-312)"
         class="cls-461"
         style="stroke-width:0.0631316">
        <path
           id="path3283"
           d="m 261.08,346 c -0.09,0.31 -0.18,0.6 -0.27,0.9 v 0 c -0.12,0.38 -0.25,0.74 -0.39,1.1 a 21.28,21.28 0 0 1 -2.6,4.94 c -0.27,0.38 -0.55,0.74 -0.82,1.08 v 0 0 c -0.09,0.12 -0.19,0.23 -0.29,0.34 a 19.79,19.79 0 0 1 -5,4.06 21.82,21.82 0 0 1 -2.32,1.16 v 0 l -0.22,0.09 v 0 a 25.65,25.65 0 0 1 -4.86,1.42 l -0.32,0.05 c -0.66,0.12 -1.28,0.2 -1.84,0.26 v 0 a 11.46,11.46 0 0 1 -1.11,-1.77 c 6.75,-1.35 11.11,-3.67 13.93,-6.15 l 0.17,-0.15 a 15.12,15.12 0 0 0 4.19,-6 c 0.13,-0.35 0.24,-0.69 0.33,-1 a 11.9,11.9 0 0 0 0.33,-1.56 11.74,11.74 0 0 1 1.18,1.16"
           class="cls-5"
           style="stroke-width:0.0631316" />
      </g>
    </g>
    <g
       id="g3293"
       class="cls-132"
       transform="matrix(4.1909778,0,0,4.1909778,-1004.3259,-1432.3752)"
       style="opacity:0.41;stroke-width:0.0631316">
      <g
         id="g3291"
         clip-path="url(#clip-path-313)"
         class="cls-462"
         style="stroke-width:0.0631316">
        <path
           id="path3289"
           d="m 259.45,344.48 a 11.18,11.18 0 0 1 -2.51,5.95 l -0.19,0.23 c -4.14,4.86 -11.94,6.66 -16.53,7.32 a 11.76,11.76 0 0 1 -0.58,-2.72 c 0,-0.36 0,-0.73 0,-1.1 8.93,0.16 13.65,-1.92 16.12,-4.41 l 0.37,-0.39 a 8.84,8.84 0 0 0 2,-3.89 c 0,-0.12 0.06,-0.24 0.08,-0.35 a 8.71,8.71 0 0 0 0.15,-1.44 10.13,10.13 0 0 1 1.14,0.8"
           class="cls-5"
           style="stroke-width:0.0631316" />
      </g>
    </g>
  </g>
</svg>
