<?xml version="1.0" encoding="UTF-8" standalone="no"?>
<svg
   xmlns:dc="http://purl.org/dc/elements/1.1/"
   xmlns:cc="http://creativecommons.org/ns#"
   xmlns:rdf="http://www.w3.org/1999/02/22-rdf-syntax-ns#"
   xmlns:svg="http://www.w3.org/2000/svg"
   xmlns="http://www.w3.org/2000/svg"
   xmlns:sodipodi="http://sodipodi.sourceforge.net/DTD/sodipodi-0.dtd"
   xmlns:inkscape="http://www.inkscape.org/namespaces/inkscape"
   inkscape:version="1.0 (4035a4fb49, 2020-05-01)"
   sodipodi:docname="AnalogClockAnimation1_still_frame.svg"
   id="svg40"
   version="1.1"
   preserveAspectRatio="xMinYMin meet"
   height="2160"
   width="2160">
  <metadata
     id="metadata46">
    <rdf:RDF>
      <cc:Work
         rdf:about="">
        <dc:format>image/svg+xml</dc:format>
        <dc:type
           rdf:resource="http://purl.org/dc/dcmitype/StillImage" />
        <dc:title></dc:title>
      </cc:Work>
    </rdf:RDF>
  </metadata>
  <defs
     id="defs44" />
  <sodipodi:namedview
     inkscape:current-layer="svg40"
     inkscape:window-maximized="1"
     inkscape:window-y="-9"
     inkscape:window-x="-9"
     inkscape:cy="1080"
     inkscape:cx="1080"
     inkscape:zoom="0.37916667"
     showgrid="false"
     id="namedview42"
     inkscape:window-height="1001"
     inkscape:window-width="1920"
     inkscape:pageshadow="2"
     inkscape:pageopacity="0"
     guidetolerance="10"
     gridtolerance="10"
     objecttolerance="10"
     borderopacity="1"
     bordercolor="#666666"
     pagecolor="#ffffff" />
  <path
     style="stroke:#000000;stroke-width:16.6273;stroke-miterlimit:4;stroke-dasharray:none;stroke-opacity:1"
     id="path4"
     d="m 2151.6892,1080.007 -1.469,-56.0876 -4.4021,-55.93548 -7.3252,-55.62621 -10.2233,-55.16729 -13.0991,-54.55623 -15.9348,-53.79802 -18.7282,-52.88767 -21.4718,-51.83765 -24.1554,-50.64048 -26.7717,-49.30861 -29.3157,-47.83959 -31.7798,-46.23836 -34.1543,-44.51244 -36.4388,-42.6643 -38.6212,-40.69894 -40.6988,-38.62134 -42.6641,-36.439 -44.5123,-34.15438 -46.2382,-31.77999 -47.8394,-29.31581 -49.3084,-26.77181 -50.6403,-24.15549 -51.8374,-21.471819 -52.8875,-18.728295 -53.7978,-15.93489 -54.556,-13.099082 -55.1671,-10.22337 -55.626,-7.325211 -55.9353,-4.4021097 -56.0874,-1.469032 -56.0874,1.469032 -55.93521,4.4021097 -55.62599,7.325211 -55.16708,10.22337 -54.55602,13.099082 -53.79781,15.93489 -52.88747,18.728295 -51.83744,21.471819 -50.64028,24.15549 -49.30843,26.77181 -47.8394,29.31581 -46.23818,31.77999 -44.51227,34.15438 -42.66413,36.439 -40.69878,38.62134 -38.62119,40.69894 -36.43886,42.6643 -34.15425,44.51244 -31.77987,46.23836 -29.31569,47.83959 -26.77171,49.30861 -24.15539,50.64048 -21.47174,51.83765 -18.728218,52.88767 -15.934828,53.79802 -13.099031,54.55623 -10.22333,55.16729 -7.325182,55.62621 -4.4020928,55.93548 -1.469027,56.0876 1.469027,56.0876 4.4020928,55.9355 7.325182,55.6262 10.22333,55.1673 13.099031,54.5562 15.934828,53.7981 18.728218,52.8876 21.47174,51.8377 24.15539,50.6405 26.77171,49.3086 29.31569,47.8396 31.77987,46.2383 34.15425,44.5125 36.43886,42.6643 38.62119,40.6989 40.69878,38.6213 42.66413,36.439 44.51227,34.1544 46.23818,31.78 47.8394,29.3158 49.30843,26.7718 50.64028,24.1555 51.83744,21.4718 52.88747,18.7283 53.79781,15.9349 54.55602,13.0991 55.16708,10.2234 55.62599,7.3252 55.93521,4.4021 56.0874,1.469 56.0874,-1.469 55.9353,-4.4021 55.626,-7.3252 55.1671,-10.2234 54.556,-13.0991 53.7978,-15.9349 52.8875,-18.7283 51.8374,-21.4718 50.6403,-24.1555 49.3084,-26.7718 47.8394,-29.3158 46.2382,-31.78 44.5123,-34.1544 42.6641,-36.439 40.6988,-38.6213 38.6212,-40.6989 36.4388,-42.6643 34.1543,-44.5125 31.7798,-46.2383 29.3157,-47.8396 26.7717,-49.3086 24.1554,-50.6405 21.4718,-51.8377 18.7282,-52.8876 15.9348,-53.7981 13.0991,-54.5562 10.2233,-55.1673 7.3252,-55.6262 4.4021,-55.9355 1.4665,-57.1601"
     stroke-width="5pt"
     stroke="#000"
     fill="none" />
  <path
     style="stroke:#000000;stroke-width:9.97641;stroke-miterlimit:4;stroke-dasharray:none;stroke-opacity:1"
     id="path6"
     d="m 1186.4237,67.47936 5.6018,-53.291717 m 99.6519,69.962368 11.1412,-52.413787 m 91.7954,79.996186 16.5584,-50.962214 m 82.9289,89.152074 21.796,-48.95196 m 73.1571,97.33277 26.7916,-46.40547 m 62.5821,104.44598 31.4955,-43.35018 m 51.3212,110.41439 35.8552,-39.82101 m 39.4991,115.17565 39.8209,-35.85537 m 27.2431,118.6724 43.35,-31.49566 m 14.6903,120.86971 46.4052,-26.79176 m 1.9754,121.74514 48.9517,-21.79605 m -10.762,121.28374 50.962,-16.55842 m -23.3797,119.49546 52.4136,-11.14121 m -35.743,116.39528 53.2915,-5.60178 m -47.7147,112.02308 h 53.5858 m -59.1626,106.4213 53.2915,5.6018 m -69.9621,99.6523 52.4136,11.1412 m -79.9959,91.7958 50.962,16.5585 m -89.1517,82.9292 48.9517,21.7961 m -97.3323,73.1573 46.4052,26.7918 m -104.4455,62.5823 43.35,31.4956 m -110.414,51.3214 39.8209,35.8554 m -115.1752,39.4992 35.8552,39.821 m -118.6719,27.2432 31.4955,43.3502 m -120.8692,14.6903 26.7916,46.4055 m -121.7447,1.9754 21.796,48.9519 m -121.2833,-10.7621 16.5584,50.9622 m -119.495,-23.3798 11.1412,52.4138 m -116.3949,-35.7431 5.6018,53.2917 m -112.0227,-47.7149 v 53.586 m -106.4209,-59.1628 -5.60171,53.2917 m -99.65191,-69.9624 -11.14116,52.4138 m -91.79548,-79.9962 -16.55835,50.9622 m -82.92894,-89.152 -21.79597,48.9519 m -73.15705,-97.3328 -26.79166,46.4055 m -62.58204,-104.446 -31.49554,43.3502 m -51.32117,-110.4144 -35.85523,39.821 m -39.49912,-115.1756 -39.82085,35.8554 m -27.2431,-118.6724 -43.35001,31.4956 m -14.69027,-120.8697 -46.40529,26.7918 m -1.97533,-121.7452 -48.95177,21.7961 m 10.76206,-121.2838 -50.962018,16.5585 m 23.379728,-119.4955 -52.413587,11.1412 m 35.742997,-116.3953 -53.291509,5.6018 M 61.902315,1080.007 H 8.3165012 M 67.47913,973.5857 14.187621,967.98392 M 84.14972,868.33163 31.736133,857.19042 M 111.73201,765.39459 60.769992,748.83617 M 149.92172,665.9069 100.96995,644.11085 m 97.33239,-73.15733 -46.40529,-26.79176 m 104.44557,-62.58229 -43.35001,-31.49566 m 110.41396,-51.32137 -39.82085,-35.85537 m 115.1752,-39.49927 -35.85523,-39.82101 m 118.67194,-27.2432 -31.49554,-43.35018 m 120.86924,-14.69033 -26.79166,-46.40547 m 121.74468,-1.97534 -21.79597,-48.95196 m 121.28326,10.7621 -16.55835,-50.962214 M 868.32828,84.150011 857.18712,31.736224 M 973.5819,67.47936 967.98019,14.187643 m 112.02261,47.71488 V 8.3165013"
     stroke-width="4"
     stroke="#000"
     fill="none" />
  <path
     style="stroke:#000000;stroke-width:16.6273;stroke-miterlimit:4;stroke-dasharray:none;stroke-opacity:1"
     id="path8"
     d="m 1562.2602,244.70855 53.5858,-92.81094 m 299.4521,445.85017 92.8105,-53.58602 m 36.4115,535.84524 h 107.1691 m -236.3911,482.2592 92.8105,53.5861 m -445.8484,299.4532 53.5858,92.8109 m -535.8432,36.4116 v 107.1695 m -482.25731,-236.392 -53.58582,92.8109 m -299.45204,-445.8502 -92.81058,53.5861 M 115.48563,1080.007 H 8.3165012 M 244.70763,597.74778 151.89705,544.16176 M 597.74549,244.70855 544.15967,151.89761 M 1080.0028,115.48605 V 8.3165013"
     stroke-width="5pt"
     stroke="#000"
     fill="none" />
  <text
     style="stroke-width:1"
     id="text10"
     text-anchor="middle"
     font-size="218.234px"
     font-family="Helvetica"
     y="424.99713"
     x="1503.3225">1</text>
  <text
     style="stroke-width:1"
     id="text12"
     text-anchor="middle"
     font-size="218.234px"
     font-family="Helvetica"
     y="734.88513"
     x="1813.2104">2</text>
  <text
     style="stroke-width:1"
     id="text14"
     text-anchor="middle"
     font-size="218.234px"
     font-family="Helvetica"
     y="1158.2026"
     x="1926.6376">3</text>
  <text
     style="stroke-width:1"
     id="text16"
     text-anchor="middle"
     font-size="218.234px"
     font-family="Helvetica"
     y="1581.5176"
     x="1813.2104">4</text>
  <text
     style="stroke-width:1"
     id="text18"
     text-anchor="middle"
     font-size="218.234px"
     font-family="Helvetica"
     y="1891.4082"
     x="1503.3225">5</text>
  <text
     style="stroke-width:1"
     id="text20"
     text-anchor="middle"
     font-size="218.234px"
     font-family="Helvetica"
     y="2004.8353"
     x="1080.005">6</text>
  <text
     style="stroke-width:1"
     id="text22"
     text-anchor="middle"
     font-size="218.234px"
     font-family="Helvetica"
     y="1891.4082"
     x="656.6875">7</text>
  <text
     style="stroke-width:1"
     id="text24"
     text-anchor="middle"
     font-size="218.234px"
     font-family="Helvetica"
     y="1581.5176"
     x="346.79947">8</text>
  <text
     style="stroke-width:1"
     id="text26"
     text-anchor="middle"
     font-size="218.234px"
     font-family="Helvetica"
     y="1158.2026"
     x="233.37245">9</text>
  <text
     style="stroke-width:1"
     id="text28"
     text-anchor="middle"
     font-size="218.234px"
     font-family="Helvetica"
     y="734.88513"
     x="378.95105">10</text>
  <text
     style="stroke-width:1"
     id="text30"
     text-anchor="middle"
     font-size="218.234px"
     font-family="Helvetica"
     y="424.99713"
     x="688.83905">11</text>
  <text
     style="stroke-width:1"
     id="text32"
     text-anchor="middle"
     font-size="218.234px"
     font-family="Helvetica"
     y="311.57004"
     x="1080.005">12</text>
  <path
     style="stroke:#000000;stroke-width:8.31366;stroke-miterlimit:4;stroke-dasharray:none;stroke-opacity:1"
     id="path34"
     d="m 1124.3455,1033.4419 -6.4572,-5.3898 13.4158,-42.138 103.0189,-305.84063 9.4776,-277.13339 -118.2454,250.818 -48.1712,319.11182 -7.3301,43.6096 -8.2056,1.8431 -7.8964,2.8957 -7.4499,3.9033 -6.8787,4.8435 -6.1854,5.6991 -5.3897,6.4572 -4.4994,7.1058 -3.5366,7.6319 -2.5066,8.0286 -1.4391,8.2854 -0.3467,8.4052 0.7557,8.3777 1.8432,8.2057 2.8956,7.8963 3.9033,7.4499 4.8436,6.8788 5.699,6.1854 6.4572,5.3898 7.1057,4.4994 7.632,3.5366 8.0285,2.5066 8.2854,1.4391 8.4051,0.3467 8.3777,-0.7557 8.2056,-1.8432 7.8964,-2.8956 7.4498,-3.9033 6.8788,-4.8436 6.1854,-5.699 5.3897,-6.4573 4.4994,-7.1057 3.5366,-7.632 2.5066,-8.0286 1.4391,-8.2854 0.3467,-8.4052 -0.7557,-8.3777 -1.8432,-8.2056 -2.8956,-7.8964 -3.9033,-7.4499 -4.8436,-6.8788 z"
     stroke-width="2.5pt"
     stroke="#000"
     fill="#484848" />
  <path
     style="stroke:#000000;stroke-width:8.31366;stroke-miterlimit:4;stroke-dasharray:none;stroke-opacity:1"
     id="path36"
     d="m 1069.9765,1127.1782 6.2428,0.9053 6.3076,0.082 237.0944,775.0258 74.9927,145.09 -24.6118,-161.4589 -263.734,-766.3711 5.0556,-3.7736 4.5168,-4.4022 3.9058,-4.9533 3.2249,-5.4222 2.4916,-5.7963 1.7109,-6.0707 0.9054,-6.2427 0.082,-6.3076 -0.7408,-6.2652 -1.5513,-6.1131 -2.3395,-5.8587 -3.0827,-5.5045 -3.7736,-5.0556 -4.402,-4.5168 -4.9533,-3.9058 -5.4222,-3.2249 -5.7963,-2.4916 -6.0707,-1.711 -6.2427,-0.9053 -6.3076,-0.082 -6.2652,0.7407 -6.113,1.5514 -5.8587,2.3394 -5.5045,3.0828 -5.0555,3.7736 -4.5168,4.4021 -3.9058,4.9533 -3.2249,5.4222 -2.4916,5.7963 -1.7109,6.0707 -0.9054,6.2427 -0.082,6.3077 0.7407,6.2652 1.5514,6.113 2.3395,5.8587 3.0827,5.5045 3.7735,5.0556 4.4021,4.5168 4.9533,3.9058 5.4222,3.2249 5.7963,2.4916 z"
     stroke-width="2.5pt"
     stroke="#000"
     fill="#242424" />
  <path
     style="stroke:#000000;stroke-width:8.31366;stroke-miterlimit:4;stroke-dasharray:none;stroke-opacity:1"
     id="path38"
     d="m 1111.451,1086.6912 0.6036,-4.1626 0.055,-4.2051 890.0309,-289.18995 35.9425,-20.42678 -41.0829,4.59914 -890.0333,289.18989 -2.5166,-3.3695 -2.933,-3.0129 -3.3047,-2.6038 -3.614,-2.15 -3.8633,-1.6586 -4.048,-1.1423 -4.1626,-0.6035 -4.2051,-0.055 -4.1751,0.4938 -4.0754,1.0351 -3.9082,1.5588 -3.6689,2.0552 -3.3695,2.5165 -3.0129,2.9331 -2.6038,3.3047 -2.1499,3.614 -1.6586,3.8633 -1.1423,4.048 -0.6036,4.1627 -0.055,4.205 0.4938,4.1752 1.035,4.0754 1.5589,3.9082 2.0551,3.6689 2.5165,3.3695 2.9331,3.0129 3.3047,2.6039 3.614,2.1499 3.8633,1.6586 4.0479,1.1423 4.1627,0.6036 4.2051,0.055 4.1751,-0.4938 4.0754,-1.0351 3.9082,-1.5588 3.6688,-2.0551 3.3696,-2.5166 3.0129,-2.9331 2.6038,-3.3047 2.1499,-3.6139 1.6586,-3.8634 z"
     stroke-width="2.5pt"
     stroke="#000" />
</svg>
