<?xml version="1.0" encoding="UTF-8" standalone="no"?>
<svg
   xmlns:dc="http://purl.org/dc/elements/1.1/"
   xmlns:cc="http://creativecommons.org/ns#"
   xmlns:rdf="http://www.w3.org/1999/02/22-rdf-syntax-ns#"
   xmlns:svg="http://www.w3.org/2000/svg"
   xmlns="http://www.w3.org/2000/svg"
   xmlns:sodipodi="http://sodipodi.sourceforge.net/DTD/sodipodi-0.dtd"
   xmlns:inkscape="http://www.inkscape.org/namespaces/inkscape"
   inkscape:version="1.0 (4035a4fb49, 2020-05-01)"
   sodipodi:docname="hour.svg"
   id="svg40"
   version="1.1"
   preserveAspectRatio="xMinYMin meet"
   height="2160"
   width="2160">
  <metadata
     id="metadata46">
    <rdf:RDF>
      <cc:Work
         rdf:about="">
        <dc:format>image/svg+xml</dc:format>
        <dc:type
           rdf:resource="http://purl.org/dc/dcmitype/StillImage" />
        <dc:title></dc:title>
      </cc:Work>
    </rdf:RDF>
  </metadata>
  <defs
     id="defs44" />
  <sodipodi:namedview
     inkscape:current-layer="svg40"
     inkscape:window-maximized="1"
     inkscape:window-y="-9"
     inkscape:window-x="-9"
     inkscape:cy="1080"
     inkscape:cx="1080"
     inkscape:zoom="0.37916667"
     showgrid="false"
     id="namedview42"
     inkscape:window-height="1001"
     inkscape:window-width="1920"
     inkscape:pageshadow="2"
     inkscape:pageopacity="0"
     guidetolerance="10"
     gridtolerance="10"
     objecttolerance="10"
     borderopacity="1"
     bordercolor="#666666"
     pagecolor="#ffffff" />
  <path
     style="stroke:#000000;stroke-width:8.31366;stroke-miterlimit:4;stroke-dasharray:none;stroke-opacity:1"
     id="path34"
     d="m 1124.3455,1033.4419 -6.4572,-5.3898 13.4158,-42.138 103.0189,-305.84063 9.4776,-277.13339 -118.2454,250.818 -48.1712,319.11182 -7.3301,43.6096 -8.2056,1.8431 -7.8964,2.8957 -7.4499,3.9033 -6.8787,4.8435 -6.1854,5.6991 -5.3897,6.4572 -4.4994,7.1058 -3.5366,7.6319 -2.5066,8.0286 -1.4391,8.2854 -0.3467,8.4052 0.7557,8.3777 1.8432,8.2057 2.8956,7.8963 3.9033,7.4499 4.8436,6.8788 5.699,6.1854 6.4572,5.3898 7.1057,4.4994 7.632,3.5366 8.0285,2.5066 8.2854,1.4391 8.4051,0.3467 8.3777,-0.7557 8.2056,-1.8432 7.8964,-2.8956 7.4498,-3.9033 6.8788,-4.8436 6.1854,-5.699 5.3897,-6.4573 4.4994,-7.1057 3.5366,-7.632 2.5066,-8.0286 1.4391,-8.2854 0.3467,-8.4052 -0.7557,-8.3777 -1.8432,-8.2056 -2.8956,-7.8964 -3.9033,-7.4499 -4.8436,-6.8788 z"
     stroke-width="2.5pt"
     stroke="#000"
     fill="#484848" />
</svg>
