<?xml version="1.0" encoding="UTF-8" standalone="no"?>
<svg
   xmlns:dc="http://purl.org/dc/elements/1.1/"
   xmlns:cc="http://creativecommons.org/ns#"
   xmlns:rdf="http://www.w3.org/1999/02/22-rdf-syntax-ns#"
   xmlns:svg="http://www.w3.org/2000/svg"
   xmlns="http://www.w3.org/2000/svg"
   xmlns:sodipodi="http://sodipodi.sourceforge.net/DTD/sodipodi-0.dtd"
   xmlns:inkscape="http://www.inkscape.org/namespaces/inkscape"
   inkscape:version="1.0 (4035a4fb49, 2020-05-01)"
   sodipodi:docname="minute.svg"
   id="svg40"
   version="1.1"
   preserveAspectRatio="xMinYMin meet"
   height="2160"
   width="2160">
  <metadata
     id="metadata46">
    <rdf:RDF>
      <cc:Work
         rdf:about="">
        <dc:format>image/svg+xml</dc:format>
        <dc:type
           rdf:resource="http://purl.org/dc/dcmitype/StillImage" />
        <dc:title></dc:title>
      </cc:Work>
    </rdf:RDF>
  </metadata>
  <defs
     id="defs44" />
  <sodipodi:namedview
     inkscape:current-layer="svg40"
     inkscape:window-maximized="1"
     inkscape:window-y="-9"
     inkscape:window-x="-9"
     inkscape:cy="1080"
     inkscape:cx="1080"
     inkscape:zoom="0.37916667"
     showgrid="false"
     id="namedview42"
     inkscape:window-height="1001"
     inkscape:window-width="1920"
     inkscape:pageshadow="2"
     inkscape:pageopacity="0"
     guidetolerance="10"
     gridtolerance="10"
     objecttolerance="10"
     borderopacity="1"
     bordercolor="#666666"
     pagecolor="#ffffff" />
  <path
     style="stroke:#000000;stroke-width:8.31366;stroke-miterlimit:4;stroke-dasharray:none;stroke-opacity:1"
     id="path36"
     d="m 1069.9765,1127.1782 6.2428,0.9053 6.3076,0.082 237.0944,775.0258 74.9927,145.09 -24.6118,-161.4589 -263.734,-766.3711 5.0556,-3.7736 4.5168,-4.4022 3.9058,-4.9533 3.2249,-5.4222 2.4916,-5.7963 1.7109,-6.0707 0.9054,-6.2427 0.082,-6.3076 -0.7408,-6.2652 -1.5513,-6.1131 -2.3395,-5.8587 -3.0827,-5.5045 -3.7736,-5.0556 -4.402,-4.5168 -4.9533,-3.9058 -5.4222,-3.2249 -5.7963,-2.4916 -6.0707,-1.711 -6.2427,-0.9053 -6.3076,-0.082 -6.2652,0.7407 -6.113,1.5514 -5.8587,2.3394 -5.5045,3.0828 -5.0555,3.7736 -4.5168,4.4021 -3.9058,4.9533 -3.2249,5.4222 -2.4916,5.7963 -1.7109,6.0707 -0.9054,6.2427 -0.082,6.3077 0.7407,6.2652 1.5514,6.113 2.3395,5.8587 3.0827,5.5045 3.7735,5.0556 4.4021,4.5168 4.9533,3.9058 5.4222,3.2249 5.7963,2.4916 z"
     stroke-width="2.5pt"
     stroke="#000"
     fill="#242424" />
</svg>
