<?xml version="1.0" encoding="UTF-8" standalone="no"?>
<svg
   xmlns:dc="http://purl.org/dc/elements/1.1/"
   xmlns:cc="http://creativecommons.org/ns#"
   xmlns:rdf="http://www.w3.org/1999/02/22-rdf-syntax-ns#"
   xmlns:svg="http://www.w3.org/2000/svg"
   xmlns="http://www.w3.org/2000/svg"
   xmlns:sodipodi="http://sodipodi.sourceforge.net/DTD/sodipodi-0.dtd"
   xmlns:inkscape="http://www.inkscape.org/namespaces/inkscape"
   inkscape:version="1.0 (4035a4fb49, 2020-05-01)"
   sodipodi:docname="second.svg"
   id="svg40"
   version="1.1"
   preserveAspectRatio="xMinYMin meet"
   height="2160"
   width="2160">
  <metadata
     id="metadata46">
    <rdf:RDF>
      <cc:Work
         rdf:about="">
        <dc:format>image/svg+xml</dc:format>
        <dc:type
           rdf:resource="http://purl.org/dc/dcmitype/StillImage" />
        <dc:title></dc:title>
      </cc:Work>
    </rdf:RDF>
  </metadata>
  <defs
     id="defs44" />
  <sodipodi:namedview
     inkscape:current-layer="svg40"
     inkscape:window-maximized="1"
     inkscape:window-y="-9"
     inkscape:window-x="-9"
     inkscape:cy="1080"
     inkscape:cx="1080"
     inkscape:zoom="0.37916667"
     showgrid="false"
     id="namedview42"
     inkscape:window-height="1001"
     inkscape:window-width="1920"
     inkscape:pageshadow="2"
     inkscape:pageopacity="0"
     guidetolerance="10"
     gridtolerance="10"
     objecttolerance="10"
     borderopacity="1"
     bordercolor="#666666"
     pagecolor="#ffffff" />
  <path
     style="stroke:#000000;stroke-width:8.31366;stroke-miterlimit:4;stroke-dasharray:none;stroke-opacity:1"
     id="path38"
     d="m 1111.451,1086.6912 0.6036,-4.1626 0.055,-4.2051 890.0309,-289.18995 35.9425,-20.42678 -41.0829,4.59914 -890.0333,289.18989 -2.5166,-3.3695 -2.933,-3.0129 -3.3047,-2.6038 -3.614,-2.15 -3.8633,-1.6586 -4.048,-1.1423 -4.1626,-0.6035 -4.2051,-0.055 -4.1751,0.4938 -4.0754,1.0351 -3.9082,1.5588 -3.6689,2.0552 -3.3695,2.5165 -3.0129,2.9331 -2.6038,3.3047 -2.1499,3.614 -1.6586,3.8633 -1.1423,4.048 -0.6036,4.1627 -0.055,4.205 0.4938,4.1752 1.035,4.0754 1.5589,3.9082 2.0551,3.6689 2.5165,3.3695 2.9331,3.0129 3.3047,2.6039 3.614,2.1499 3.8633,1.6586 4.0479,1.1423 4.1627,0.6036 4.2051,0.055 4.1751,-0.4938 4.0754,-1.0351 3.9082,-1.5588 3.6688,-2.0551 3.3696,-2.5166 3.0129,-2.9331 2.6038,-3.3047 2.1499,-3.6139 1.6586,-3.8634 z"
     stroke-width="2.5pt"
     stroke="#000" />
</svg>
